<svg width="390" height="272" viewBox="0 0 390 272" fill="none" xmlns="http://www.w3.org/2000/svg">
<rect width="390" height="271.879" fill="#E5E5E5"/>
<path d="M197.896 51.3748C191.534 51.3748 186.796 49.7658 183.425 46.4332C179.325 42.3798 177.24 35.6339 177.24 26.3614V21.8661H176.502V26.3614C176.502 31.2907 177.072 35.5614 178.215 39.0547C179.275 42.2947 180.847 44.9647 182.896 46.9907C186.418 50.4727 191.322 52.1652 197.896 52.1652H205.273V51.3748H197.896Z" fill="#898989"/>
<path d="M233.043 39.8348V97.9538C233.043 107.226 230.96 113.982 226.86 118.035C223.489 121.368 218.753 122.986 212.391 122.986H205.01V123.776H212.391C218.965 123.776 223.873 122.074 227.395 118.592C229.445 116.567 231.01 113.892 232.07 110.652C233.212 107.158 233.781 102.883 233.781 97.9538V39.8348H233.043Z" fill="#898989"/>
<path d="M199.324 86.6439L199.08 102.386L200.202 103.334L204.814 103.993L209.975 103.609L211.457 102.566L211.512 86.8086L209.81 87.4126L206.241 87.7969L202.288 87.9067L199.324 86.6439Z" fill="#FAFAFA"/>
<path d="M153.844 215.609V224.064L215.811 260.19L255.364 236.873L254.972 229.445L216.128 252.773L153.844 215.609Z" fill="#98999A"/>
<path d="M153.919 215.609L191.707 192.514L254.994 229.445L216.343 252.504L153.919 215.609Z" fill="#D5D5D5"/>
<path d="M164.564 216.902L194.425 199.165L242.04 226.744L211.73 243.934L164.564 216.902Z" fill="#FAFAFA"/>
<path d="M216.172 260.474L153.422 224.064V215.622H153.896V223.778L216.157 259.898L255.016 236.52V229.428H255.49V236.8L255.383 236.873L216.172 260.474Z" fill="#898989"/>
<path d="M191.712 193.091L254.525 229.471L216.2 252.412L154.34 215.622L191.712 193.091ZM191.706 192.514L153.373 215.625L216.201 252.99L255.503 229.464L191.706 192.514Z" fill="#898989"/>
<path d="M216.339 252.508H215.864V260.201H216.339V252.508Z" fill="#898989"/>
<path d="M211.729 244.509L211.605 244.436L164.565 216.902L194.419 198.586L194.547 198.661L242.596 226.69L211.729 244.509ZM165.531 216.892L211.731 243.934L241.607 226.687L194.426 199.165L165.531 216.892Z" fill="#898989"/>
<path d="M195.72 160.249C193.358 157.339 189.467 155.92 183.841 155.92H139.919C133.557 155.92 128.826 154.305 125.455 150.973C121.355 146.919 119.276 140.168 119.276 130.895V111.815H118.485V130.895C118.485 135.824 119.076 140.095 120.218 143.588C121.278 146.828 122.86 149.504 124.909 151.53C128.431 155.012 133.344 156.71 139.919 156.71H183.841C189.22 156.71 192.906 158.026 195.112 160.744C197.084 163.174 198.001 166.804 198.001 172.182V221.787H198.791V172.182C198.791 166.618 197.809 162.823 195.72 160.249Z" fill="#898989"/>
<path d="M104.943 85.4678V130.017L105.682 131.942L108.425 133.77L112.843 135.369L117.185 135.903L120.155 135.75L123.278 135.522L126.173 134.988L128.915 134.074L131.274 132.323L132.871 130.19V85.4678H104.943Z" fill="#FAFAFA"/>
<path d="M118.913 91.1075C126.678 91.1075 132.973 88.452 132.973 85.1762C132.973 81.9003 126.678 79.2448 118.913 79.2448C111.147 79.2448 104.852 81.9003 104.852 85.1762C104.852 88.452 111.147 91.1075 118.913 91.1075Z" fill="#E8E8E8"/>
<path d="M119.056 125.734C125.97 125.734 131.574 123.399 131.574 120.519C131.574 117.638 125.97 115.303 119.056 115.303C112.143 115.303 106.539 117.638 106.539 120.519C106.539 123.399 112.143 125.734 119.056 125.734Z" fill="#E8E8E8"/>
<path d="M118.947 91.4205C115.142 91.4205 111.56 90.7929 108.859 89.6535C106.053 88.4697 104.507 86.8549 104.507 85.1067C104.507 83.3584 106.053 81.7437 108.859 80.5598C111.56 79.4204 115.142 78.7929 118.947 78.7929C122.751 78.7929 126.334 79.4204 129.034 80.5598C131.84 81.7437 133.386 83.3584 133.386 85.1067C133.386 86.8549 131.84 88.4696 129.034 89.6535C126.334 90.793 122.751 91.4205 118.947 91.4205ZM118.947 79.5616C115.243 79.5616 111.766 80.1676 109.158 81.2681C106.691 82.3088 105.276 83.7079 105.276 85.1068C105.276 86.5056 106.691 87.9047 109.158 88.9454C111.766 90.0458 115.243 90.6519 118.947 90.6519C122.651 90.6519 126.127 90.0458 128.736 88.9454C131.202 87.9047 132.617 86.5056 132.617 85.1068C132.617 83.708 131.202 82.3088 128.736 81.2681C126.127 80.1676 122.651 79.5616 118.947 79.5616Z" fill="#898989"/>
<path d="M133.001 84.7301H132.831L132.922 85.686L132.607 86.2578V129.998C132.607 130.023 132.597 130.05 132.593 130.077C132.418 131.427 130.92 132.762 128.478 133.74C125.9 134.773 122.516 135.342 118.945 135.342C115.375 135.342 111.989 134.773 109.412 133.74C106.97 132.762 105.461 131.427 105.286 130.077C105.282 130.05 105.259 130.023 105.259 129.998V85.7746L104.956 84.7301H104.892C104.679 84.7301 104.521 84.8944 104.521 85.1067V130.127C104.521 130.192 104.531 130.254 104.56 130.308C104.842 131.914 106.455 133.382 109.13 134.454C111.797 135.522 115.282 136.111 118.948 136.111C122.614 136.111 126.101 135.522 128.767 134.454C131.442 133.382 133.065 131.914 133.347 130.308C133.376 130.254 133.398 130.192 133.398 130.127V85.1067C133.398 84.8944 133.214 84.7301 133.001 84.7301Z" fill="#898989"/>
<path d="M106.795 121.745L106.612 128.699L108.295 131.188L114.298 133.53L120.777 133.677L125.279 132.908L129.085 131.334L130.954 129.699L131.318 127.162L131.208 121.489L129.817 122.953L127.401 124.38L124.254 125.332L119.935 125.881L112.651 125.075L110.089 124.197L106.795 121.745Z" fill="#98999A"/>
<path d="M118.995 126.135C115.632 126.135 112.465 125.58 110.076 124.572C107.582 123.52 106.209 122.08 106.209 120.519C106.209 118.957 107.582 117.517 110.076 116.465C112.465 115.457 115.632 114.902 118.995 114.902C122.357 114.902 125.525 115.457 127.913 116.465C130.407 117.517 131.78 118.957 131.78 120.519C131.78 122.08 130.407 123.52 127.913 124.572C125.525 125.58 122.357 126.135 118.995 126.135ZM118.995 115.671C112.481 115.671 106.978 117.891 106.978 120.519C106.978 123.146 112.481 125.366 118.995 125.366C125.508 125.366 131.012 123.146 131.012 120.519C131.012 117.891 125.508 115.671 118.995 115.671Z" fill="#898989"/>
<path d="M106.998 120.404H106.208V128.413H106.21C106.224 127.781 106.471 127.119 106.998 126.52V120.404Z" fill="#898989"/>
<path d="M106.998 126.521C106.471 127.119 106.224 127.781 106.21 128.413H106.998V126.521Z" fill="#898989"/>
<path d="M131.772 128.686V128.677C131.772 128.68 131.772 128.683 131.771 128.686L131.772 128.686Z" fill="#898989"/>
<path d="M131.793 120.404H131.025L131.016 126.523C131.472 127.08 131.73 127.674 131.773 128.29L131.793 120.404Z" fill="#898989"/>
<path d="M131.773 128.294L131.772 128.677C131.777 128.612 131.781 128.546 131.781 128.479C131.781 128.417 131.778 128.355 131.773 128.294Z" fill="#898989"/>
<path d="M131.016 126.525L131.013 128.486L131.771 128.685C131.771 128.682 131.772 128.68 131.772 128.677L131.773 128.294C131.73 127.678 131.473 127.083 131.016 126.525Z" fill="#898989"/>
<path d="M131.026 128.486V128.482L131.018 128.482C131.014 131.109 125.509 133.327 118.998 133.327C112.484 133.327 106.979 131.107 106.979 128.479C106.979 128.461 106.98 128.438 106.981 128.42L106.978 128.413H106.21C106.21 128.466 106.209 128.456 106.209 128.474C106.209 130.036 107.582 131.478 110.076 132.53C112.465 133.538 115.632 134.094 118.995 134.094C122.357 134.094 125.525 133.54 127.913 132.532C130.297 131.527 131.663 130.167 131.778 128.685L131.026 128.486Z" fill="#898989"/>
<path d="M119.276 12.0123H118.485V85.784H119.276V12.0123Z" fill="#898989"/>
<path d="M210.719 160.249C213.081 157.339 216.976 155.92 222.602 155.92H237.425C243.787 155.92 248.52 154.305 251.891 150.973C255.991 146.919 258.072 140.168 258.072 130.895V102.751H258.862V130.895C258.862 135.824 258.27 140.095 257.128 143.588C256.068 146.828 254.486 149.504 252.436 151.53C248.914 155.012 244 156.71 237.425 156.71H222.602C217.222 156.71 213.533 158.026 211.327 160.744C209.354 163.174 208.434 166.804 208.434 172.182V221.787H207.644V172.182C207.644 166.618 208.629 162.823 210.719 160.249Z" fill="#898989"/>
<path d="M258.863 12.0123H258.072V57.3819H258.863V12.0123Z" fill="#898989"/>
<path d="M125.7 85.3263C125.7 86.5392 122.652 87.5224 118.892 87.5224C115.132 87.5224 112.084 86.5392 112.084 85.3263C112.084 84.1134 115.132 83.1302 118.892 83.1302C122.652 83.1302 125.7 84.1135 125.7 85.3263Z" fill="#898989"/>
<path d="M252.065 77.9693V94.3302L252.051 95.5545L253.07 97.473L254.873 99.183L257.88 100.142L260.719 99.8503L262.096 99.0579L263.39 97.8901L264.266 96.2219L264.708 95.0124L264.817 94.0114V77.8596L263.514 78.7469L261.923 79.3725L257.589 79.7896L253.772 78.872L252.065 77.9693Z" fill="#98999A"/>
<path d="M264.85 77.5166C264.85 78.7029 262.015 79.6645 258.516 79.6645C255.018 79.6645 252.183 78.7028 252.183 77.5166C252.183 76.3304 255.018 75.3687 258.516 75.3687C262.015 75.3687 264.85 76.3304 264.85 77.5166Z" fill="#FAFAFA"/>
<path d="M258.29 63.887C255.846 63.887 253.544 63.5604 251.807 62.9673C249.951 62.3335 248.929 61.4415 248.929 60.4556C248.929 59.4698 249.951 58.5778 251.807 57.9439C253.544 57.3508 255.846 57.0242 258.29 57.0242C260.733 57.0242 263.035 57.3508 264.772 57.9439C266.628 58.5778 267.65 59.4698 267.65 60.4556C267.65 61.4414 266.628 62.3335 264.772 62.9673C263.035 63.5604 260.733 63.887 258.29 63.887ZM258.29 57.7379C253.194 57.7379 249.642 59.1702 249.642 60.4556C249.642 61.7409 253.194 63.1732 258.29 63.1732C263.385 63.1732 266.937 61.7409 266.937 60.4556C266.937 59.1702 263.385 57.7379 258.29 57.7379Z" fill="#898989"/>
<path d="M266.977 60.4382V94.3317C266.977 98.7811 263.343 102.383 258.894 102.383H257.683C253.234 102.383 249.588 98.781 249.588 94.3317V60.4382H248.903V94.3317C248.903 99.1746 252.84 103.12 257.683 103.12H258.894C263.737 103.12 267.662 99.1746 267.662 94.3317V60.4382H266.977Z" fill="#898989"/>
<path d="M258.406 79.9397C256.682 79.9397 255.058 79.7092 253.833 79.2908C252.523 78.8436 251.802 78.2143 251.802 77.5187C251.802 76.8231 252.523 76.1938 253.833 75.7466C255.058 75.3281 256.682 75.0977 258.406 75.0977C260.13 75.0977 261.754 75.3281 262.98 75.7466C264.289 76.1938 265.011 76.8231 265.011 77.5187C265.011 78.2143 264.289 78.8436 262.98 79.2908C261.754 79.7092 260.13 79.9397 258.406 79.9397ZM258.406 75.6013C254.811 75.6013 252.305 76.6118 252.305 77.5187C252.305 78.4256 254.811 79.4361 258.406 79.4361C262.002 79.4361 264.507 78.4256 264.507 77.5187C264.507 76.6118 262.002 75.6013 258.406 75.6013Z" fill="#898989"/>
<path d="M264.554 77.511V94.1178C264.554 97.257 261.973 99.8006 258.834 99.8006H257.979C254.84 99.8006 252.223 97.257 252.223 94.1178V77.511H251.802V94.1178C251.802 97.5348 254.562 100.328 257.979 100.328H258.834C262.25 100.328 264.975 97.5348 264.975 94.1178V77.511H264.554Z" fill="#898989"/>
<path d="M160.389 214.164L160.641 213.408L161.179 212.988L162.118 212.724H162.923L163.697 213.468L163.807 214.393L163.505 215.029L162.665 215.721L161.305 215.812L160.584 215.218L160.389 214.164Z" fill="#FAFAFA"/>
<path d="M162.664 215.822C161.631 216.166 160.549 215.717 160.251 214.822C159.954 213.927 160.552 212.92 161.585 212.576C162.619 212.233 163.701 212.682 163.998 213.577C164.296 214.472 163.697 215.479 162.664 215.822ZM161.692 212.896C160.862 213.172 160.382 213.981 160.621 214.699C160.859 215.418 161.728 215.778 162.558 215.502C163.387 215.227 163.868 214.418 163.629 213.699C163.39 212.981 162.521 212.621 161.692 212.896Z" fill="#898989"/>
<path d="M223.353 241.302L223.699 240.443L233.642 234.573L234.5 234.491L235.833 236.289L235.34 236.919L225.279 242.945L224.485 242.772L223.353 241.302Z" fill="#FAFAFA"/>
<path d="M235.813 235.706L234.905 234.741C234.708 234.41 234.346 234.204 233.96 234.204C233.762 234.204 233.568 234.258 233.397 234.359L223.745 240.146C223.493 240.296 223.314 240.536 223.242 240.82C223.17 241.105 223.213 241.401 223.363 241.653L224.11 242.68C224.308 243.011 224.67 243.217 225.056 243.217C225.253 243.217 225.448 243.163 225.618 243.062L235.431 237.214C235.683 237.064 235.862 236.824 235.934 236.539C236.006 236.254 235.963 235.958 235.813 235.706ZM235.452 236.417C235.413 236.573 235.315 236.705 235.177 236.787L225.364 242.635C225.27 242.691 225.164 242.72 225.056 242.72C224.841 242.72 224.647 242.61 224.537 242.426L223.79 241.399C223.708 241.261 223.684 241.098 223.723 240.942C223.763 240.786 223.861 240.655 223.999 240.572L233.652 234.786C233.745 234.73 233.852 234.701 233.96 234.701C234.175 234.701 234.369 234.811 234.479 234.995L235.386 235.96C235.468 236.099 235.492 236.261 235.452 236.417Z" fill="#898989"/>
<path d="M145.793 37.4515C157.649 37.4515 167.26 33.8628 167.26 29.4358C167.26 25.0089 157.649 21.4201 145.793 21.4201C133.938 21.4201 124.327 25.0089 124.327 29.4358C124.327 33.8628 133.938 37.4515 145.793 37.4515Z" fill="#FAFAFA"/>
<path d="M161.009 23.4944C156.958 21.9871 151.579 21.1569 145.863 21.1569C140.148 21.1569 134.769 21.9871 130.718 23.4944C126.818 24.9454 124.56 26.8836 124.291 28.9903C124.273 29.1321 124.264 29.2748 124.264 29.4181C124.264 29.4225 124.264 29.4268 124.264 29.4312C124.267 30.1965 124.53 30.9427 125.038 31.6549C125.083 31.7188 125.131 31.7823 125.18 31.8455C125.71 32.5245 126.464 33.1708 127.429 33.7714C128.164 34.2292 129.021 34.6604 129.994 35.059C130.229 35.1552 130.47 35.2495 130.718 35.3418C134.769 36.8492 140.148 37.6793 145.863 37.6793C151.579 37.6793 156.958 36.8492 161.009 35.3418C161.306 35.2311 161.594 35.1175 161.872 35.0013C162.948 34.5521 163.878 34.0627 164.654 33.5412C165.317 33.096 165.868 32.6275 166.301 32.1407C166.406 32.0221 166.505 31.9026 166.596 31.7819C167.168 31.0276 167.463 30.2337 167.463 29.4182C167.463 27.1469 165.171 25.0432 161.009 23.4944ZM166.103 31.249C166.067 31.2987 166.03 31.3483 165.992 31.3977C165.932 31.475 165.868 31.552 165.8 31.6289C165.624 31.8299 165.426 32.0294 165.201 32.2269C164.911 32.4822 164.584 32.7303 164.223 32.9711C163.294 33.5908 162.135 34.1611 160.76 34.6728C156.787 36.1513 151.496 36.9656 145.863 36.9656C140.231 36.9656 134.94 36.1513 130.967 34.6728C129.761 34.224 128.721 33.7302 127.856 33.1975C127.352 32.8868 126.908 32.563 126.526 32.2268C126.197 31.9375 125.92 31.6438 125.696 31.3469C125.689 31.3386 125.684 31.3303 125.678 31.322C125.213 30.6994 124.977 30.0622 124.977 29.4181C124.977 29.2881 124.988 29.1584 125.007 29.029C125.129 28.203 125.637 27.3907 126.526 26.6093C127.563 25.6969 129.057 24.874 130.967 24.1633C134.94 22.6848 140.231 21.8706 145.863 21.8706C151.496 21.8706 156.787 22.6848 160.76 24.1633C162.67 24.874 164.164 25.6969 165.201 26.6093C166.229 27.513 166.75 28.458 166.75 29.4181C166.75 30.037 166.532 30.6496 166.103 31.249Z" fill="#898989"/>
<path d="M161.872 35.0013C160.666 36.0514 159.314 37.245 157.964 38.4648C155.589 40.6127 153.688 42.4215 152.315 43.8408C149.952 46.284 149.615 47.086 149.586 47.5117C149.447 49.53 149.455 61.7155 149.459 64.8307C149.46 64.92 149.46 65.5997 149.46 66.062C149.141 66.503 147.81 67.0142 145.869 67.0142C143.898 67.0142 142.557 66.4878 142.264 66.0425C142.264 65.6354 142.264 64.9333 142.265 64.8389C142.269 61.7367 142.278 49.5317 142.138 47.5117C142.109 47.0863 141.772 46.283 139.41 43.8276C138.037 42.4009 136.136 40.5818 133.761 38.421C132.463 37.2411 131.163 36.0855 129.993 35.0591C129.021 34.6604 128.163 34.2292 127.428 33.7714C128.981 35.1132 131.136 36.9986 133.282 38.9502C135.645 41.1002 137.534 42.9078 138.896 44.323C141.139 46.6543 141.413 47.364 141.426 47.5609C141.581 49.8041 141.55 65.3637 141.55 65.5207L141.549 65.8657H141.554C141.564 66.2872 141.817 66.787 142.934 67.1991C143.723 67.49 144.765 67.6566 145.869 67.6566C146.972 67.6566 148.014 67.4995 148.803 67.2086C149.944 66.7877 150.184 66.2464 150.184 65.8652C150.184 65.8245 150.181 65.7827 150.175 65.7388L150.174 65.533C150.174 65.376 150.143 49.804 150.298 47.5607C150.311 47.364 150.585 46.6561 152.828 44.3376C154.189 42.9299 156.078 41.1326 158.442 38.9956C160.758 36.9012 163.085 34.8845 164.654 33.5413C163.877 34.0626 162.947 34.552 161.872 35.0013Z" fill="#898989"/>
<path d="M146.097 12.0123H145.359V32.8792H146.097V12.0123Z" fill="#898989"/>
<path d="M198.516 144.439C196.154 141.529 192.267 140.112 186.641 140.112H166.766C160.404 140.112 155.66 138.495 152.289 135.163C148.189 131.109 146.097 124.356 146.097 115.083V67.3937H145.359V115.083C145.359 120.013 145.936 124.283 147.079 127.777C148.138 131.017 149.714 133.694 151.763 135.72C155.285 139.202 160.192 140.902 166.766 140.902H186.641C192.02 140.902 195.702 142.216 197.908 144.934C199.881 147.364 200.794 150.993 200.794 156.37V224.317H201.584V156.37C201.584 150.807 200.606 147.013 198.516 144.439Z" fill="#898989"/>
<path d="M145.848 34.9809C149.608 34.9809 152.656 33.9977 152.656 32.7848C152.656 31.572 149.608 30.5887 145.848 30.5887C142.088 30.5887 139.04 31.572 139.04 32.7848C139.04 33.9977 142.088 34.9809 145.848 34.9809Z" fill="#898989"/>
<path d="M148.295 75.0675C148.571 73.633 147.632 72.2461 146.198 71.9698C144.763 71.6936 143.376 72.6326 143.1 74.0671C142.824 75.5017 143.763 76.8886 145.197 77.1649C146.632 77.4411 148.019 76.5021 148.295 75.0675Z" fill="#898989"/>
<path d="M147.75 81.861C147.75 82.995 146.83 83.9144 145.696 83.9144C144.562 83.9144 143.643 82.995 143.643 81.861C143.643 80.7268 144.562 79.8075 145.696 79.8075C146.83 79.8075 147.75 80.7268 147.75 81.861Z" fill="#898989"/>
<path d="M147.212 87.8835C147.212 88.7215 146.533 89.4008 145.695 89.4008C144.857 89.4008 144.178 88.7215 144.178 87.8835C144.178 87.0455 144.857 86.3661 145.695 86.3661C146.533 86.3661 147.212 87.0455 147.212 87.8835Z" fill="#898989"/>
<path d="M205.279 64.0002C203.134 64.0002 201.112 63.7992 199.586 63.4343C197.789 63.0045 196.915 62.4192 196.915 61.6451C196.915 60.8709 197.789 60.2857 199.586 59.8559C201.112 59.4909 203.134 59.2899 205.279 59.2899C207.424 59.2899 209.445 59.4909 210.971 59.8559C212.769 60.2857 213.643 60.8709 213.643 61.6451C213.643 62.4192 212.769 63.0045 210.971 63.4343C209.445 63.7992 207.424 64.0002 205.279 64.0002ZM205.279 60.2233C203.241 60.2233 201.32 60.4096 199.87 60.7478C198.231 61.1303 197.858 61.5532 197.848 61.6455C197.858 61.737 198.231 62.1599 199.87 62.5424C201.32 62.8806 203.241 63.0669 205.279 63.0669C207.317 63.0669 209.238 62.8806 210.687 62.5424C212.326 62.1599 212.699 61.737 212.709 61.6447C212.699 61.5532 212.326 61.1303 210.687 60.7478C209.238 60.4096 207.317 60.2233 205.279 60.2233Z" fill="#898989"/>
<path d="M197.843 61.6501H196.895V103.963H197.843V61.6501Z" fill="#898989"/>
<path d="M213.652 61.6501H212.756V103.963H213.652V61.6501Z" fill="#898989"/>
<path d="M212.709 103.919C212.699 104.012 212.326 104.435 210.687 104.817C209.238 105.155 207.317 105.342 205.279 105.342C203.241 105.342 201.32 105.168 199.87 104.83C198.32 104.468 197.903 104.069 197.854 103.963H197.841L197.323 103.595L197.053 103.424C196.961 103.582 196.915 103.746 196.915 103.923C196.915 104.697 197.789 105.281 199.586 105.711C201.112 106.076 203.134 106.276 205.279 106.276C207.424 106.276 209.445 106.074 210.971 105.709C212.769 105.28 213.643 104.694 213.643 103.92C213.643 103.741 213.595 103.572 213.501 103.413L212.709 103.919Z" fill="#898989"/>
<path d="M205.378 12.0123H204.43V61.5974H205.378V12.0123Z" fill="#898989"/>
<path d="M205.378 105.702H204.43V220.207H205.378V105.702Z" fill="#898989"/>
<path d="M207.614 61.4713C207.614 61.7593 206.409 61.9928 204.924 61.9928C203.438 61.9928 202.233 61.7593 202.233 61.4713C202.233 61.1832 203.438 60.9497 204.924 60.9497C206.409 60.9497 207.614 61.1832 207.614 61.4713Z" fill="#898989"/>
<path d="M205.376 88.1922C203.699 88.1922 202.118 88.0351 200.925 87.7498C199.52 87.4138 198.837 86.9562 198.837 86.3511C198.837 85.7459 199.52 85.2883 200.925 84.9523C202.118 84.667 203.699 84.5099 205.376 84.5099C207.052 84.5099 208.633 84.667 209.826 84.9523C211.231 85.2883 211.914 85.7459 211.914 86.3511C211.914 86.9562 211.231 87.4138 209.826 87.7498C208.633 88.0351 207.052 88.1922 205.376 88.1922ZM205.376 85.2395C203.782 85.2395 202.28 85.3851 201.147 85.6496C199.866 85.9485 199.574 86.2792 199.567 86.3514C199.574 86.4229 199.866 86.7535 201.147 87.0525C202.28 87.3169 203.782 87.4625 205.376 87.4625C206.969 87.4625 208.47 87.3169 209.604 87.0525C210.885 86.7535 211.177 86.4229 211.184 86.3507C211.177 86.2792 210.885 85.9485 209.604 85.6496C208.47 85.3851 206.969 85.2395 205.376 85.2395Z" fill="#898989"/>
<path d="M199.529 86.4163H198.844V102.751H199.529V86.4163Z" fill="#898989"/>
<path d="M211.913 86.2582H211.175V102.541H211.913V86.2582Z" fill="#898989"/>
<path d="M211.182 102.541H211.178C211.131 102.646 210.797 102.958 209.604 103.236C208.47 103.501 206.969 103.652 205.376 103.652C203.782 103.652 202.28 103.51 201.147 103.246C199.866 102.947 199.574 102.618 199.567 102.546L199.08 102.385L198.849 102.413C198.841 102.457 198.837 102.502 198.837 102.547C198.837 103.152 199.52 103.61 200.925 103.946C202.118 104.231 203.699 104.388 205.376 104.388C207.052 104.388 208.633 104.231 209.826 103.946C211.231 103.61 211.914 103.152 211.914 102.547C211.914 102.48 211.905 102.402 211.888 102.339L211.182 102.541Z" fill="#898989"/>
<path d="M199.69 221.791C199.69 222.051 199.083 222.261 198.335 222.261C197.586 222.261 196.979 222.051 196.979 221.791C196.979 221.531 197.586 221.321 198.335 221.321C199.083 221.321 199.69 221.531 199.69 221.791Z" fill="#898989"/>
<path d="M206.224 220.254C206.224 220.513 205.617 220.724 204.869 220.724C204.12 220.724 203.514 220.513 203.514 220.254C203.514 219.994 204.12 219.784 204.869 219.784C205.617 219.784 206.224 219.994 206.224 220.254Z" fill="#898989"/>
<path d="M202.545 224.316C202.545 224.576 201.939 224.787 201.19 224.787C200.442 224.787 199.835 224.576 199.835 224.316C199.835 224.057 200.442 223.846 201.19 223.846C201.939 223.846 202.545 224.057 202.545 224.316Z" fill="#898989"/>
<path d="M209.353 221.791C209.353 222.051 208.746 222.261 207.998 222.261C207.249 222.261 206.643 222.051 206.643 221.791C206.643 221.531 207.249 221.321 207.998 221.321C208.746 221.321 209.353 221.531 209.353 221.791Z" fill="#898989"/>
<path d="M233.308 39.5379C240.221 39.5379 245.825 37.2027 245.825 34.3222C245.825 31.4416 240.221 29.1064 233.308 29.1064C226.394 29.1064 220.79 31.4416 220.79 34.3222C220.79 37.2027 226.394 39.5379 233.308 39.5379Z" fill="#E8E8E8"/>
<path d="M221.046 35.5483L220.863 42.5026L222.547 44.9915L228.55 47.334L235.028 47.4804L239.53 46.7118L243.336 45.1379L245.206 43.5023L245.569 40.9653L245.459 35.2921L244.069 36.7562L241.653 38.1836L238.505 39.1353L234.186 39.6843L226.902 38.8791L224.34 38.0006L221.046 35.5483Z" fill="#98999A"/>
<path d="M233.247 39.9383C229.884 39.9383 226.717 39.3833 224.328 38.3757C221.834 37.3236 220.461 35.884 220.461 34.3221C220.461 32.7602 221.834 31.3207 224.328 30.2686C226.717 29.2609 229.884 28.706 233.247 28.706C236.609 28.706 239.776 29.2609 242.165 30.2686C244.659 31.3207 246.032 32.7602 246.032 34.3221C246.032 35.884 244.659 37.3236 242.165 38.3757C239.777 39.3833 236.609 39.9383 233.247 39.9383ZM233.247 29.4747C226.733 29.4747 221.23 31.6946 221.23 34.3222C221.23 36.9498 226.733 39.1697 233.247 39.1697C239.761 39.1697 245.264 36.9498 245.264 34.3222C245.264 31.6945 239.761 29.4747 233.247 29.4747Z" fill="#898989"/>
<path d="M221.239 34.1965H220.448V42.206H220.462C220.476 41.5737 220.712 40.9222 221.239 40.3241V34.1965Z" fill="#898989"/>
<path d="M221.239 40.324C220.712 40.9222 220.476 41.5737 220.462 42.206H221.239V40.324Z" fill="#898989"/>
<path d="M246.024 42.4897L246.024 42.4807C246.024 42.4836 246.024 42.4866 246.023 42.4895L246.024 42.4897Z" fill="#898989"/>
<path d="M246.045 34.1965H245.277L245.268 40.3211C245.724 40.8785 245.982 41.4695 246.025 42.0854L246.045 34.1965Z" fill="#898989"/>
<path d="M246.024 42.0972L246.023 42.4806C246.028 42.4149 246.032 42.3491 246.032 42.2829C246.032 42.2208 246.029 42.1589 246.024 42.0972Z" fill="#898989"/>
<path d="M245.268 40.329L245.265 42.2895L246.023 42.4886C246.023 42.486 246.024 42.4833 246.024 42.4806L246.025 42.0972C245.982 41.4813 245.724 40.8864 245.268 40.329Z" fill="#898989"/>
<path d="M245.268 42.2895V42.2854L245.265 42.2859C245.261 44.9122 239.759 47.1305 233.247 47.1305C226.734 47.1305 221.23 44.9106 221.23 42.283C221.23 42.2649 221.231 42.2359 221.232 42.218L221.23 42.2061H220.462C220.462 42.2587 220.461 42.2536 220.461 42.272C220.461 43.8339 221.834 45.279 224.328 46.331C226.717 47.3386 229.884 47.8963 233.247 47.8963C236.609 47.8963 239.777 47.3427 242.165 46.3351C244.549 45.3294 245.909 43.9702 246.025 42.488L245.268 42.2895Z" fill="#898989"/>
<path d="M233.78 12.0123H233.042V34.7762H233.78V12.0123Z" fill="#898989"/>
<path d="M236.587 34.6769C236.587 35.0766 235.158 35.4006 233.396 35.4006C231.634 35.4006 230.205 35.0766 230.205 34.6769C230.205 34.2772 231.634 33.9532 233.396 33.9532C235.158 33.9532 236.587 34.2772 236.587 34.6769Z" fill="#898989"/>
<path d="M173.235 17.4308V26.7031L173.224 27.397L173.8 28.4843L174.82 29.4534L176.524 29.997L178.133 29.8316L178.913 29.3825L179.646 28.7207L180.143 27.7752L180.393 27.0897L180.454 26.5224V17.3686L179.716 17.8715L178.815 18.226L176.359 18.4624L174.199 17.9424L173.235 17.4308Z" fill="#98999A"/>
<path d="M180.474 17.1742C180.474 17.8465 178.867 18.3915 176.885 18.3915C174.902 18.3915 173.295 17.8465 173.295 17.1742C173.295 16.5019 174.902 15.9569 176.885 15.9569C178.867 15.9569 180.474 16.5019 180.474 17.1742Z" fill="#FAFAFA"/>
<path d="M176.822 18.5475C175.845 18.5475 174.925 18.4169 174.23 18.1797C173.488 17.9263 173.079 17.5696 173.079 17.1754C173.079 16.7812 173.488 16.4245 174.23 16.171C174.925 15.9339 175.845 15.8033 176.822 15.8033C177.799 15.8033 178.72 15.9339 179.414 16.171C180.156 16.4245 180.565 16.7812 180.565 17.1754C180.565 17.5695 180.156 17.9262 179.414 18.1797C178.72 18.4169 177.799 18.5475 176.822 18.5475ZM176.822 16.0887C174.784 16.0887 173.364 16.6614 173.364 17.1754C173.364 17.6894 174.784 18.2621 176.822 18.2621C178.86 18.2621 180.28 17.6894 180.28 17.1754C180.28 16.6614 178.86 16.0887 176.822 16.0887Z" fill="#898989"/>
<path d="M180.349 17.1764V26.5828C180.349 28.3619 178.843 29.823 177.064 29.823H176.58C174.801 29.823 173.341 28.3619 173.341 26.5828V17.1764H173.077V26.5828C173.077 28.5193 174.643 30.0864 176.58 30.0864H177.064C179.001 30.0864 180.56 28.5193 180.56 26.5828V17.1764H180.349Z" fill="#898989"/>
<path d="M177.24 12.0123H176.502V17.2817H177.24V12.0123Z" fill="#898989"/>
<path d="M178.229 17.2987C178.229 17.4852 177.643 17.6363 176.921 17.6363C176.199 17.6363 175.613 17.4852 175.613 17.2987C175.613 17.1124 176.199 16.9612 176.921 16.9612C177.643 16.9612 178.229 17.1124 178.229 17.2987Z" fill="#898989"/>
</svg>
