<svg width="1062" height="271" viewBox="0 0 1062 271" fill="none" xmlns="http://www.w3.org/2000/svg">
<path opacity="0.11" d="M62.1077 323.654L37.9555 295.833C35.6551 293.183 35.8291 290.708 38.4789 288.408L66.2998 264.255C68.9496 261.955 71.4246 262.131 73.725 264.78L97.8772 292.601C100.178 295.251 100.004 297.726 97.3538 300.027L69.5329 324.179C66.8831 326.479 64.4081 326.304 62.1077 323.654Z" fill="black" fill-opacity="0.08"/>
<path opacity="0.11" d="M27.6045 283.91L3.45157 256.089C1.15186 253.44 1.32586 250.965 3.97565 248.664L31.7966 224.512C34.4464 222.212 36.9214 222.387 39.2211 225.036L63.374 252.858C65.6744 255.508 65.4997 257.982 62.8499 260.282L35.029 284.435C32.3792 286.735 29.9048 286.56 27.6045 283.91Z" fill="black" fill-opacity="0.08"/>
<path opacity="0.11" d="M136.354 328.897L112.202 301.076C109.902 298.426 110.076 295.951 112.726 293.651L140.547 269.498C143.196 267.198 145.672 267.373 147.973 270.023L172.125 297.843C174.425 300.493 174.25 302.968 171.6 305.269L143.779 329.421C141.13 331.721 138.655 331.547 136.354 328.897Z" fill="black" fill-opacity="0.08"/>
<path opacity="0.11" d="M101.85 289.152L77.6977 261.331C75.3973 258.681 75.5713 256.206 78.2211 253.906L106.042 229.754C108.692 227.453 111.168 227.628 113.468 230.278L137.62 258.099C139.921 260.748 139.747 263.224 137.096 265.525L109.275 289.677C106.626 291.976 104.15 291.802 101.85 289.152Z" fill="black" fill-opacity="0.08"/>
<path opacity="0.11" d="M67.3467 249.407L43.1938 221.585C40.894 218.936 41.0681 216.461 43.7178 214.16L71.5387 190.008C74.1885 187.708 76.6643 187.883 78.964 190.532L103.117 218.353C105.417 221.003 105.243 223.477 102.592 225.778L74.7712 249.931C72.1221 252.23 69.647 252.056 67.3467 249.407Z" fill="black" fill-opacity="0.08"/>
<path opacity="0.11" d="M176.101 294.393L151.948 266.572C149.648 263.922 149.822 261.447 152.472 259.147L180.293 234.995C182.942 232.694 185.418 232.87 187.718 235.519L211.87 263.34C214.17 265.99 213.996 268.464 211.346 270.765L183.525 294.917C180.875 297.217 178.401 297.043 176.101 294.393Z" fill="black" fill-opacity="0.08"/>
<path opacity="0.11" d="M141.596 254.648L117.444 226.827C115.143 224.177 115.317 221.702 117.967 219.402L145.788 195.25C148.438 192.949 150.913 193.125 153.213 195.774L177.365 223.595C179.666 226.245 179.492 228.72 176.842 231.021L149.021 255.173C146.371 257.473 143.896 257.298 141.596 254.648Z" fill="black" fill-opacity="0.08"/>
<path opacity="0.11" d="M107.093 214.905L82.9399 187.083C80.6401 184.434 80.8141 181.959 83.4639 179.658L111.285 155.506C113.935 153.206 116.41 153.381 118.709 156.03L142.862 183.852C145.163 186.502 144.988 188.976 142.338 191.276L114.517 215.429C111.867 217.729 109.393 217.554 107.093 214.905Z" fill="black" fill-opacity="0.08"/>
<path opacity="0.11" d="M250.347 299.633L226.194 271.811C223.893 269.162 224.068 266.687 226.718 264.387L254.54 240.234C257.189 237.934 259.664 238.108 261.964 240.758L286.117 268.58C288.417 271.23 288.243 273.704 285.593 276.004L257.771 300.157C255.121 302.458 252.647 302.283 250.347 299.633Z" fill="black" fill-opacity="0.08"/>
<path opacity="0.11" d="M215.843 259.889L191.691 232.068C189.39 229.418 189.564 226.943 192.214 224.643L220.036 200.49C222.685 198.19 225.16 198.365 227.461 201.015L251.613 228.836C253.913 231.485 253.739 233.96 251.089 236.26L223.267 260.413C220.617 262.713 218.143 262.539 215.843 259.889Z" fill="black" fill-opacity="0.08"/>
<path opacity="0.11" d="M181.338 220.144L157.186 192.323C154.886 189.673 155.06 187.198 157.709 184.898L185.531 160.745C188.181 158.445 190.656 158.62 192.956 161.27L217.108 189.091C219.409 191.741 219.235 194.216 216.585 196.516L188.763 220.669C186.114 222.969 183.639 222.794 181.338 220.144Z" fill="black" fill-opacity="0.08"/>
<path opacity="0.11" d="M146.835 180.401L122.682 152.579C120.382 149.93 120.556 147.455 123.206 145.155L151.028 121.002C153.678 118.701 156.153 118.877 158.452 121.526L182.605 149.347C184.906 151.997 184.731 154.472 182.081 156.772L154.259 180.925C151.61 183.225 149.135 183.051 146.835 180.401Z" fill="black" fill-opacity="0.08"/>
<path opacity="0.11" d="M324.596 304.875L300.444 277.054C298.143 274.404 298.318 271.93 300.968 269.629L328.789 245.477C331.438 243.177 333.913 243.351 336.213 246.001L360.366 273.822C362.666 276.472 362.492 278.947 359.842 281.247L332.021 305.399C329.371 307.699 326.896 307.524 324.596 304.875Z" fill="black" fill-opacity="0.08"/>
<path opacity="0.11" d="M290.093 265.131L265.94 237.309C263.639 234.66 263.814 232.185 266.464 229.885L294.285 205.733C296.934 203.433 299.409 203.607 301.709 206.257L325.862 234.079C328.163 236.728 327.988 239.203 325.338 241.503L297.517 265.655C294.867 267.956 292.393 267.781 290.093 265.131Z" fill="black" fill-opacity="0.08"/>
<path opacity="0.11" d="M255.589 225.385L231.437 197.564C229.136 194.914 229.31 192.439 231.96 190.139L259.781 165.987C262.43 163.687 264.906 163.862 267.206 166.512L291.358 194.332C293.659 196.982 293.484 199.457 290.834 201.757L263.013 225.909C260.364 228.21 257.889 228.035 255.589 225.385Z" fill="black" fill-opacity="0.08"/>
<path opacity="0.11" d="M221.084 185.642L196.932 157.821C194.632 155.171 194.806 152.696 197.455 150.396L225.276 126.244C227.925 123.944 230.401 124.119 232.702 126.769L256.854 154.589C259.154 157.239 258.98 159.714 256.33 162.015L228.509 186.167C225.86 188.467 223.385 188.292 221.084 185.642Z" fill="black" fill-opacity="0.08"/>
<path opacity="0.11" d="M186.581 145.897L162.428 118.075C160.128 115.426 160.302 112.951 162.952 110.651L190.773 86.4984C193.422 84.1987 195.898 84.3734 198.198 87.0225L222.351 114.844C224.651 117.494 224.476 119.968 221.826 122.269L194.006 146.421C191.356 148.721 188.881 148.547 186.581 145.897Z" fill="black" fill-opacity="0.08"/>
<path opacity="0.11" d="M398.842 310.117L374.69 282.296C372.389 279.646 372.564 277.17 375.214 274.87L403.035 250.718C405.685 248.417 408.16 248.593 410.46 251.243L434.612 279.063C436.913 281.713 436.739 284.188 434.089 286.489L406.268 310.641C403.618 312.941 401.142 312.766 398.842 310.117Z" fill="black" fill-opacity="0.08"/>
<path opacity="0.11" d="M364.338 270.371L340.186 242.55C337.886 239.9 338.061 237.425 340.711 235.125L368.532 210.972C371.182 208.672 373.656 208.847 375.956 211.496L400.108 239.317C402.409 241.967 402.235 244.442 399.585 246.743L371.764 270.895C369.114 273.194 366.638 273.02 364.338 270.371Z" fill="black" fill-opacity="0.08"/>
<path opacity="0.11" d="M329.835 230.627L305.682 202.806C303.382 200.156 303.557 197.681 306.207 195.38L334.028 171.228C336.678 168.928 339.152 169.102 341.452 171.752L365.605 199.574C367.906 202.224 367.731 204.698 365.081 206.998L337.26 231.151C334.61 233.451 332.135 233.277 329.835 230.627Z" fill="black" fill-opacity="0.08"/>
<path opacity="0.11" d="M295.331 190.883L271.179 163.062C268.878 160.412 269.053 157.937 271.703 155.636L299.524 131.484C302.174 129.184 304.649 129.359 306.949 132.009L331.101 159.83C333.402 162.48 333.227 164.954 330.577 167.254L302.756 191.407C300.107 193.707 297.631 193.533 295.331 190.883Z" fill="black" fill-opacity="0.08"/>
<path opacity="0.11" d="M260.826 151.138L236.674 123.317C234.374 120.668 234.549 118.192 237.198 115.891L265.019 91.7392C267.669 89.4388 270.144 89.6142 272.444 92.264L296.597 120.085C298.897 122.735 298.723 125.21 296.073 127.51L268.252 151.662C265.603 153.963 263.127 153.788 260.826 151.138Z" fill="black" fill-opacity="0.08"/>
<path opacity="0.11" d="M226.323 111.395L202.17 83.5732C199.871 80.9242 200.045 78.4484 202.695 76.148L230.516 51.9958C233.166 49.6954 235.641 49.8708 237.941 52.5199L262.093 80.3415C264.394 82.9913 264.219 85.4657 261.569 87.7661L233.749 111.918C231.099 114.219 228.624 114.045 226.323 111.395Z" fill="black" fill-opacity="0.08"/>
<path opacity="0.11" d="M473.089 315.356L448.936 287.534C446.636 284.885 446.81 282.41 449.46 280.11L477.281 255.957C479.931 253.657 482.406 253.832 484.705 256.481L508.858 284.303C511.159 286.953 510.984 289.427 508.334 291.728L480.513 315.88C477.864 318.18 475.389 318.006 473.089 315.356Z" fill="black" fill-opacity="0.08"/>
<path opacity="0.11" d="M438.584 275.613L414.432 247.792C412.132 245.142 412.306 242.667 414.955 240.367L442.776 216.214C445.426 213.914 447.901 214.089 450.202 216.739L474.354 244.56C476.654 247.21 476.48 249.685 473.83 251.985L446.009 276.138C443.359 278.437 440.884 278.262 438.584 275.613Z" fill="black" fill-opacity="0.08"/>
<path opacity="0.11" d="M404.084 235.869L379.932 208.048C377.632 205.398 377.806 202.924 380.456 200.623L408.277 176.471C410.927 174.171 413.401 174.345 415.702 176.995L439.854 204.816C442.154 207.466 441.98 209.941 439.33 212.241L411.509 236.394C408.859 238.693 406.384 238.518 404.084 235.869Z" fill="black" fill-opacity="0.08"/>
<path opacity="0.11" d="M369.581 196.123L345.428 168.302C343.128 165.652 343.302 163.178 345.952 160.877L373.773 136.725C376.423 134.425 378.897 134.599 381.198 137.249L405.351 165.071C407.651 167.721 407.476 170.195 404.826 172.495L377.006 196.647C374.356 198.948 371.881 198.773 369.581 196.123Z" fill="black" fill-opacity="0.08"/>
<path opacity="0.11" d="M335.077 156.379L310.925 128.558C308.625 125.909 308.799 123.433 311.448 121.133L339.269 96.9808C341.919 94.6804 344.394 94.8559 346.694 97.5057L370.847 125.327C373.147 127.976 372.972 130.451 370.323 132.751L342.502 156.903C339.852 159.204 337.377 159.029 335.077 156.379Z" fill="black" fill-opacity="0.08"/>
<path opacity="0.11" d="M300.573 116.634L276.42 88.8134C274.12 86.1636 274.294 83.6885 276.944 81.3881L304.765 57.2359C307.414 54.9355 309.889 55.1109 312.19 57.7607L336.342 85.5816C338.642 88.2314 338.468 90.7066 335.819 93.0069L307.998 117.159C305.348 119.46 302.873 119.284 300.573 116.634Z" fill="black" fill-opacity="0.08"/>
<path opacity="0.11" d="M266.069 76.891L241.916 49.0693C239.617 46.4202 239.791 43.9451 242.44 41.6447L270.261 17.4925C272.911 15.1921 275.386 15.3676 277.686 18.0166L301.839 45.8383C304.139 48.4881 303.965 50.9624 301.315 53.2628L273.494 77.415C270.844 79.7154 268.37 79.5407 266.069 76.891Z" fill="black" fill-opacity="0.08"/>
<path opacity="0.11" d="M547.339 320.598L523.187 292.777C520.886 290.127 521.06 287.652 523.71 285.352L551.531 261.2C554.181 258.899 556.656 259.075 558.956 261.724L583.108 289.545C585.409 292.195 585.234 294.67 582.584 296.97L554.763 321.122C552.114 323.422 549.639 323.248 547.339 320.598Z" fill="black" fill-opacity="0.08"/>
<path opacity="0.11" d="M512.835 280.852L488.682 253.03C486.382 250.381 486.556 247.906 489.206 245.606L517.027 221.453C519.677 219.153 522.152 219.329 524.452 221.978L548.604 249.799C550.905 252.449 550.73 254.923 548.08 257.224L520.259 281.376C517.61 283.676 515.135 283.502 512.835 280.852Z" fill="black" fill-opacity="0.08"/>
<path opacity="0.11" d="M478.33 241.109L454.178 213.288C451.878 210.638 452.052 208.163 454.702 205.863L482.522 181.711C485.172 179.41 487.647 179.586 489.948 182.235L514.1 210.056C516.4 212.706 516.226 215.181 513.576 217.482L485.756 241.634C483.105 243.933 480.63 243.758 478.33 241.109Z" fill="black" fill-opacity="0.08"/>
<path opacity="0.11" d="M443.826 201.365L419.674 173.544C417.374 170.894 417.549 168.42 420.198 166.119L448.019 141.967C450.669 139.667 453.143 139.841 455.444 142.491L479.596 170.312C481.896 172.962 481.722 175.437 479.073 177.737L451.252 201.89C448.601 204.189 446.126 204.014 443.826 201.365Z" fill="black" fill-opacity="0.08"/>
<path opacity="0.11" d="M409.323 161.621L385.17 133.8C382.87 131.15 383.045 128.676 385.694 126.375L413.515 102.223C416.165 99.9226 418.639 100.097 420.94 102.747L445.093 130.569C447.393 133.219 447.218 135.693 444.569 137.993L416.748 162.146C414.098 164.446 411.624 164.271 409.323 161.621Z" fill="black" fill-opacity="0.08"/>
<path opacity="0.11" d="M374.819 121.875L350.667 94.0545C348.367 91.4047 348.541 88.9295 351.19 86.6292L379.011 62.4769C381.661 60.1766 384.136 60.352 386.437 63.0018L410.589 90.8227C412.889 93.4725 412.715 95.9469 410.065 98.2472L382.244 122.399C379.594 124.7 377.12 124.525 374.819 121.875Z" fill="black" fill-opacity="0.08"/>
<path opacity="0.11" d="M340.319 82.1304L316.166 54.3095C313.866 51.6597 314.04 49.1846 316.69 46.8842L344.511 22.732C347.161 20.4317 349.636 20.6071 351.936 23.2569L376.088 51.0777C378.389 53.7275 378.215 56.2027 375.565 58.5031L347.744 82.6553C345.094 84.9556 342.619 84.7802 340.319 82.1304Z" fill="black" fill-opacity="0.08"/>
<path opacity="0.11" d="M305.815 42.3871L281.663 14.5654C279.363 11.9163 279.537 9.44121 282.187 7.14084L310.007 -17.0114C312.657 -19.3117 315.132 -19.1363 317.432 -16.4873L341.585 11.3344C343.885 13.9842 343.711 16.4586 341.061 18.7589L313.24 42.9111C310.59 45.2115 308.116 45.0368 305.815 42.3871Z" fill="black" fill-opacity="0.08"/>
<path opacity="0.11" d="M621.584 325.838L597.432 298.017C595.132 295.367 595.306 292.891 597.956 290.591L625.777 266.438C628.428 264.137 630.903 264.313 633.203 266.963L657.355 294.784C659.656 297.434 659.482 299.908 656.831 302.209L629.01 326.362C626.36 328.662 623.885 328.488 621.584 325.838Z" fill="black" fill-opacity="0.08"/>
<path opacity="0.11" d="M587.081 286.094L562.929 258.273C560.628 255.623 560.803 253.148 563.453 250.847L591.274 226.695C593.924 224.394 596.399 224.569 598.7 227.219L622.852 255.04C625.152 257.69 624.978 260.164 622.327 262.465L594.506 286.618C591.857 288.918 589.381 288.744 587.081 286.094Z" fill="black" fill-opacity="0.08"/>
<path opacity="0.11" d="M552.577 246.35L528.424 218.528C526.125 215.879 526.299 213.403 528.949 211.103L556.77 186.951C559.421 184.65 561.896 184.825 564.195 187.474L588.348 215.296C590.649 217.946 590.474 220.42 587.823 222.721L560.002 246.873C557.353 249.174 554.877 249 552.577 246.35Z" fill="black" fill-opacity="0.08"/>
<path opacity="0.11" d="M518.073 206.607L493.92 178.786C491.62 176.136 491.795 173.661 494.445 171.36L522.265 147.208C524.916 144.907 527.391 145.082 529.691 147.732L553.844 175.553C556.144 178.203 555.97 180.678 553.319 182.979L525.499 207.131C522.848 209.431 520.372 209.256 518.073 206.607Z" fill="black" fill-opacity="0.08"/>
<path opacity="0.11" d="M483.573 166.861L459.42 139.04C457.12 136.39 457.295 133.915 459.945 131.615L487.766 107.463C490.417 105.162 492.891 105.336 495.191 107.986L519.344 135.807C521.644 138.457 521.47 140.932 518.819 143.233L490.999 167.385C488.348 169.685 485.872 169.51 483.573 166.861Z" fill="black" fill-opacity="0.08"/>
<path opacity="0.11" d="M449.069 127.118L424.916 99.2958C422.616 96.6461 422.791 94.171 425.441 91.8706L453.262 67.7184C455.913 65.4174 458.387 65.5921 460.687 68.2419L484.84 96.0635C487.141 98.7133 486.966 101.188 484.316 103.489L456.495 127.641C453.845 129.941 451.37 129.767 449.069 127.118Z" fill="black" fill-opacity="0.08"/>
<path opacity="0.11" d="M414.565 87.3734L390.413 59.5525C388.113 56.9027 388.288 54.4269 390.937 52.1265L418.758 27.9743C421.409 25.6733 423.884 25.8487 426.184 28.4985L450.336 56.3194C452.637 58.9692 452.462 61.4435 449.812 63.7446L421.991 87.8968C419.341 90.1972 416.866 90.0232 414.565 87.3734Z" fill="black" fill-opacity="0.08"/>
<path opacity="0.11" d="M380.061 47.6285L355.909 19.8076C353.608 17.1578 353.783 14.682 356.433 12.3816L384.254 -11.7706C386.904 -14.0716 389.379 -13.8962 391.68 -11.2464L415.832 16.5745C418.132 19.2243 417.958 21.6994 415.308 24.0004L387.487 48.1527C384.837 50.453 382.361 50.2782 380.061 47.6285Z" fill="black" fill-opacity="0.08"/>
<path opacity="0.11" d="M345.558 7.8851L321.405 -19.9366C319.105 -22.5856 319.28 -25.0614 321.93 -27.3618L349.75 -51.514C352.401 -53.815 354.876 -53.6396 357.176 -50.9906L381.329 -23.1689C383.629 -20.5191 383.454 -18.0447 380.804 -15.7437L352.983 8.40852C350.333 10.7089 347.858 10.5349 345.558 7.8851Z" fill="black" fill-opacity="0.08"/>
<path opacity="0.11" d="M695.831 331.078L671.679 303.258C669.378 300.608 669.553 298.133 672.203 295.833L700.024 271.681C702.674 269.38 705.148 269.555 707.448 272.205L731.601 300.026C733.901 302.676 733.726 305.15 731.076 307.45L703.256 331.603C700.606 333.903 698.131 333.728 695.831 331.078Z" fill="black" fill-opacity="0.08"/>
<path opacity="0.11" d="M661.33 291.336L637.178 263.515C634.878 260.865 635.052 258.39 637.702 256.089L665.522 231.937C668.172 229.637 670.647 229.812 672.948 232.462L697.1 260.283C699.401 262.933 699.226 265.408 696.576 267.708L668.756 291.86C666.106 294.161 663.631 293.986 661.33 291.336Z" fill="black" fill-opacity="0.08"/>
<path opacity="0.11" d="M626.827 251.59L602.675 223.769C600.374 221.119 600.549 218.644 603.198 216.344L631.019 192.192C633.669 189.891 636.144 190.067 638.444 192.717L662.597 220.537C664.897 223.187 664.722 225.662 662.073 227.962L634.252 252.114C631.602 254.415 629.127 254.24 626.827 251.59Z" fill="black" fill-opacity="0.08"/>
<path opacity="0.11" d="M592.323 211.846L568.17 184.024C565.871 181.375 566.045 178.9 568.694 176.6L596.515 152.448C599.165 150.147 601.64 150.323 603.94 152.972L628.093 180.793C630.393 183.443 630.218 185.918 627.569 188.218L599.748 212.37C597.098 214.671 594.624 214.496 592.323 211.846Z" fill="black" fill-opacity="0.08"/>
<path opacity="0.11" d="M557.819 172.103L533.666 144.282C531.366 141.632 531.54 139.157 534.19 136.857L562.011 112.705C564.661 110.404 567.136 110.58 569.436 113.23L593.588 141.05C595.889 143.7 595.715 146.175 593.065 148.476L565.244 172.628C562.593 174.928 560.118 174.752 557.819 172.103Z" fill="black" fill-opacity="0.08"/>
<path opacity="0.11" d="M523.315 132.357L499.163 104.536C496.862 101.886 497.037 99.412 499.687 97.1116L527.508 72.9594C530.157 70.659 532.632 70.8337 534.932 73.4835L559.084 101.304C561.385 103.954 561.211 106.429 558.561 108.73L530.74 132.882C528.089 135.181 525.614 135.006 523.315 132.357Z" fill="black" fill-opacity="0.08"/>
<path opacity="0.11" d="M488.811 92.6136L464.659 64.792C462.358 62.1422 462.533 59.6678 465.183 57.3674L493.004 33.2152C495.653 30.9148 498.128 31.0895 500.428 33.7393L524.581 61.561C526.881 64.2108 526.707 66.6851 524.057 68.9855L496.236 93.1377C493.586 95.4381 491.112 95.2634 488.811 92.6136Z" fill="black" fill-opacity="0.08"/>
<path opacity="0.11" d="M454.308 52.8695L430.155 25.0486C427.855 22.3988 428.029 19.9237 430.679 17.6233L458.5 -6.52894C461.149 -8.82931 463.625 -8.65386 465.925 -6.00407L490.077 21.8168C492.377 24.4666 492.203 26.941 489.553 29.2414L461.732 53.3936C459.082 55.694 456.608 55.5193 454.308 52.8695Z" fill="black" fill-opacity="0.08"/>
<path opacity="0.181" d="M419.807 13.1246L395.655 -14.6963C393.354 -17.3461 393.528 -19.8212 396.178 -22.1216L423.999 -46.2738C426.649 -48.5742 429.124 -48.3988 431.424 -45.749L455.576 -17.9281C457.877 -15.2783 457.703 -12.8032 455.053 -10.5028L427.232 13.6494C424.582 15.9498 422.107 15.7744 419.807 13.1246Z" fill="black" fill-opacity="0.08"/>
<path opacity="0.11" d="M735.577 296.576L711.425 268.756C709.125 266.106 709.299 263.631 711.95 261.33L739.771 237.178C742.42 234.878 744.896 235.052 747.196 237.702L771.348 265.522C773.649 268.172 773.473 270.647 770.823 272.948L743.002 297.1C740.352 299.401 737.877 299.226 735.577 296.576Z" fill="black" fill-opacity="0.08"/>
<path opacity="0.11" d="M701.073 256.832L676.92 229.011C674.62 226.361 674.794 223.886 677.445 221.585L705.265 197.433C707.915 195.132 710.391 195.307 712.691 197.957L736.844 225.778C739.145 228.428 738.969 230.903 736.319 233.204L708.498 257.356C705.848 259.657 703.374 259.482 701.073 256.832Z" fill="black" fill-opacity="0.08"/>
<path opacity="0.11" d="M666.569 217.088L642.417 189.267C640.117 186.617 640.291 184.142 642.941 181.841L670.762 157.689C673.412 155.389 675.888 155.563 678.188 158.213L702.34 186.034C704.641 188.684 704.465 191.159 701.815 193.459L673.995 217.612C671.344 219.913 668.87 219.738 666.569 217.088Z" fill="black" fill-opacity="0.08"/>
<path opacity="0.262" d="M632.065 177.344L607.913 149.522C605.613 146.873 605.787 144.398 608.437 142.097L636.258 117.945C638.908 115.645 641.384 115.819 643.684 118.468L667.836 146.29C670.137 148.94 669.961 151.415 667.312 153.715L639.491 177.868C636.84 180.169 634.366 179.994 632.065 177.344Z" fill="black" fill-opacity="0.08"/>
<path opacity="0.11" d="M597.565 137.599L573.413 109.778C571.112 107.128 571.286 104.653 573.937 102.352L601.758 78.2001C604.407 75.8998 606.883 76.0745 609.184 78.7243L633.336 106.545C635.636 109.195 635.461 111.671 632.812 113.971L604.991 138.123C602.339 140.424 599.864 140.248 597.565 137.599Z" fill="black" fill-opacity="0.08"/>
<path opacity="0.11" d="M563.061 97.8551L538.909 70.0342C536.608 67.3844 536.783 64.91 539.433 62.609L567.254 38.4568C569.904 36.1564 572.379 36.3304 574.68 38.9802L598.832 66.8011C601.132 69.4509 600.957 71.9267 598.308 74.227L570.487 98.3792C567.836 100.68 565.361 100.504 563.061 97.8551Z" fill="black" fill-opacity="0.08"/>
<path opacity="0.11" d="M528.558 58.1117L504.405 30.29C502.104 27.6402 502.279 25.1658 504.93 22.8648L532.75 -1.2874C535.4 -3.58777 537.875 -3.41379 540.176 -0.764001L564.329 27.0577C566.629 29.7075 566.454 32.1825 563.804 34.4829L535.983 58.6351C533.332 60.9361 530.858 60.7615 528.558 58.1117Z" fill="black" fill-opacity="0.08"/>
<path opacity="0.252" d="M494.054 18.3675L469.901 -9.45338C467.601 -12.1032 467.775 -14.5783 470.426 -16.8793L498.247 -41.0315C500.896 -43.3319 503.372 -43.1571 505.673 -40.5074L529.825 -12.6865C532.125 -10.0367 531.95 -7.56162 529.3 -5.26125L501.479 18.891C498.828 21.192 496.354 21.0173 494.054 18.3675Z" fill="black" fill-opacity="0.08"/>
<path opacity="0.11" d="M809.823 301.818L785.67 273.997C783.369 271.347 783.544 268.872 786.194 266.572L814.015 242.42C816.664 240.119 819.14 240.293 821.441 242.944L845.593 270.765C847.893 273.414 847.718 275.89 845.069 278.191L817.248 302.343C814.597 304.642 812.122 304.467 809.823 301.818Z" fill="black" fill-opacity="0.08"/>
<path opacity="0.11" d="M775.319 262.073L751.167 234.252C748.867 231.602 749.041 229.127 751.691 226.827L779.512 202.675C782.162 200.375 784.637 200.549 786.937 203.198L811.09 231.019C813.39 233.669 813.215 236.144 810.565 238.444L782.744 262.597C780.094 264.897 777.62 264.722 775.319 262.073Z" fill="black" fill-opacity="0.08"/>
<path opacity="0.11" d="M740.819 222.328L716.666 194.507C714.366 191.857 714.54 189.382 717.19 187.082L745.011 162.929C747.661 160.629 750.136 160.804 752.437 163.453L776.589 191.274C778.89 193.925 778.715 196.4 776.065 198.7L748.244 222.853C745.594 225.153 743.12 224.978 740.819 222.328Z" fill="black" fill-opacity="0.08"/>
<path opacity="0.11" d="M706.315 182.584L682.163 154.763C679.863 152.114 680.037 149.638 682.687 147.338L710.508 123.186C713.157 120.885 715.633 121.06 717.933 123.71L742.086 151.531C744.386 154.181 744.211 156.656 741.561 158.956L713.74 183.108C711.09 185.409 708.616 185.234 706.315 182.584Z" fill="black" fill-opacity="0.08"/>
<path opacity="0.11" d="M671.811 142.84L647.659 115.018C645.359 112.369 645.533 109.894 648.183 107.594L676.004 83.4417C678.653 81.1413 681.129 81.3161 683.429 83.9651L707.582 111.787C709.882 114.437 709.707 116.912 707.057 119.212L679.236 143.364C676.586 145.665 674.112 145.49 671.811 142.84Z" fill="black" fill-opacity="0.08"/>
<path opacity="0.11" d="M637.307 103.095L613.155 75.2743C610.854 72.6245 611.028 70.1494 613.678 67.8491L641.499 43.6968C644.149 41.3964 646.625 41.5712 648.925 44.221L673.077 72.0419C675.378 74.6917 675.203 77.1675 672.553 79.4678L644.732 103.62C642.082 105.92 639.607 105.744 637.307 103.095Z" fill="black" fill-opacity="0.08"/>
<path opacity="0.11" d="M602.803 63.3512L578.651 35.5303C576.35 32.8805 576.525 30.4061 579.175 28.1057L606.996 3.95348C609.646 1.65311 612.121 1.82713 614.421 4.47692L638.573 32.2978C640.874 34.9476 640.699 37.4234 638.049 39.7237L610.228 63.876C607.578 66.1756 605.103 66.0002 602.803 63.3512Z" fill="black" fill-opacity="0.08"/>
<path opacity="0.11" d="M568.3 23.6078L544.147 -4.21392C541.847 -6.86371 542.021 -9.33809 544.671 -11.6385L572.492 -35.7907C575.142 -38.0911 577.617 -37.9171 579.917 -35.2673L604.07 -7.44559C606.37 -4.7958 606.195 -2.32078 603.545 -0.0204153L575.724 24.1318C573.075 26.4322 570.6 26.2575 568.3 23.6078Z" fill="black" fill-opacity="0.08"/>
<path opacity="0.204" d="M884.073 307.058L859.92 279.237C857.62 276.587 857.795 274.113 860.444 271.813L888.266 247.66C890.915 245.36 893.39 245.534 895.691 248.184L919.843 276.005C922.143 278.655 921.968 281.13 919.319 283.43L891.498 307.583C888.847 309.883 886.372 309.707 884.073 307.058Z" fill="black" fill-opacity="0.08"/>
<path opacity="0.304" d="M849.569 267.314L825.416 239.493C823.115 236.842 823.29 234.368 825.94 232.068L853.762 207.915C856.411 205.615 858.886 205.789 861.187 208.44L885.339 236.261C887.639 238.91 887.465 241.386 884.816 243.686L856.994 267.839C854.343 270.138 851.868 269.963 849.569 267.314Z" fill="black" fill-opacity="0.08"/>
<path opacity="0.174" d="M815.065 227.569L790.913 199.748C788.613 197.098 788.787 194.624 791.437 192.323L819.259 168.17C821.908 165.871 824.383 166.045 826.683 168.694L850.836 196.515C853.136 199.165 852.961 201.64 850.312 203.94L822.49 228.093C819.84 230.393 817.366 230.218 815.065 227.569Z" fill="black" fill-opacity="0.08"/>
<path opacity="0.384" d="M780.561 187.824L756.409 160.003C754.108 157.353 754.282 154.878 756.932 152.578L784.754 128.425C787.403 126.125 789.879 126.3 792.179 128.95L816.331 156.77C818.632 159.421 818.457 161.896 815.808 164.196L787.986 188.349C785.336 190.649 782.862 190.474 780.561 187.824Z" fill="black" fill-opacity="0.08"/>
<path opacity="0.324" d="M746.058 148.08L721.905 120.259C719.605 117.61 719.779 115.135 722.429 112.834L750.25 88.6813C752.899 86.3816 755.375 86.5563 757.676 89.2061L781.828 117.027C784.128 119.677 783.953 122.152 781.304 124.452L753.482 148.604C750.832 150.905 748.358 150.73 746.058 148.08Z" fill="black" fill-opacity="0.08"/>
<path opacity="0.11" d="M711.554 108.336L687.401 80.5146C685.101 77.8655 685.275 75.3904 687.925 73.09L715.747 48.9371C718.396 46.6374 720.871 46.8122 723.171 49.4612L747.324 77.2829C749.624 79.9327 749.449 82.4077 746.8 84.7074L718.978 108.86C716.328 111.161 713.854 110.986 711.554 108.336Z" fill="black" fill-opacity="0.08"/>
<path opacity="0.454" d="M677.053 68.5933L652.901 40.7724C650.6 38.1226 650.774 35.6475 653.424 33.3471L681.246 9.19421C683.895 6.8945 686.371 7.06924 688.671 9.71903L712.823 37.54C715.124 40.1898 714.949 42.6655 712.3 44.9652L684.478 69.1181C681.828 71.4177 679.353 71.2423 677.053 68.5933Z" fill="black" fill-opacity="0.08"/>
<path opacity="0.11" d="M642.549 28.8472L618.397 1.02633C616.097 -1.62346 616.271 -4.09784 618.921 -6.39821L646.743 -30.5511C649.392 -32.8508 651.867 -32.6768 654.167 -30.027L678.319 -2.20612C680.62 0.443668 680.445 2.91944 677.796 5.21915L649.974 29.372C647.324 31.6717 644.849 31.4963 642.549 28.8472Z" fill="black" fill-opacity="0.08"/>
<path opacity="0.195" d="M958.319 312.299L934.166 284.477C931.866 281.828 932.041 279.353 934.691 277.052L962.512 252.9C965.162 250.6 967.637 250.774 969.937 253.423L994.09 281.245C996.39 283.894 996.215 286.37 993.566 288.67L965.745 312.823C963.095 315.123 960.619 314.948 958.319 312.299Z" fill="black" fill-opacity="0.08"/>
<path opacity="0.405" d="M923.815 272.554L899.663 244.733C897.362 242.084 897.538 239.608 900.187 237.308L928.008 213.156C930.658 210.856 933.133 211.03 935.434 213.679L959.586 241.5C961.886 244.15 961.711 246.626 959.062 248.926L931.241 273.078C928.59 275.378 926.114 275.203 923.815 272.554Z" fill="black" fill-opacity="0.08"/>
<path opacity="0.525" d="M889.311 232.81L865.159 204.989C862.858 202.339 863.033 199.864 865.683 197.563L893.504 173.411C896.154 171.111 898.629 171.285 900.93 173.935L925.082 201.756C927.382 204.406 927.207 206.882 924.558 209.182L896.737 233.334C894.086 235.634 891.611 235.459 889.311 232.81Z" fill="black" fill-opacity="0.08"/>
<path opacity="0.345" d="M854.808 193.067L830.655 165.246C828.355 162.596 828.53 160.121 831.18 157.821L859.001 133.668C861.651 131.368 864.126 131.542 866.426 134.192L890.579 162.013C892.879 164.663 892.704 167.138 890.054 169.438L862.233 193.59C859.583 195.891 857.108 195.717 854.808 193.067Z" fill="black" fill-opacity="0.08"/>
<path opacity="0.11" d="M820.307 153.322L796.155 125.501C793.854 122.851 794.029 120.375 796.679 118.075L824.5 93.9228C827.15 91.6224 829.625 91.7972 831.926 94.447L856.078 122.268C858.379 124.918 858.204 127.393 855.554 129.694L827.733 153.846C825.083 156.146 822.608 155.972 820.307 153.322Z" fill="black" fill-opacity="0.08"/>
<path opacity="0.165" d="M785.804 113.578L761.651 85.7575C759.351 83.1077 759.526 80.6319 762.176 78.3316L789.997 54.1794C792.646 51.879 795.122 52.0537 797.422 54.7035L821.575 82.5245C823.875 85.1743 823.7 87.6493 821.05 89.9496L793.229 114.102C790.579 116.402 788.104 116.228 785.804 113.578Z" fill="black" fill-opacity="0.08"/>
<path opacity="0.125" d="M751.3 73.8343L727.147 46.0126C724.847 43.3636 725.022 40.8878 727.672 38.5874L755.493 14.4352C758.142 12.1348 760.618 12.3096 762.918 14.9586L787.071 42.7803C789.371 45.4301 789.196 47.9051 786.546 50.2055L758.725 74.3577C756.075 76.6581 753.6 76.4841 751.3 73.8343Z" fill="black" fill-opacity="0.08"/>
<path opacity="0.475" d="M716.795 34.0894L692.643 6.26847C690.343 3.61868 690.517 1.14288 693.167 -1.15748L720.988 -25.3097C723.638 -27.6101 726.114 -27.4353 728.414 -24.7855L752.566 3.03543C754.867 5.68522 754.692 8.16097 752.042 10.4613L724.221 34.6135C721.571 36.9132 719.095 36.7384 716.795 34.0894Z" fill="black" fill-opacity="0.08"/>
<path opacity="0.436" d="M1032.56 317.541L1008.41 289.72C1006.11 287.071 1006.29 284.595 1008.94 282.295L1036.76 258.142C1039.41 255.842 1041.88 256.017 1044.18 258.667L1068.34 286.487C1070.64 289.138 1070.46 291.612 1067.81 293.913L1039.99 318.065C1037.34 320.365 1034.87 320.191 1032.56 317.541Z" fill="black" fill-opacity="0.08"/>
<path opacity="0.646" d="M998.061 277.795L973.909 249.974C971.608 247.324 971.784 244.849 974.433 242.548L1002.25 218.396C1004.9 216.096 1007.38 216.27 1009.68 218.92L1033.83 246.742C1036.13 249.391 1035.96 251.866 1033.31 254.166L1005.49 278.319C1002.84 280.619 1000.36 280.444 998.061 277.795Z" fill="black" fill-opacity="0.08"/>
<path opacity="0.116" d="M963.561 238.05L939.409 210.229C937.108 207.58 937.284 205.105 939.933 202.804L967.754 178.652C970.404 176.352 972.879 176.526 975.179 179.176L999.331 206.997C1001.63 209.647 1001.46 212.122 998.808 214.422L970.987 238.575C968.336 240.874 965.861 240.699 963.561 238.05Z" fill="black" fill-opacity="0.08"/>
<path opacity="0.236" d="M929.057 198.308L904.905 170.487C902.604 167.837 902.779 165.362 905.429 163.061L933.25 138.909C935.9 136.609 938.374 136.783 940.675 139.434L964.827 167.255C967.128 169.905 966.954 172.38 964.304 174.68L936.483 198.832C933.832 201.132 931.357 200.957 929.057 198.308Z" fill="black" fill-opacity="0.08"/>
<path opacity="0.376" d="M894.554 158.563L870.401 130.742C868.101 128.092 868.276 125.617 870.926 123.317L898.747 99.1645C901.397 96.8641 903.871 97.0388 906.172 99.6886L930.324 127.509C932.624 130.159 932.45 132.634 929.8 134.934L901.979 159.086C899.329 161.387 896.854 161.213 894.554 158.563Z" fill="black" fill-opacity="0.08"/>
<path opacity="0.316" d="M860.049 118.818L835.897 90.9971C833.597 88.3473 833.771 85.8715 836.421 83.5711L864.242 59.4188C866.892 57.1185 869.367 57.2939 871.667 59.9437L895.819 87.7646C898.12 90.4152 897.946 92.8895 895.296 95.1899L867.475 119.342C864.825 121.643 862.35 121.468 860.049 118.818Z" fill="black" fill-opacity="0.08"/>
<path opacity="0.226" d="M825.546 79.0746L801.394 51.2536C799.093 48.6038 799.268 46.1281 801.918 43.8277L829.739 19.6754C832.389 17.3751 834.864 17.5505 837.164 20.2003L861.316 48.0212C863.617 50.671 863.442 53.1454 860.792 55.4457L832.971 79.598C830.321 81.8984 827.846 81.7243 825.546 79.0746Z" fill="black" fill-opacity="0.08"/>
<path opacity="0.676" d="M791.042 39.3304L766.889 11.5087C764.589 8.85967 764.764 6.3839 767.414 4.08353L795.235 -20.0687C797.885 -22.3691 800.36 -22.1937 802.659 -19.5446L826.812 8.27704C829.113 10.9268 828.938 13.4012 826.288 15.7016L798.467 39.8538C795.817 42.1542 793.342 41.9802 791.042 39.3304Z" fill="black" fill-opacity="0.08"/>
<path opacity="0.246" d="M756.541 -0.414499L732.389 -28.2354C730.089 -30.8852 730.263 -33.361 732.913 -35.6613L760.734 -59.8136C763.384 -62.114 765.859 -61.9386 768.159 -59.2888L792.312 -31.4678C794.612 -28.8181 794.438 -26.3429 791.788 -24.0426L763.967 0.109682C761.317 2.4093 758.841 2.23454 756.541 -0.414499Z" fill="black" fill-opacity="0.08"/>
<path opacity="0.807" d="M1072.31 283.037L1048.16 255.216C1045.86 252.567 1046.03 250.092 1048.68 247.791L1076.5 223.638C1079.15 221.338 1081.63 221.513 1083.93 224.163L1108.08 251.983C1110.38 254.634 1110.21 257.108 1107.56 259.409L1079.74 283.561C1077.09 285.863 1074.61 285.687 1072.31 283.037Z" fill="black" fill-opacity="0.08"/>
<path opacity="0.327" d="M1037.81 243.293L1013.65 215.472C1011.35 212.822 1011.53 210.347 1014.18 208.047L1042 183.894C1044.65 181.594 1047.12 181.769 1049.42 184.418L1073.58 212.24C1075.88 214.889 1075.7 217.364 1073.05 219.665L1045.23 243.817C1042.58 246.118 1040.11 245.942 1037.81 243.293Z" fill="black" fill-opacity="0.08"/>
<path opacity="0.657" d="M1003.3 203.548L979.151 175.728C976.85 173.078 977.025 170.603 979.675 168.303L1007.5 144.15C1010.15 141.85 1012.62 142.024 1014.92 144.674L1039.07 172.495C1041.37 175.145 1041.2 177.62 1038.55 179.92L1010.73 204.073C1008.08 206.374 1005.6 206.197 1003.3 203.548Z" fill="black" fill-opacity="0.08"/>
<path opacity="0.347" d="M968.803 163.804L944.651 135.983C942.35 133.333 942.524 130.858 945.174 128.558L972.996 104.405C975.646 102.105 978.12 102.279 980.421 104.93L1004.57 132.751C1006.87 135.401 1006.7 137.876 1004.05 140.176L976.228 164.329C973.577 166.629 971.103 166.453 968.803 163.804Z" fill="black" fill-opacity="0.08"/>
<path opacity="0.797" d="M934.3 124.059L910.148 96.238C907.847 93.5882 908.022 91.1138 910.672 88.8135L938.493 64.6606C941.143 62.3603 943.617 62.5349 945.918 65.1847L970.07 93.0056C972.37 95.6554 972.196 98.1298 969.546 100.43L941.724 124.583C939.074 126.884 936.6 126.709 934.3 124.059Z" fill="black" fill-opacity="0.08"/>
<path opacity="0.557" d="M899.795 84.314L875.643 56.4932C873.343 53.8434 873.517 51.3682 876.166 49.0678L903.988 24.915C906.638 22.6146 909.113 22.7901 911.413 25.4399L935.565 53.2607C937.867 55.9113 937.692 58.3856 935.042 60.686L907.22 84.8389C904.57 87.1399 902.096 86.9646 899.795 84.314Z" fill="black" fill-opacity="0.08"/>
<path opacity="0.207" d="M865.292 44.5706L841.14 16.7497C838.839 14.0999 839.013 11.6248 841.663 9.32443L869.485 -14.8284C872.135 -17.1288 874.61 -16.9534 876.91 -14.3036L901.062 13.5173C903.363 16.1671 903.188 18.6415 900.538 20.9419L872.716 45.0947C870.066 47.3958 867.592 47.2204 865.292 44.5706Z" fill="black" fill-opacity="0.08"/>
<path opacity="0.737" d="M830.788 4.82632L806.635 -22.9954C804.335 -25.6444 804.509 -28.1195 807.159 -30.4199L834.981 -54.5727C837.631 -56.8731 840.106 -56.6977 842.405 -54.0487L866.558 -26.227C868.859 -23.5772 868.684 -21.1028 866.034 -18.8024L838.213 5.3504C835.562 7.65143 833.088 7.47611 830.788 4.82632Z" fill="black" fill-opacity="0.08"/>
<path opacity="0.608" d="M1077.55 208.789L1053.4 180.968C1051.1 178.318 1051.28 175.844 1053.92 173.543L1081.75 149.391C1084.4 147.091 1086.87 147.265 1089.17 149.914L1113.32 177.736C1115.62 180.385 1115.45 182.861 1112.8 185.161L1084.98 209.313C1082.33 211.614 1079.85 211.438 1077.55 208.789Z" fill="black" fill-opacity="0.08"/>
<path opacity="0.558" d="M1043.05 169.044L1018.9 141.224C1016.6 138.574 1016.77 136.099 1019.42 133.799L1047.24 109.647C1049.89 107.346 1052.37 107.52 1054.67 110.17L1078.82 137.991C1081.12 140.641 1080.94 143.117 1078.3 145.417L1050.47 169.569C1047.82 171.869 1045.35 171.694 1043.05 169.044Z" fill="black" fill-opacity="0.08"/>
<path opacity="0.608" d="M1008.55 129.3L984.393 101.479C982.092 98.8289 982.267 96.3545 984.916 94.0542L1012.74 69.902C1015.39 67.6016 1017.86 67.7756 1020.16 70.4261L1044.32 98.247C1046.62 100.897 1046.44 103.373 1043.79 105.673L1015.97 129.825C1013.32 132.125 1010.84 131.949 1008.55 129.3Z" fill="black" fill-opacity="0.08"/>
<path opacity="0.11" d="M974.042 89.557L949.89 61.7361C947.589 59.0863 947.764 56.6119 950.414 54.3115L978.235 30.1593C980.884 27.8589 983.36 28.0329 985.66 30.6827L1009.81 58.5036C1012.11 61.1534 1011.94 63.6285 1009.29 65.9288L981.466 90.0811C978.817 92.3814 976.342 92.2068 974.042 89.557Z" fill="black" fill-opacity="0.08"/>
<path opacity="0.478" d="M939.537 49.8121L915.385 21.9912C913.085 19.3414 913.259 16.8663 915.909 14.5659L943.73 -9.58633C946.379 -11.8867 948.855 -11.7119 951.155 -9.06214L975.308 18.7588C977.609 21.4093 977.433 23.8843 974.783 26.1847L946.963 50.3369C944.313 52.6373 941.838 52.4626 939.537 49.8121Z" fill="black" fill-opacity="0.08"/>
<path opacity="0.248" d="M905.034 10.0687L880.882 -17.7522C878.582 -20.402 878.756 -22.8772 881.405 -25.1775L909.226 -49.3297C911.876 -51.6301 914.352 -51.4554 916.652 -48.8056L940.804 -20.9847C943.105 -18.3349 942.929 -15.8598 940.28 -13.5594L912.459 10.5928C909.809 12.8931 907.335 12.7185 905.034 10.0687Z" fill="black" fill-opacity="0.08"/>
<path opacity="0.339" d="M1082.79 134.543L1058.64 106.722C1056.34 104.072 1056.51 101.597 1059.16 99.2964L1086.98 75.1442C1089.63 72.8439 1092.11 73.0179 1094.41 75.6677L1118.56 103.489C1120.86 106.138 1120.69 108.614 1118.04 110.914L1090.22 135.067C1087.57 137.366 1085.09 137.192 1082.79 134.543Z" fill="black" fill-opacity="0.08"/>
<path opacity="0.309" d="M1048.29 94.7984L1024.14 66.9775C1021.83 64.327 1022.01 61.8519 1024.66 59.5515L1052.48 35.3993C1055.13 33.099 1057.61 33.273 1059.91 35.9235L1084.06 63.7444C1086.36 66.3942 1086.18 68.87 1083.53 71.1704L1055.71 95.3226C1053.06 97.6222 1050.59 97.4475 1048.29 94.7984Z" fill="black" fill-opacity="0.08"/>
<path opacity="0.469" d="M1013.78 55.053L989.632 27.2321C987.332 24.5823 987.507 22.1073 990.157 19.8069L1017.98 -4.34531C1020.63 -6.64567 1023.1 -6.47165 1025.4 -3.82186L1049.56 23.9991C1051.86 26.6488 1051.68 29.1239 1049.03 31.4242L1021.21 55.5764C1018.56 57.8768 1016.08 57.7028 1013.78 55.053Z" fill="black" fill-opacity="0.08"/>
<path d="M979.284 15.3082L955.131 -12.5127C952.831 -15.1625 953.006 -17.6383 955.655 -19.9387L983.476 -44.0909C986.126 -46.3913 988.602 -46.2165 990.902 -43.5667L1015.05 -15.7458C1017.36 -13.0952 1017.18 -10.6203 1014.53 -8.31988L986.709 15.8323C984.06 18.1327 981.585 17.9587 979.284 15.3082Z" fill="black" fill-opacity="0.08"/>
<path opacity="0.8" d="M1088.03 60.2945L1063.88 32.4736C1061.58 29.8231 1061.75 27.3487 1064.4 25.0483L1092.23 0.895412C1094.88 -1.4043 1097.35 -1.23029 1099.65 1.42026L1123.8 29.2412C1126.1 31.891 1125.93 34.3667 1123.28 36.6664L1095.46 60.8193C1092.81 63.119 1090.33 62.9436 1088.03 60.2945Z" fill="black" fill-opacity="0.08"/>
<path opacity="0.38" d="M1053.53 20.5492L1029.38 -7.27176C1027.08 -9.92155 1027.25 -12.3959 1029.9 -14.6963L1057.72 -38.8492C1060.37 -41.1489 1062.85 -40.9749 1065.15 -38.3251L1089.3 -10.5042C1091.6 -7.85439 1091.43 -5.37936 1088.78 -3.07965L1060.95 21.0732C1058.3 23.3736 1055.83 23.199 1053.53 20.5492Z" fill="black" fill-opacity="0.08"/>
</svg>
