<svg xmlns="http://www.w3.org/2000/svg" width="42" height="31" viewBox="0 0 42 31" fill="none">
  <path opacity="0.6" d="M39.0625 2.0625C38.0625 3.4375 37.3958 4.89583 37.0625 6.4375C36.7708 7.97917 36.7708 9.5625 37.0625 11.1875C37.3958 12.8125 37.9792 14.4583 38.8125 16.125C39.6458 17.75 40.7083 19.3333 42 20.875L32.1875 30.75L22.3125 20.875C22.8542 19.3333 23.5833 17.7083 24.5 16C25.4167 14.25 26.5208 12.4792 27.8125 10.6875C29.1042 8.89583 30.5625 7.125 32.1875 5.375C33.8125 3.58333 35.6042 1.875 37.5625 0.25L39.0625 2.0625ZM16.8125 2.0625C15.7708 3.4375 15.1042 4.89583 14.8125 6.4375C14.5208 7.97917 14.5208 9.5625 14.8125 11.1875C15.1042 12.8125 15.6667 14.4583 16.5 16.125C17.375 17.75 18.4583 19.3333 19.75 20.875L9.875 30.75L0.0625 20.875C0.604167 19.3333 1.33333 17.7083 2.25 16C3.16667 14.25 4.25 12.4792 5.5 10.6875C6.79167 8.89583 8.25 7.125 9.875 5.375C11.5 3.58333 13.2917 1.875 15.25 0.25L16.8125 2.0625Z" fill="black" fill-opacity="0.4"/>
</svg>