<svg width="42" height="31" viewBox="0 0 42 31" fill="none" xmlns="http://www.w3.org/2000/svg">
<path opacity="0.6" d="M39 1.8125C38 3.1875 37.3333 4.64583 37 6.1875C36.7083 7.72917 36.7083 9.3125 37 10.9375C37.3333 12.5625 37.9167 14.2083 38.75 15.875C39.5833 17.5 40.6458 19.0833 41.9375 20.625L32.125 30.5L22.25 20.625C22.7917 19.0833 23.5208 17.4583 24.4375 15.75C25.3542 14 26.4583 12.2292 27.75 10.4375C29.0417 8.64583 30.5 6.875 32.125 5.125C33.75 3.33333 35.5417 1.625 37.5 0L39 1.8125ZM16.75 1.8125C15.7083 3.1875 15.0417 4.64583 14.75 6.1875C14.4583 7.72917 14.4583 9.3125 14.75 10.9375C15.0417 12.5625 15.6042 14.2083 16.4375 15.875C17.3125 17.5 18.3958 19.0833 19.6875 20.625L9.8125 30.5L0 20.625C0.541667 19.0833 1.27083 17.4583 2.1875 15.75C3.10417 14 4.1875 12.2292 5.4375 10.4375C6.72917 8.64583 8.1875 6.875 9.8125 5.125C11.4375 3.33333 13.2292 1.625 15.1875 0L16.75 1.8125Z" fill="#ADC6C6"/>
</svg>
