<svg width="5" height="2" viewBox="0 0 5 2" fill="none" xmlns="http://www.w3.org/2000/svg">
<path d="M0.865692 0.0167677C0.936612 0.0159796 1.00753 0.0151915 1.0806 0.0143795C1.15699 0.0140309 1.23339 0.0136823 1.3121 0.0133231C1.43029 0.0126217 1.43029 0.0126217 1.55086 0.0119061C1.71759 0.0111312 1.88433 0.0105951 2.05106 0.0102789C2.30581 0.00948271 2.56051 0.00693752 2.81526 0.0043509C2.97729 0.00381522 3.13932 0.00338452 3.30135 0.00306916C3.37742 0.00205634 3.45348 0.00104352 3.53184 0C3.93102 0.00137561 4.21128 0.010035 4.53246 0.276079C4.64949 0.510135 4.63995 0.672663 4.6145 0.932329C4.50395 1.15035 4.50395 1.15035 4.28637 1.34249C3.99305 1.40521 3.70355 1.39994 3.40453 1.39696C3.2753 1.39755 3.2753 1.39755 3.14346 1.39815C2.96143 1.39843 2.77939 1.39767 2.59736 1.39596C2.3186 1.39376 2.0401 1.39594 1.76135 1.39856C1.58447 1.39829 1.40759 1.39777 1.23071 1.39696C1.1473 1.39779 1.0639 1.39862 0.977964 1.39948C0.402227 1.3899 0.402227 1.3899 0.131937 1.1497C-0.00309824 0.885715 -0.0228675 0.732973 0.0207457 0.440142C0.229961 0.0715242 0.460217 0.020411 0.865692 0.0167677Z" fill="#D8D8D8"/>
</svg>
