<svg width="42" height="42" viewBox="0 0 42 42" fill="none" xmlns="http://www.w3.org/2000/svg">
<g clip-path="url(#clip0_263_9442)">
<path d="M19.7802 -0.054415C19.9254 -0.0550036 19.9254 -0.0550036 20.0735 -0.0556041C20.2778 -0.0558829 20.4822 -0.0551281 20.6866 -0.0534136C20.9993 -0.0512183 21.3119 -0.0533933 21.6246 -0.0560171C21.8233 -0.0557461 22.022 -0.0552206 22.2206 -0.054415C22.3609 -0.0556603 22.3609 -0.0556603 22.5039 -0.0569309C23.1504 -0.0473599 23.1504 -0.0473599 23.48 0.193702C23.6519 0.449628 23.6694 0.582058 23.6511 0.887022C23.6455 1.00709 23.6455 1.00709 23.6398 1.12959C23.6351 1.18997 23.6303 1.25035 23.6254 1.31256C23.6789 1.32747 23.7324 1.34238 23.7876 1.35774C24.1195 1.45322 24.417 1.54319 24.7226 1.70733C24.9254 1.82592 24.9254 1.82592 25.102 1.76373C25.2837 1.63303 25.2837 1.63303 25.4916 1.42022C25.7764 1.21758 25.8953 1.19339 26.235 1.2489C26.6001 1.37842 26.8412 1.66832 27.1037 1.94285C27.1663 2.00608 27.229 2.0693 27.2935 2.13443C27.4923 2.33597 27.6891 2.53944 27.8859 2.74298C28.0204 2.87966 28.1551 3.01622 28.2898 3.15265C28.535 3.40196 28.78 3.65149 29.0231 3.90277C29.072 3.95317 29.1208 4.00356 29.1711 4.05548C29.3844 4.29436 29.4035 4.51525 29.4035 4.83253C29.348 5.09763 29.1856 5.21349 28.9751 5.3715C28.8543 5.4937 28.8543 5.4937 28.8882 5.68072C28.9701 5.94748 29.0654 6.20552 29.1677 6.46515C29.205 6.56042 29.2423 6.6557 29.2808 6.75386C29.3094 6.82608 29.3381 6.8983 29.3676 6.97272C29.428 6.97388 29.4884 6.97504 29.5506 6.97624C29.6306 6.98015 29.7107 6.98407 29.7932 6.9881C29.9116 6.99238 29.9116 6.99238 30.0325 6.99675C30.3639 7.07768 30.4729 7.19374 30.6801 7.4649C30.736 7.73621 30.728 8.00055 30.7202 8.27656C30.7196 8.35428 30.719 8.43199 30.7184 8.51206C30.7161 8.75951 30.711 9.0068 30.7057 9.25421C30.7037 9.42228 30.7018 9.59034 30.7001 9.75841C30.6956 10.1698 30.6886 10.581 30.6801 10.9922C30.7754 10.9903 30.8707 10.9884 30.9689 10.9865C31.0955 10.9849 31.222 10.9834 31.3485 10.982C31.4112 10.9806 31.4738 10.9792 31.5384 10.9778C32.1648 10.9724 32.5963 11.1305 33.0632 11.5556C33.6583 12.1889 33.795 12.919 33.9726 13.7477C33.9961 13.8554 34.0196 13.9631 34.0433 14.0707C34.1048 14.3523 34.1658 14.6341 34.2265 14.9159C34.2888 15.2041 34.3517 15.4922 34.4146 15.7803C34.5376 16.3443 34.6599 16.9085 34.7817 17.4727C34.8305 17.4437 34.8794 17.4148 34.9297 17.3849C35.4671 17.0882 35.8875 17.0016 36.4966 17.0081C36.6203 17.0075 36.6203 17.0075 36.7466 17.0069C36.9197 17.0066 37.0929 17.0074 37.266 17.0091C37.5291 17.0113 37.7919 17.0091 38.0549 17.0065C38.2242 17.0068 38.3935 17.0073 38.5628 17.0081C38.6403 17.0073 38.7179 17.0064 38.7977 17.0056C39.4238 17.0164 39.9714 17.1877 40.4377 17.6215C40.9066 18.1315 40.981 18.6192 40.9702 19.3011C40.8895 19.9801 40.5349 20.5853 40.0314 21.044C39.4177 21.4943 38.8307 21.6594 38.0834 21.7024C38.0262 21.706 37.969 21.7095 37.9101 21.7132C37.7696 21.7218 37.6292 21.7301 37.4887 21.7383C37.5661 21.7804 37.5661 21.7804 37.645 21.8232C39.5468 22.8617 41.1218 23.837 41.845 25.9854C42.069 26.7847 42.0467 27.591 42.0387 28.4156C42.0363 28.688 42.037 28.9602 42.0381 29.2325C42.0376 29.4059 42.0369 29.5793 42.036 29.7527C42.0362 29.834 42.0365 29.9152 42.0367 29.999C42.0357 30.0741 42.0346 30.1492 42.0336 30.2266C42.0331 30.2925 42.0327 30.3584 42.0322 30.4264C41.9924 30.6411 41.9258 30.712 41.7543 30.8438C41.4516 30.9359 41.3188 30.9535 41.0314 30.813C40.852 30.6797 40.852 30.6797 40.77 30.5977C40.7588 30.3926 40.7527 30.1894 40.7498 29.9841C40.7471 29.855 40.7443 29.7259 40.7416 29.5968C40.7378 29.394 40.7341 29.1912 40.7308 28.9884C40.7039 27.3978 40.6246 25.8283 39.4575 24.6094C38.8751 24.1379 38.2479 23.7618 37.5912 23.4046C37.4293 23.3155 37.2674 23.2263 37.1055 23.137C37.0141 23.0883 36.9227 23.0396 36.8285 22.9894C36.5755 22.8505 36.3384 22.6949 36.0993 22.5334C34.8155 21.6955 33.7531 21.5918 32.2438 21.6307C32.0351 21.6321 31.8263 21.633 31.6175 21.6334C31.1135 21.6354 30.6098 21.6434 30.1059 21.6563C30.0914 21.7116 30.0769 21.7669 30.062 21.8239C29.9192 22.359 29.7579 22.8838 29.5781 23.4075C29.552 23.4844 29.5258 23.5613 29.4988 23.6405C29.4438 23.8016 29.3888 23.9627 29.3335 24.1238C29.2498 24.368 29.1667 24.6125 29.0835 24.857C29.0297 25.0147 28.9758 25.1724 28.9219 25.3301C28.8974 25.402 28.873 25.4739 28.8478 25.5479C28.6806 26.0345 28.4964 26.5123 28.3012 26.9883C28.3532 27.0126 28.4052 27.0368 28.4588 27.0618C28.7571 27.2203 28.8503 27.4997 28.9575 27.8087C29.0403 28.4608 28.8154 28.932 28.4499 29.4647C27.683 30.2315 26.8372 30.4587 25.7701 30.4679C25.6707 30.4675 25.5713 30.4672 25.4689 30.4668C25.3081 30.4676 25.3081 30.4676 25.144 30.4685C24.8525 30.47 24.5609 30.4699 24.2694 30.4694C24.0248 30.4692 23.7802 30.4697 23.5356 30.4702C22.9579 30.4713 22.3803 30.4712 21.8026 30.4702C21.2094 30.4693 20.6162 30.4705 20.0229 30.4727C19.5111 30.4745 18.9992 30.475 18.4873 30.4745C18.1827 30.4743 17.8782 30.4744 17.5736 30.4759C17.2334 30.4774 16.8933 30.4762 16.5532 30.4748C16.4541 30.4756 16.355 30.4764 16.253 30.4772C15.2497 30.4686 14.345 30.2541 13.6176 29.5313C13.2142 29.0753 13.0004 28.6028 13.0171 27.9804C13.0639 27.6747 13.1844 27.3984 13.3715 27.1524C13.4795 27.0951 13.5888 27.04 13.6996 26.9883C13.6829 26.9425 13.6661 26.8967 13.6488 26.8496C13.2391 25.7282 12.8425 24.6026 12.4549 23.4734C12.4063 23.3317 12.3575 23.19 12.3087 23.0483C12.2396 22.8477 12.1709 22.6469 12.1023 22.4462C12.0813 22.3853 12.0603 22.3245 12.0387 22.2618C11.895 21.8392 11.895 21.8392 11.895 21.6563C8.45762 21.4522 8.45762 21.4522 5.41157 22.7932C5.14501 22.9857 4.8714 23.1477 4.58424 23.3069C4.53511 23.3342 4.48597 23.3614 4.43535 23.3896C4.33757 23.4437 4.23974 23.4977 4.14186 23.5516C2.8235 24.2795 1.95759 25.0205 1.47699 26.4962C1.26136 27.4697 1.28889 28.4624 1.29114 29.4534C1.29103 29.6266 1.29087 29.7997 1.29066 29.9729C1.29042 30.3337 1.29077 30.6945 1.29154 31.0552C1.29248 31.5162 1.29193 31.9772 1.29095 32.4381C1.29036 32.7949 1.29055 33.1516 1.29097 33.5083C1.29108 33.6783 1.29095 33.8483 1.29057 34.0182C1.29015 34.2559 1.29079 34.4935 1.2917 34.7311C1.29137 34.8003 1.29103 34.8695 1.29069 34.9407C1.2965 35.764 1.43237 36.3773 2.0307 36.9756C2.66235 37.4129 3.39555 37.3493 4.13499 37.3504C4.25389 37.3512 4.37279 37.352 4.49169 37.3529C4.81282 37.3552 5.13394 37.3564 5.45507 37.3575C5.79129 37.3588 6.1275 37.361 6.46371 37.3631C7.09964 37.3669 7.73557 37.3699 8.3715 37.3726C9.0958 37.3758 9.8201 37.3798 10.5444 37.3839C12.0336 37.3924 13.5229 37.3997 15.0121 37.4063C15.0121 37.0273 15.0121 36.6483 15.0121 36.2579C14.8471 36.2607 14.682 36.2636 14.5119 36.2665C14.3504 36.2682 14.1889 36.2699 14.0273 36.2714C13.9158 36.2726 13.8044 36.2743 13.6929 36.2764C12.5303 36.2982 12.5303 36.2982 12.059 36.0118C11.7638 35.6939 11.6947 35.4437 11.7029 35.0136C11.7573 34.5619 11.9081 34.1347 12.0543 33.7057C12.1102 33.5409 12.1634 33.3753 12.2164 33.2096C12.5851 32.0884 12.5851 32.0884 13.0434 31.7462C13.3859 31.5758 13.6973 31.5587 14.0726 31.5607C14.1342 31.5604 14.1959 31.5601 14.2594 31.5598C14.4655 31.5589 14.6717 31.5592 14.8779 31.5596C15.0258 31.5592 15.1738 31.5588 15.3218 31.5583C15.7234 31.5572 16.1251 31.5571 16.5268 31.5574C16.8621 31.5574 17.1975 31.557 17.5328 31.5566C18.324 31.5557 19.1151 31.5557 19.9062 31.5562C20.7224 31.5567 21.5385 31.5557 22.3546 31.5539C23.0554 31.5525 23.7562 31.552 24.457 31.5523C24.8755 31.5524 25.294 31.5522 25.7125 31.5511C26.1061 31.55 26.4996 31.5502 26.8931 31.5513C27.0375 31.5514 27.1819 31.5512 27.3263 31.5505C27.5235 31.5497 27.7206 31.5504 27.9179 31.5514C27.9749 31.5508 28.0319 31.5502 28.0906 31.5496C28.5941 31.5551 28.9112 31.6974 29.2616 32.0546C29.4552 32.3282 29.5626 32.5639 29.6691 32.8808C29.6868 32.933 29.7044 32.9852 29.7226 33.0389C29.7593 33.1486 29.7954 33.2584 29.8311 33.3684C29.8852 33.5347 29.9417 33.7002 29.9984 33.8657C30.4339 35.1655 30.4339 35.1655 30.1418 35.7964C29.8268 36.1357 29.5525 36.2445 29.098 36.2773C28.7792 36.2821 28.461 36.2794 28.1423 36.2733C28.0303 36.272 27.9183 36.2709 27.8063 36.2699C27.5338 36.267 27.2612 36.2626 26.9887 36.2579C26.9887 36.6369 26.9887 37.0158 26.9887 37.4063C28.5482 37.4013 30.1077 37.395 31.6672 37.387C32.3913 37.3833 33.1155 37.3801 33.8396 37.3779C34.471 37.376 35.1023 37.3733 35.7337 37.3695C36.0678 37.3675 36.4019 37.366 36.736 37.3655C37.051 37.365 37.3658 37.3633 37.6807 37.3608C37.7959 37.3601 37.9111 37.3598 38.0263 37.36C38.8741 37.3607 39.6028 37.318 40.2419 36.7174C40.7073 36.1989 40.6983 35.5447 40.7023 34.8829C40.7042 34.7629 40.7062 34.6429 40.7083 34.5229C40.7112 34.336 40.7136 34.1492 40.7147 33.9623C40.7159 33.7804 40.7192 33.5985 40.7229 33.4166C40.7241 33.3085 40.7252 33.2005 40.7265 33.0892C40.77 32.8126 40.77 32.8126 40.919 32.6133C41.1811 32.4247 41.3576 32.4395 41.6723 32.4844C41.8516 32.6026 41.8516 32.6026 42.0004 32.8126C42.0494 33.0707 42.0464 33.3252 42.044 33.5874C42.0443 33.6633 42.0446 33.7391 42.045 33.8173C42.0452 33.978 42.0446 34.1386 42.0432 34.2993C42.0415 34.5429 42.0432 34.7863 42.0453 35.03C42.0451 35.1866 42.0446 35.3431 42.044 35.4997C42.0447 35.5716 42.0453 35.6435 42.046 35.7176C42.0342 36.5125 41.739 37.2446 41.1801 37.8165C40.4692 38.3907 40.4692 38.3907 40.1957 38.3907C40.1975 38.4701 40.1992 38.5495 40.2009 38.6314C40.2069 38.9276 40.2107 39.2239 40.2138 39.5202C40.2154 39.6482 40.2176 39.7761 40.2205 39.904C40.2245 40.0885 40.2263 40.2729 40.2278 40.4575C40.2295 40.5142 40.2312 40.5708 40.2329 40.6292C40.2331 41.0432 40.1249 41.2705 39.8676 41.5899C39.4661 41.9436 39.2657 42.0105 38.7329 42.0146C38.6464 42.0154 38.6464 42.0154 38.5582 42.0162C38.3671 42.0178 38.1759 42.0188 37.9847 42.0196C37.9194 42.0199 37.8541 42.0203 37.7869 42.0206C37.4411 42.0223 37.0953 42.0235 36.7496 42.0243C36.3928 42.0252 36.0361 42.028 35.6794 42.0313C35.4048 42.0334 35.1302 42.0341 34.8556 42.0344C34.7241 42.0348 34.5926 42.0357 34.4611 42.0373C34.2768 42.0393 34.0925 42.0392 33.9081 42.0386C33.8033 42.0391 33.6985 42.0396 33.5905 42.0401C33.1573 41.9793 32.9075 41.7793 32.6232 41.4566C32.005 40.5864 32.4028 40.4081 32.4028 38.7188C24.8772 38.7188 17.3517 38.7188 9.59808 38.7188C9.59808 39.5038 9.59808 40.2889 9.59808 41.0977C9.32203 41.5118 9.13384 41.781 8.69574 42.0001C8.50907 42.0093 8.32212 42.0131 8.13522 42.0146C8.04876 42.0154 8.04876 42.0154 7.96055 42.0162C7.7694 42.0178 7.57825 42.0188 7.38708 42.0196C7.32178 42.0199 7.25648 42.0203 7.1892 42.0206C6.84345 42.0223 6.49769 42.0235 6.15193 42.0243C5.79517 42.0252 5.43845 42.028 5.08171 42.0313C4.80711 42.0334 4.53251 42.0341 4.2579 42.0344C4.12643 42.0348 3.99496 42.0357 3.86349 42.0373C3.6791 42.0393 3.49483 42.0392 3.31044 42.0386C3.20564 42.0391 3.10085 42.0396 2.99288 42.0401C2.55967 41.9793 2.30988 41.7793 2.02557 41.4566C1.79113 41.1266 1.79425 40.8832 1.7971 40.4895C1.79722 40.4297 1.79734 40.3698 1.79746 40.3082C1.79792 40.1167 1.79895 39.9254 1.79999 39.7339C1.8004 39.6043 1.80077 39.4746 1.80111 39.3449C1.80201 39.0268 1.80343 38.7088 1.80511 38.3907C1.74315 38.367 1.68118 38.3433 1.61734 38.3189C0.871737 38.0095 0.445239 37.4325 0.117455 36.7128C-0.0416897 36.2773 -0.0346808 35.8541 -0.0327176 35.3951C-0.0332806 35.3024 -0.0338436 35.2097 -0.0344237 35.1143C-0.0359202 34.8091 -0.0356076 34.5039 -0.0351409 34.1988C-0.0355153 33.9854 -0.0359506 33.7721 -0.0364439 33.5588C-0.0372653 33.1118 -0.0369976 32.6648 -0.0361623 32.2179C-0.0352231 31.704 -0.0363718 31.1902 -0.0385743 30.6763C-0.0406243 30.1791 -0.0408135 29.6819 -0.0402866 29.1847C-0.0402741 28.9745 -0.0407657 28.7644 -0.0417874 28.5542C-0.04967 26.6664 0.164524 25.0355 1.55902 23.6251C2.15222 23.0957 2.80584 22.7 3.49701 22.3126C3.59606 22.2563 3.69508 22.2 3.79405 22.1437C4.03306 22.0079 4.27242 21.8728 4.51215 21.7383C4.42697 21.7355 4.34179 21.7326 4.25404 21.7296C3.25491 21.6905 2.48431 21.5287 1.74263 20.8036C1.19799 20.1696 0.988622 19.5544 1.02998 18.7198C1.11179 18.1365 1.35505 17.7925 1.79903 17.4173C2.33818 17.0731 2.78578 17.0242 3.41402 17.0241C3.49683 17.0235 3.57965 17.0229 3.66498 17.0222C3.83961 17.0213 4.01425 17.0211 4.18889 17.0215C4.4541 17.0215 4.71912 17.0181 4.98431 17.0145C5.15472 17.0141 5.32514 17.0138 5.49556 17.0139C5.57386 17.0125 5.65216 17.0112 5.73283 17.0098C6.31376 17.0157 6.72219 17.1765 7.21918 17.4727C7.23163 17.4139 7.24408 17.3551 7.2569 17.2945C7.37517 16.7368 7.49452 16.1793 7.61505 15.6221C7.67697 15.3357 7.73847 15.0492 7.79902 14.7626C7.85761 14.4852 7.91731 14.2082 7.97774 13.9312C8.01142 13.7755 8.04399 13.6196 8.07652 13.4637C8.2763 12.5563 8.54346 11.7657 9.35199 11.2383C9.80616 11.0055 10.1531 10.9599 10.6594 10.9769C10.7233 10.978 10.7872 10.9791 10.8531 10.9802C11.009 10.9831 11.1649 10.9875 11.3207 10.9922C11.3186 10.8875 11.3164 10.7828 11.3142 10.675C11.3068 10.2859 11.3021 9.89684 11.2982 9.50773C11.2961 9.33944 11.2934 9.17116 11.2898 9.00289C11.2848 8.76076 11.2825 8.51873 11.2807 8.27656C11.2775 8.164 11.2775 8.164 11.2743 8.04917C11.2741 7.67688 11.2809 7.517 11.5135 7.21272C11.7623 7.03194 11.9031 6.9991 12.2077 6.9881C12.3278 6.98223 12.3278 6.98223 12.4503 6.97624C12.5107 6.97508 12.571 6.97391 12.6332 6.97272C12.7181 6.7749 12.8016 6.57667 12.8845 6.37799C12.9086 6.32205 12.9328 6.26611 12.9577 6.20848C13.1215 5.81489 13.1215 5.81489 13.0434 5.41412C12.974 5.35321 12.9047 5.2923 12.8332 5.22955C12.6332 5.00397 12.6332 5.00397 12.5717 4.69122C12.6062 4.24144 12.9098 4.00589 13.2075 3.69147C13.2688 3.6265 13.2688 3.6265 13.3314 3.56022C13.6281 3.24695 13.9284 2.93752 14.2311 2.63009C14.3387 2.52032 14.4456 2.40998 14.552 2.29908C14.7073 2.13727 14.8645 1.97744 15.0221 1.81788C15.0689 1.76833 15.1158 1.71878 15.164 1.66772C15.511 1.32241 15.7503 1.23331 16.2426 1.23053C16.433 1.35389 16.433 1.35389 16.581 1.52276C16.7395 1.68235 16.7395 1.68235 16.8989 1.80475C17.1482 1.79265 17.1482 1.79265 17.3911 1.64068C17.534 1.58115 17.6776 1.52314 17.8217 1.46637C17.8915 1.43739 17.9613 1.40842 18.0332 1.37857C18.2114 1.31256 18.2114 1.31256 18.3754 1.31256C18.3683 1.22199 18.3683 1.22199 18.361 1.12959C18.3573 1.04954 18.3536 0.969495 18.3498 0.887022C18.3427 0.768536 18.3427 0.768536 18.3354 0.647657C18.4657 -0.124823 19.155 -0.0599673 19.7802 -0.054415ZM19.6879 1.23053C19.6609 1.47416 19.6338 1.71779 19.6059 1.96881C19.5788 2.07709 19.5518 2.18537 19.5239 2.29693C19.3826 2.36262 19.3826 2.36262 19.1906 2.4046C18.7795 2.51169 18.4036 2.66318 18.0165 2.83526C17.96 2.86031 17.9034 2.88535 17.8451 2.91115C17.6286 3.00785 17.4142 3.10473 17.2055 3.21754C16.9536 3.3302 16.749 3.26321 16.4887 3.19928C16.2477 3.03009 16.2477 3.03009 16.0786 2.87115C15.7859 2.99533 15.5997 3.16689 15.3774 3.39218C15.3082 3.46197 15.2389 3.53176 15.1676 3.60367C15.096 3.67663 15.0244 3.74959 14.9506 3.82477C14.8778 3.89836 14.8049 3.97196 14.7298 4.04779C14.5501 4.22943 14.3708 4.41145 14.1918 4.59381C14.2207 4.63187 14.2496 4.66993 14.2794 4.70915C14.3169 4.7598 14.3544 4.81046 14.3931 4.86265C14.4304 4.91256 14.4678 4.96246 14.5063 5.01388C14.6302 5.21345 14.6678 5.39156 14.6533 5.62593C14.5698 5.94871 14.4127 6.23355 14.2559 6.52647C14.0439 6.92448 13.8998 7.32386 13.7753 7.7581C13.6996 7.95709 13.6996 7.95709 13.4536 8.20318C13.0475 8.24379 13.0475 8.24379 12.6332 8.28522C12.6332 9.17854 12.6332 10.0719 12.6332 10.9922C12.9039 11.0193 13.1746 11.0464 13.4536 11.0743C13.6814 11.3021 13.7399 11.3795 13.8378 11.6652C13.8614 11.7321 13.885 11.799 13.9094 11.868C13.9451 11.9725 13.9451 11.9725 13.9816 12.0792C14.1786 12.6547 14.1786 12.6547 14.4533 13.1956C14.6617 13.5567 14.6597 13.6993 14.602 14.1094C14.4666 14.2989 14.3313 14.4884 14.1918 14.6837C15.0445 15.5364 15.0445 15.5364 15.9145 16.4063C16.2282 16.2608 16.2282 16.2608 16.4323 16.1038C16.7343 15.9564 16.9 16.0097 17.227 16.0782C17.4331 16.1651 17.6282 16.2542 17.8268 16.355C18.3014 16.5869 18.7655 16.7653 19.2778 16.8985C19.359 16.9256 19.4402 16.9526 19.5239 16.9805C19.6051 17.5084 19.6051 17.5084 19.6879 18.0469C20.5542 18.0469 21.4204 18.0469 22.3129 18.0469C22.34 17.8033 22.3671 17.5597 22.395 17.3087C22.422 17.2004 22.4491 17.0921 22.477 16.9805C22.6183 16.9148 22.6183 16.9148 22.8102 16.8729C23.2213 16.7658 23.5972 16.6143 23.9843 16.4422C24.0692 16.4046 24.0692 16.4046 24.1558 16.3663C24.3723 16.2696 24.5867 16.1727 24.7953 16.0599C25.0473 15.9473 25.2518 16.0142 25.5121 16.0782C25.7531 16.2474 25.7531 16.2474 25.9223 16.4063C26.215 16.2821 26.4011 16.1106 26.6234 15.8853C26.6927 15.8155 26.7619 15.7457 26.8333 15.6738C26.9049 15.6008 26.9765 15.5279 27.0502 15.4527C27.1231 15.3791 27.1959 15.3055 27.271 15.2297C27.4507 15.048 27.63 14.866 27.809 14.6837C27.7656 14.6267 27.7656 14.6267 27.7213 14.5687C27.6837 14.5181 27.6462 14.4675 27.6075 14.4154C27.5513 14.3408 27.5513 14.3408 27.4941 14.2646C27.3691 14.0609 27.3378 13.877 27.3537 13.6394C27.4317 13.3179 27.5929 13.0414 27.7494 12.7518C27.9393 12.3724 28.0798 11.9805 28.2187 11.5802C28.3665 11.1647 28.3665 11.1647 28.5473 11.0743C28.818 11.0472 29.0887 11.0201 29.3676 10.9922C29.3676 10.0989 29.3676 9.20561 29.3676 8.28522C29.0969 8.25815 28.8262 8.23107 28.5473 8.20318C28.3195 7.97536 28.261 7.89798 28.1631 7.6123C28.1395 7.54537 28.1158 7.47843 28.0915 7.40947C28.0557 7.30494 28.0557 7.30494 28.0192 7.1983C27.8223 6.62279 27.8223 6.62279 27.5475 6.08191C27.3391 5.72079 27.3412 5.57813 27.3989 5.16803C27.6019 4.88379 27.6019 4.88379 27.809 4.59381C27.2405 4.02533 26.6721 3.45686 26.0864 2.87115C25.8956 2.96655 25.7064 3.06566 25.5224 3.17364C25.2123 3.30387 25.0976 3.27807 24.7739 3.19928C24.5713 3.11151 24.3761 3.02108 24.1791 2.92242C23.7029 2.69137 23.2364 2.51243 22.7231 2.37897C22.6419 2.35189 22.5607 2.32482 22.477 2.29693C22.4228 1.94502 22.3687 1.59311 22.3129 1.23053C21.4467 1.23053 20.5804 1.23053 19.6879 1.23053ZM9.79959 12.5957C9.55668 12.9003 9.48492 13.2085 9.40845 13.5848C9.39318 13.6539 9.37792 13.7231 9.3622 13.7943C9.31243 14.0215 9.26474 14.249 9.21709 14.4767C9.18285 14.6352 9.14849 14.7937 9.11401 14.9522C9.04221 15.2837 8.97135 15.6154 8.90124 15.9472C8.81135 16.3726 8.71992 16.7977 8.62788 17.2227C8.5401 17.6283 8.453 18.034 8.36601 18.4398C8.34106 18.5559 8.34106 18.5559 8.3156 18.6743C8.26871 18.8932 8.2223 19.1121 8.17605 19.3311C8.16213 19.3959 8.1482 19.4607 8.13384 19.5274C8.07507 19.8081 8.03949 20.0556 8.03949 20.3438C8.14135 20.3443 8.24321 20.3448 8.34815 20.3453C9.30775 20.35 10.2673 20.3559 11.2269 20.3631C11.7202 20.3668 12.2136 20.37 12.7069 20.3722C13.183 20.3744 13.659 20.3777 14.135 20.3818C14.3167 20.3832 14.4984 20.3841 14.6801 20.3846C14.9344 20.3854 15.1887 20.3877 15.443 20.3904C15.5183 20.3903 15.5935 20.3901 15.671 20.39C16.0612 20.3958 16.3415 20.4086 16.6528 20.6719C16.7505 20.9529 16.7572 21.1014 16.657 21.3816C16.4887 21.5743 16.4887 21.5743 16.1671 21.6284C16.033 21.6317 15.8989 21.6329 15.7648 21.6323C15.6942 21.6335 15.6235 21.6348 15.5507 21.636C15.325 21.6396 15.0994 21.6403 14.8737 21.6409C14.7207 21.6428 14.5677 21.6449 14.4147 21.6472C14.0396 21.6523 13.6646 21.655 13.2895 21.6563C13.958 23.7431 13.958 23.7431 14.6584 25.8194C14.6851 25.8968 14.7119 25.9742 14.7395 26.054C14.8334 26.3816 14.8334 26.3816 15.0121 26.6602C15.1668 26.6681 15.3218 26.6702 15.4767 26.6701C15.628 26.6702 15.628 26.6702 15.7824 26.6704C15.8952 26.6701 16.008 26.6698 16.1209 26.6695C16.2389 26.6695 16.3569 26.6695 16.4749 26.6696C16.7962 26.6696 17.1175 26.6691 17.4389 26.6685C17.7743 26.668 18.1098 26.668 18.4452 26.6679C19.0809 26.6676 19.7165 26.6669 20.3522 26.6661C21.0757 26.6652 21.7992 26.6648 22.5227 26.6643C24.0114 26.6635 25.5 26.662 26.9887 26.6602C27.2429 26.0336 27.2429 26.0336 27.4733 25.3981C27.4993 25.322 27.5252 25.2459 27.552 25.1676C27.5922 25.0489 27.5922 25.0489 27.6331 24.9279C27.6616 24.8443 27.69 24.7607 27.7194 24.6745C27.779 24.4993 27.8385 24.3241 27.8978 24.1488C27.9888 23.8804 28.0802 23.612 28.1716 23.3437C28.2297 23.1728 28.2877 23.0019 28.3457 22.831C28.373 22.751 28.4003 22.6709 28.4283 22.5884C28.4536 22.5139 28.4788 22.4394 28.5047 22.3626C28.5269 22.2973 28.549 22.232 28.5718 22.1647C28.6255 21.9963 28.6693 21.8279 28.7114 21.6563C28.66 21.6561 28.6087 21.6559 28.5558 21.6557C27.307 21.6509 26.0583 21.6447 24.8095 21.637C24.2057 21.6333 23.6018 21.63 22.9979 21.6279C22.4716 21.626 21.9454 21.6233 21.4191 21.6195C21.1404 21.6175 20.8617 21.616 20.583 21.6155C20.272 21.6147 19.9611 21.6124 19.6502 21.6097C19.5575 21.6099 19.4648 21.61 19.3693 21.6101C19.2847 21.6091 19.2002 21.608 19.1131 21.607C19.0027 21.6064 19.0027 21.6064 18.8901 21.6058C18.6637 21.5675 18.5899 21.514 18.4575 21.3282C18.4255 20.9699 18.4195 20.811 18.6215 20.5079C18.9099 20.4117 19.1701 20.4133 19.4702 20.4129C19.5321 20.4125 19.5939 20.4121 19.6576 20.4116C19.8655 20.4104 20.0733 20.4097 20.2811 20.409C20.4299 20.4082 20.5786 20.4074 20.7273 20.4065C21.1317 20.4043 21.5361 20.4026 21.9404 20.401C22.3628 20.3992 22.7852 20.3969 23.2076 20.3947C24.0077 20.3906 24.8077 20.3869 25.6078 20.3834C26.5186 20.3793 27.4294 20.3748 28.3401 20.3703C30.2139 20.361 32.0876 20.3522 33.9614 20.3438C33.9131 19.8584 33.8441 19.3886 33.741 18.912C33.7272 18.8471 33.7135 18.7822 33.6993 18.7153C33.6542 18.5032 33.6085 18.2912 33.5627 18.0793C33.547 18.0064 33.5313 17.9335 33.5152 17.8583C33.4322 17.4731 33.3487 17.088 33.2648 16.703C33.1785 16.3063 33.094 15.9093 33.0098 15.5122C32.9444 15.2057 32.8778 14.8994 32.8109 14.5932C32.7791 14.447 32.7478 14.3006 32.7171 14.1542C32.6739 13.9493 32.629 13.745 32.5836 13.5406C32.5653 13.4506 32.5653 13.4506 32.5466 13.3589C32.4479 12.928 32.2967 12.6946 31.9926 12.3868C31.4754 12.1514 30.9158 12.2042 30.3571 12.2125C30.2143 12.2136 30.2143 12.2136 30.0686 12.2147C29.8349 12.2166 29.6013 12.2193 29.3676 12.2227C29.3399 12.29 29.3122 12.3572 29.2837 12.4265C29.2471 12.5149 29.2105 12.6033 29.1728 12.6944C29.1185 12.8257 29.1185 12.8257 29.0632 12.9597C29.0006 13.1063 28.9346 13.2516 28.8616 13.3933C28.7811 13.5329 28.7811 13.5329 28.7985 13.6942C28.8714 13.8853 28.8714 13.8853 29.0856 14.0479C29.2856 14.2735 29.2856 14.2735 29.3471 14.5862C29.313 15.0356 29.0085 15.272 28.7114 15.586C28.6716 15.6282 28.6318 15.6704 28.5908 15.7139C28.3047 16.0166 28.0149 16.3155 27.7228 16.6123C27.6192 16.7181 27.5162 16.8245 27.4138 16.9314C27.2642 17.0875 27.1128 17.2416 26.9608 17.3955C26.9158 17.4433 26.8707 17.491 26.8243 17.5402C26.4829 17.8799 26.2419 17.9604 25.7582 17.9649C25.5679 17.8415 25.5679 17.8415 25.4199 17.6727C25.2795 17.4987 25.2795 17.4987 25.102 17.3907C24.8592 17.4357 24.8592 17.4357 24.6098 17.5547C24.5229 17.5896 24.436 17.6245 24.3464 17.6605C24.2608 17.6967 24.1751 17.7328 24.0869 17.7701C23.9999 17.8067 23.913 17.8433 23.8235 17.8809C23.7581 17.9087 23.6928 17.9364 23.6254 17.9649C23.6233 18.0262 23.6212 18.0876 23.619 18.1508C23.6144 18.2315 23.6097 18.3123 23.6049 18.3956C23.6011 18.4755 23.5973 18.5555 23.5934 18.6378C23.5309 18.9247 23.4418 19.0121 23.2153 19.1954C23.0099 19.237 23.0099 19.237 22.7766 19.2378C22.689 19.2389 22.6014 19.2399 22.5111 19.241C22.417 19.2403 22.3228 19.2396 22.2258 19.239C22.0802 19.2394 22.0802 19.2394 21.9316 19.2399C21.7264 19.2401 21.5212 19.2395 21.316 19.2381C21.0016 19.2364 20.6874 19.2381 20.373 19.2402C20.1737 19.24 19.9744 19.2396 19.7751 19.239C19.6809 19.2396 19.5867 19.2403 19.4897 19.241C19.4021 19.2399 19.3145 19.2389 19.2243 19.2378C19.1473 19.2376 19.0703 19.2373 18.991 19.237C18.7234 19.1828 18.6254 19.0784 18.4575 18.8672C18.4075 18.6378 18.4075 18.6378 18.3959 18.3956C18.3913 18.3148 18.3866 18.234 18.3818 18.1508C18.3797 18.0894 18.3776 18.0281 18.3754 17.9649C18.1642 17.8642 17.9523 17.7654 17.7397 17.6675C17.6798 17.6388 17.62 17.61 17.5583 17.5804C17.2254 17.4171 17.2254 17.4171 16.8707 17.4416C16.7447 17.5465 16.6265 17.6606 16.5092 17.7752C16.2237 17.9783 16.1051 18.001 15.7647 17.9454C15.4066 17.8198 15.1721 17.5397 14.9151 17.2705C14.8543 17.2091 14.7935 17.1477 14.7309 17.0845C14.5378 16.8888 14.3469 16.6912 14.1559 16.4935C14.0254 16.3607 13.8947 16.2281 13.7639 16.0956C13.5259 15.8535 13.2882 15.6112 13.0522 15.3672C13.0048 15.3182 12.9575 15.2693 12.9086 15.2189C12.6974 14.9816 12.6794 14.7593 12.6794 14.4449C12.7349 14.1798 12.8973 14.064 13.1078 13.906C13.2286 13.7837 13.2286 13.7837 13.1943 13.5964C13.1134 13.3319 13.0207 13.0753 12.9204 12.8174C12.884 12.7231 12.8476 12.6288 12.8101 12.5316C12.7368 12.3159 12.7368 12.3159 12.6332 12.2227C12.3022 12.2018 11.9702 12.2075 11.6386 12.2073C11.546 12.2063 11.4533 12.2053 11.3579 12.2043C10.5035 12.1783 10.5035 12.1783 9.79959 12.5957ZM2.37933 18.7852C2.30904 19.1087 2.39294 19.4087 2.5607 19.6901C2.83758 20.0359 3.15292 20.3055 3.61014 20.3653C3.79913 20.3722 3.98661 20.3715 4.17569 20.3678C4.27843 20.3673 4.27843 20.3673 4.38324 20.3668C4.60056 20.3654 4.8178 20.3623 5.0351 20.3592C5.18303 20.358 5.33096 20.3568 5.4789 20.3558C5.84026 20.3531 6.20159 20.3489 6.56293 20.3438C6.56961 20.1216 6.57447 19.8996 6.57831 19.6773C6.58037 19.6149 6.58243 19.5525 6.58456 19.4882C6.5898 19.0827 6.54285 18.8084 6.31683 18.4571C5.88838 18.2429 5.20315 18.3493 4.72598 18.3463C4.56676 18.345 4.40756 18.3427 4.24837 18.3396C4.01872 18.3351 3.78918 18.3333 3.55949 18.3321C3.48856 18.3303 3.41762 18.3284 3.34454 18.3265C2.88287 18.3281 2.67014 18.3953 2.37933 18.7852ZM35.52 18.7032C35.4459 18.9253 35.4282 19.0508 35.4299 19.2784C35.4302 19.3405 35.4304 19.4026 35.4307 19.4666C35.4314 19.5311 35.4321 19.5955 35.4328 19.6619C35.4332 19.7273 35.4335 19.7927 35.4339 19.8601C35.4349 20.0213 35.4364 20.1826 35.4379 20.3438C35.8698 20.354 36.3017 20.3614 36.7337 20.3663C36.8804 20.3684 37.0271 20.3712 37.1738 20.3748C37.3856 20.3798 37.5973 20.3821 37.8091 20.3839C37.9063 20.387 37.9063 20.387 38.0055 20.3903C38.6014 20.3906 38.9812 20.1461 39.4113 19.7491C39.5836 19.4458 39.6843 19.1343 39.6215 18.7852C39.4567 18.5644 39.3234 18.401 39.0465 18.3369C38.8456 18.3221 38.6485 18.3204 38.4471 18.3235C38.3738 18.3233 38.3005 18.3231 38.225 18.3229C38.0705 18.323 37.916 18.324 37.7615 18.3261C37.5251 18.3289 37.2889 18.3278 37.0524 18.3262C36.9021 18.3268 36.7518 18.3276 36.6014 18.3286C36.5308 18.3282 36.4603 18.3278 36.3875 18.3274C35.9884 18.3352 35.7627 18.3522 35.52 18.7032ZM14.4379 27.9727C14.329 28.2117 14.329 28.2117 14.4328 28.4136C14.7251 28.7857 15.1219 29.0277 15.5864 29.1212C15.7349 29.1289 15.8837 29.1322 16.0325 29.1327C16.1231 29.1331 16.2137 29.1336 16.3071 29.1341C16.4061 29.1342 16.5051 29.1343 16.6072 29.1344C16.7118 29.1348 16.8164 29.1352 16.9242 29.1356C17.211 29.1367 17.4977 29.1372 17.7845 29.1376C17.9639 29.1378 18.1432 29.1382 18.3226 29.1385C18.8843 29.1396 19.446 29.1404 20.0077 29.1407C20.6551 29.1411 21.3024 29.1426 21.9498 29.1449C22.4509 29.1467 22.9519 29.1475 23.453 29.1476C23.7519 29.1477 24.0509 29.1482 24.3498 29.1497C24.6836 29.1513 25.0174 29.1509 25.3512 29.1504C25.4988 29.1515 25.4988 29.1515 25.6493 29.1527C26.2936 29.1495 26.7932 29.1043 27.3066 28.6802C27.4737 28.4738 27.5658 28.3066 27.645 28.0547C27.5569 27.9482 27.5569 27.9482 27.3479 27.9626C27.2028 27.9627 27.2028 27.9627 27.0548 27.9628C26.9743 27.9627 26.9743 27.9627 26.8922 27.9626C26.711 27.9625 26.5299 27.963 26.3488 27.9634C26.2195 27.9634 26.0901 27.9634 25.9608 27.9634C25.6086 27.9633 25.2565 27.9638 24.9043 27.9644C24.5367 27.9649 24.169 27.965 23.8014 27.9651C23.1047 27.9653 22.408 27.966 21.7114 27.9668C20.9184 27.9677 20.1255 27.9682 19.3326 27.9686C17.701 27.9694 16.0695 27.9709 14.4379 27.9727ZM13.7817 32.8946C13.5857 33.3443 13.5857 33.3443 13.4218 33.8062C13.4041 33.8629 13.3864 33.9195 13.3682 33.9778C13.3507 34.0349 13.3332 34.0919 13.3151 34.1507C13.2967 34.2093 13.2782 34.268 13.2592 34.3284C13.1601 34.6312 13.1601 34.6312 13.1254 34.9454C13.748 34.9454 14.3707 34.9454 15.0121 34.9454C15.0663 34.7288 15.1204 34.5122 15.1762 34.2891C15.392 34.0733 15.487 34.1041 15.7881 34.1031C15.9308 34.1021 15.9308 34.1021 16.0764 34.101C16.1812 34.1011 16.2861 34.1012 16.3942 34.1012C16.5053 34.1007 16.6165 34.1002 16.7276 34.0996C17.03 34.0981 17.3323 34.0977 17.6347 34.0976C17.8869 34.0975 18.1391 34.0969 18.3912 34.0963C18.9861 34.0949 19.5809 34.0945 20.1757 34.0947C20.7898 34.0948 21.404 34.093 22.0181 34.0904C22.5449 34.0883 23.0717 34.0874 23.5986 34.0875C23.9134 34.0876 24.2283 34.0871 24.5431 34.0854C24.8392 34.0838 25.1352 34.0837 25.4313 34.0849C25.592 34.0852 25.7527 34.0838 25.9134 34.0824C26.0087 34.0831 26.1041 34.0838 26.2023 34.0845C26.2854 34.0844 26.3684 34.0843 26.454 34.0842C26.6606 34.1251 26.6606 34.1251 26.8071 34.2609C26.9067 34.4532 26.9067 34.4532 26.9887 34.9454C27.6113 34.9454 28.2339 34.9454 28.8754 34.9454C28.6727 34.1994 28.6727 34.1994 28.455 33.4586C28.4141 33.3237 28.4141 33.3237 28.3723 33.1862C28.3211 32.9844 28.3211 32.9844 28.2192 32.8946C28.0333 32.8866 27.8472 32.8846 27.6612 32.8847C27.6022 32.8847 27.5432 32.8846 27.4823 32.8845C27.2831 32.8844 27.0838 32.8848 26.8845 32.8853C26.7423 32.8853 26.6 32.8853 26.4578 32.8852C26.0704 32.8852 25.6829 32.8857 25.2955 32.8863C24.8911 32.8868 24.4867 32.8868 24.0822 32.8869C23.3158 32.8872 22.5495 32.8879 21.7831 32.8887C20.9108 32.8896 20.0385 32.89 19.1662 32.8905C17.3714 32.8913 15.5765 32.8928 13.7817 32.8946ZM16.3246 35.3555C16.3246 36.0323 16.3246 36.709 16.3246 37.4063C19.4107 37.4063 22.4967 37.4063 25.6762 37.4063C25.6762 36.7295 25.6762 36.0528 25.6762 35.3555C22.5902 35.3555 19.5042 35.3555 16.3246 35.3555ZM3.03558 38.7188C3.03558 39.3144 3.03558 39.9099 3.03558 40.5235C3.32121 40.8091 3.36567 40.8005 3.74999 40.8014C3.84608 40.8022 3.94216 40.803 4.04116 40.8038C4.14498 40.8033 4.2488 40.8028 4.35577 40.8023C4.51551 40.8026 4.51551 40.8026 4.67848 40.803C4.90384 40.8033 5.12917 40.8028 5.35453 40.8017C5.64335 40.8003 5.93212 40.8011 6.22095 40.8026C6.49644 40.8037 6.77193 40.8029 7.04742 40.8023C7.15125 40.8028 7.25507 40.8033 7.36204 40.8038C7.50617 40.8026 7.50617 40.8026 7.65321 40.8014C7.7379 40.8012 7.82259 40.801 7.90984 40.8008C8.15369 40.7863 8.15369 40.7863 8.36761 40.5235C8.36761 39.9279 8.36761 39.3324 8.36761 38.7188C6.60804 38.7188 4.84847 38.7188 3.03558 38.7188ZM33.6332 38.7188C33.6332 39.3144 33.6332 39.9099 33.6332 40.5235C33.9189 40.8091 33.9633 40.8005 34.3476 40.8014C34.4437 40.8022 34.5398 40.803 34.6388 40.8038C34.7426 40.8033 34.8465 40.8028 34.9534 40.8023C35.1132 40.8026 35.1132 40.8026 35.2761 40.803C35.5015 40.8033 35.7268 40.8028 35.9522 40.8017C36.241 40.8003 36.5298 40.8011 36.8186 40.8026C37.0941 40.8037 37.3696 40.8029 37.6451 40.8023C37.7489 40.8028 37.8527 40.8033 37.9597 40.8038C38.1038 40.8026 38.1038 40.8026 38.2509 40.8014C38.3356 40.8012 38.4202 40.801 38.5075 40.8008C38.7513 40.7863 38.7513 40.7863 38.9653 40.5235C38.9653 39.9279 38.9653 39.3324 38.9653 38.7188C37.2057 38.7188 35.4461 38.7188 33.6332 38.7188Z" fill="#D8D8D8"/>
<path d="M24.1988 4.51169C24.3256 4.76531 24.305 4.9706 24.2809 5.24997C24.1287 5.46412 24.0198 5.5543 23.773 5.64187C23.459 5.66675 23.2279 5.55499 22.9479 5.42942C21.691 4.90056 20.4859 4.86132 19.1949 5.33201C17.8634 5.94214 17.1089 6.89037 16.5654 8.22553C16.171 9.3633 16.3616 10.6478 16.8394 11.7212C17.4182 12.8771 18.3395 13.6411 19.5589 14.0632C20.7412 14.4299 21.9584 14.3325 23.0808 13.8187C24.3255 13.1258 25.0467 12.1681 25.5113 10.8281C25.7994 9.75281 25.64 8.51596 25.1335 7.53884C24.9699 7.19829 24.9708 7.0189 25.0192 6.64451C25.2277 6.39915 25.3602 6.32934 25.6754 6.27024C25.9299 6.31796 26.0601 6.37824 26.2314 6.57369C26.4623 6.92566 26.6017 7.31608 26.7418 7.71091C26.7683 7.78239 26.7949 7.85388 26.8222 7.92753C27.2776 9.38987 27.0472 11.0566 26.3932 12.4123C25.6174 13.8749 24.3447 14.9269 22.7735 15.443C21.1343 15.9065 19.4715 15.7055 17.9776 14.8835C16.7816 14.1589 15.8203 13.1399 15.3395 11.8125C15.3073 11.7254 15.2752 11.6384 15.2421 11.5488C14.748 9.9962 14.9028 8.32272 15.6061 6.86496C16.3864 5.39383 17.6296 4.39576 19.1949 3.85544C20.8769 3.36479 22.7176 3.53539 24.1988 4.51169Z" fill="#D8D8D8"/>
<path d="M4.33829 25.4059C4.43171 25.4048 4.52513 25.4038 4.62138 25.4027C4.77135 25.4024 4.77135 25.4024 4.92435 25.4021C5.02855 25.4016 5.13275 25.401 5.2401 25.4005C5.46055 25.3996 5.68097 25.3992 5.90141 25.3993C6.18087 25.3993 6.46026 25.3971 6.7397 25.3942C7.00958 25.392 7.27946 25.3921 7.54935 25.3919C7.64816 25.3907 7.74698 25.3895 7.84879 25.3883C9.07277 25.3948 9.99635 25.7772 10.8892 26.6038C11.4836 27.2317 11.8376 27.991 11.9249 28.8494C11.8686 29.3466 11.6676 29.7478 11.3199 30.1055C10.8662 30.3701 10.5099 30.4435 9.9898 30.4481C9.88651 30.4492 9.78323 30.4502 9.67681 30.4513C9.56409 30.452 9.45137 30.4526 9.33865 30.4531C9.25286 30.4536 9.25286 30.4536 9.16534 30.4542C8.862 30.4559 8.55867 30.457 8.25532 30.4578C7.94479 30.4587 7.63429 30.4615 7.32377 30.4648C7.08271 30.467 6.84167 30.4676 6.6006 30.4679C6.48631 30.4683 6.37203 30.4693 6.25775 30.4708C5.31513 30.4827 4.36795 30.3845 3.60896 29.7773C3.5433 29.7289 3.47763 29.6805 3.40997 29.6306C3.1868 29.4389 3.05149 29.2573 2.89632 29.0083C2.84863 28.9332 2.80094 28.8581 2.7518 28.7808C2.38626 28.1086 2.32824 27.2713 2.51404 26.5281C2.72667 26.0573 3.10777 25.6917 3.58889 25.5069C3.85299 25.4303 4.06436 25.408 4.33829 25.4059ZM3.77303 26.9883C3.64523 27.4406 3.76177 27.8488 3.98323 28.2495C4.22184 28.6117 4.44528 28.7836 4.83943 28.957C4.8259 28.8809 4.81236 28.8048 4.79842 28.7263C4.70286 28.0408 4.74633 27.4099 4.92146 26.7422C4.79165 26.7355 4.66174 26.7308 4.53181 26.7268C4.45949 26.724 4.38716 26.7211 4.31264 26.7182C4.05674 26.7472 3.9513 26.8035 3.77303 26.9883ZM6.16731 27.2395C5.96822 27.5643 5.95621 27.8452 5.98787 28.2188C6.17496 28.5722 6.38449 28.8294 6.72615 29.0391C7.0626 29.1408 7.30932 29.1455 7.64388 29.0339C7.97666 28.8047 8.22261 28.5955 8.33698 28.204C8.40248 27.7856 8.36965 27.5092 8.12068 27.1523C7.75767 26.8166 7.47595 26.7124 6.97737 26.7188C6.62528 26.7675 6.39439 26.9811 6.16731 27.2395ZM9.59724 27.3164C9.59915 27.3848 9.60105 27.4532 9.60301 27.5237C9.61204 28.0865 9.58054 28.5777 9.43318 29.1211C9.57838 29.1278 9.72367 29.1325 9.86897 29.1365C9.94987 29.1393 10.0308 29.1422 10.1141 29.1451C10.3393 29.141 10.3393 29.141 10.4877 28.9971C10.5187 28.9568 10.5497 28.9165 10.5816 28.875C10.3853 28.2059 10.16 27.7519 9.59724 27.3164Z" fill="#D8D8D8"/>
<path d="M34.4413 25.3862C34.5975 25.3857 34.5975 25.3857 34.7569 25.3852C34.9754 25.385 35.1937 25.3854 35.4121 25.387C35.69 25.3888 35.9678 25.3878 36.2457 25.3858C36.5141 25.3843 36.7825 25.3854 37.0509 25.3862C37.1496 25.3855 37.2483 25.3848 37.35 25.3842C37.9853 25.3912 38.5546 25.4519 39.0364 25.9014C39.545 26.451 39.5825 27.0057 39.5641 27.7253C39.5218 28.4773 39.1519 29.0794 38.6364 29.6133C37.773 30.372 36.6896 30.4844 35.5843 30.4743C35.4678 30.4744 35.3514 30.4745 35.2349 30.4747C34.993 30.4748 34.7511 30.4738 34.5092 30.4719C34.2008 30.4696 33.8924 30.4698 33.584 30.4709C33.3443 30.4714 33.1047 30.4708 32.8651 30.4698C32.7514 30.4694 32.6377 30.4694 32.5239 30.4697C31.7202 30.4709 31.0403 30.4491 30.4333 29.8594C30.1424 29.4438 30.0416 29.0524 30.1052 28.5469C30.3558 27.4764 30.9734 26.5742 31.8791 25.9476C32.6852 25.4872 33.5282 25.38 34.4413 25.3862ZM33.8119 27.2396C33.6128 27.5644 33.6008 27.8452 33.6325 28.2188C33.8196 28.5722 34.0291 28.8295 34.3708 29.0391C34.7072 29.1408 34.954 29.1455 35.2885 29.034C35.6213 28.8047 35.8672 28.5956 35.9816 28.2041C36.0471 27.7857 36.0143 27.5093 35.7653 27.1524C35.4023 26.8166 35.1206 26.7124 34.622 26.7189C34.2699 26.7675 34.039 26.9812 33.8119 27.2396ZM37.0778 26.7422C37.1049 26.8455 37.132 26.9487 37.1598 27.055C37.3034 27.7061 37.3017 28.3274 37.0778 28.9571C37.593 28.7952 37.9134 28.4416 38.1663 27.9698C38.278 27.6695 38.2831 27.3838 38.2263 27.0704C38.129 26.8432 38.129 26.8432 37.8981 26.7422C37.6224 26.7167 37.3538 26.7233 37.0778 26.7422ZM32.1979 27.4312C31.8226 27.8379 31.5492 28.2485 31.4177 28.793C31.4447 28.8742 31.4718 28.9555 31.4997 29.0391C31.7166 29.1476 31.8834 29.1291 32.1252 29.1263C32.2074 29.1255 32.2897 29.1248 32.3745 29.124C32.4377 29.1231 32.5009 29.1221 32.5661 29.1212C32.5255 28.9714 32.5255 28.9714 32.4841 28.8187C32.371 28.32 32.3879 27.825 32.402 27.3165C32.302 27.3071 32.302 27.3071 32.1979 27.4312Z" fill="#D8D8D8"/>
<path d="M32.5296 31.5675C32.5935 31.567 32.6574 31.5664 32.7232 31.5659C32.9353 31.5642 33.1474 31.5633 33.3594 31.5625C33.4681 31.562 33.4681 31.562 33.5789 31.5615C33.9626 31.5597 34.3462 31.5586 34.7298 31.5578C35.1255 31.5569 35.5212 31.5541 35.917 31.5508C36.2216 31.5487 36.5263 31.548 36.8309 31.5477C36.9767 31.5473 37.1226 31.5463 37.2684 31.5448C37.473 31.5428 37.6775 31.5429 37.8821 31.5435C37.9718 31.5419 37.9718 31.5419 38.0633 31.5403C38.5161 31.5449 38.7637 31.662 39.1289 31.9101C39.5024 32.3131 39.5528 32.6329 39.5586 33.1653C39.5592 33.2239 39.5599 33.2824 39.5606 33.3428C39.5617 33.4667 39.5626 33.5906 39.5632 33.7145C39.5642 33.8408 39.5658 33.967 39.5683 34.0932C39.5718 34.2761 39.5731 34.4589 39.5739 34.6418C39.5754 34.6978 39.5768 34.7537 39.5783 34.8112C39.5764 35.2218 39.4643 35.4479 39.2109 35.7656C38.7766 36.1771 38.3469 36.278 37.7586 36.2803C37.5967 36.2815 37.5967 36.2815 37.4316 36.2827C37.3149 36.2827 37.1981 36.2826 37.0813 36.2825C36.9603 36.2828 36.8394 36.2831 36.7184 36.2835C36.4654 36.2842 36.2123 36.2841 35.9593 36.2837C35.6364 36.2832 35.3135 36.2846 34.9907 36.2865C34.741 36.2877 34.4913 36.2878 34.2416 36.2875C34.1226 36.2876 34.0036 36.288 33.8846 36.2888C32.5256 36.2972 32.5256 36.2972 31.9306 35.8374C31.6885 35.528 31.5547 35.2303 31.4179 34.8633C31.3974 34.8084 31.377 34.7536 31.3559 34.6971C31.2859 34.507 31.2183 34.3162 31.1513 34.125C31.118 34.033 31.118 34.033 31.084 33.9392C30.9065 33.4157 30.8355 32.9192 31.0129 32.387C31.4221 31.7929 31.8219 31.5701 32.5296 31.5675ZM32.3203 32.8945C32.2254 33.179 32.2532 33.2434 32.3501 33.5178C32.3882 33.6265 32.3882 33.6265 32.4271 33.7374C32.4545 33.8129 32.4818 33.8883 32.51 33.9661C32.5495 34.0797 32.5495 34.0797 32.5899 34.1956C32.7243 34.6058 32.7243 34.6058 32.9765 34.9453C33.2011 34.9711 33.2011 34.9711 33.4669 34.9678C33.5699 34.9686 33.6728 34.9694 33.7788 34.9702C33.8916 34.9702 34.0044 34.9701 34.1173 34.97C34.2325 34.9703 34.3477 34.9706 34.463 34.971C34.7046 34.9717 34.9462 34.9716 35.1879 34.9712C35.4979 34.9707 35.808 34.9721 36.118 34.974C36.356 34.9752 36.594 34.9753 36.832 34.975C36.9464 34.9751 37.0607 34.9755 37.1751 34.9763C37.3347 34.9773 37.4944 34.9766 37.6541 34.9758C37.745 34.9759 37.836 34.9759 37.9297 34.976C38.0006 34.9659 38.0714 34.9557 38.1445 34.9453C38.3182 34.6847 38.329 34.6203 38.3274 34.3221C38.3273 34.2496 38.3271 34.1771 38.327 34.1024C38.326 34.0269 38.325 33.9515 38.3239 33.8738C38.3239 33.798 38.3238 33.7222 38.3238 33.6442C38.3354 33.2565 38.3354 33.2565 38.2265 32.8945C36.2775 32.8945 34.3284 32.8945 32.3203 32.8945Z" fill="#D8D8D8"/>
<path d="M4.56759 31.5533C4.691 31.552 4.8144 31.5497 4.93777 31.5466C5.11619 31.5421 5.29445 31.5403 5.47292 31.5391C5.57961 31.5375 5.6863 31.5359 5.79622 31.5342C6.07053 31.582 6.07053 31.582 6.27162 31.7715C6.39865 31.9922 6.39865 31.9922 6.40378 32.2844C6.29873 32.6243 6.20222 32.7047 5.90647 32.8945C5.66412 32.9318 5.66412 32.9318 5.39986 32.9266C5.30496 32.9255 5.21005 32.9245 5.11227 32.9234C5.01398 32.9206 4.91569 32.9179 4.81443 32.9151C4.66461 32.9128 4.66461 32.9128 4.51178 32.9106C4.26567 32.9067 4.0197 32.9013 3.77365 32.8945C3.77128 33.1919 3.76982 33.4893 3.76853 33.7866C3.76784 33.8713 3.76715 33.956 3.76644 34.0433C3.76618 34.1242 3.76592 34.2051 3.76564 34.2884C3.76521 34.3632 3.76478 34.4379 3.76434 34.5149C3.76144 34.7023 3.76144 34.7023 3.85569 34.8633C5.58819 34.8633 7.32069 34.8633 9.10569 34.8633C9.30406 34.3674 9.4794 33.9238 9.61838 33.4175C9.64587 33.3183 9.67337 33.2191 9.70169 33.1169C9.73151 33.0068 9.73151 33.0068 9.76194 32.8945C9.62695 32.8988 9.62695 32.8988 9.48925 32.9032C9.36994 32.9055 9.25063 32.9077 9.13132 32.9099C9.07216 32.912 9.01299 32.914 8.95204 32.9162C8.57564 32.9213 8.33711 32.8836 8.03928 32.6485C7.91247 32.3948 7.93316 32.1895 7.95725 31.9102C8.06748 31.7301 8.06748 31.7301 8.28537 31.582C8.58161 31.5326 8.87266 31.5363 9.17234 31.541C9.25212 31.5398 9.3319 31.5385 9.4141 31.5372C10.0017 31.5404 10.3803 31.6299 10.8101 32.054C11.1101 32.5218 11.1294 32.9232 11.0744 33.4688C10.9938 33.8163 10.8817 34.1482 10.7617 34.4839C10.7325 34.5703 10.7032 34.6567 10.6731 34.7457C10.3042 35.8139 10.3042 35.8139 9.89524 36.0322C9.84892 36.058 9.80261 36.0838 9.75489 36.1104C9.39412 36.2606 9.03367 36.2688 8.64704 36.271C8.53916 36.2718 8.43127 36.2726 8.32011 36.2734C8.2029 36.2738 8.08568 36.2742 7.96846 36.2745C7.90902 36.2747 7.84958 36.275 7.78834 36.2752C7.47377 36.2764 7.15921 36.2772 6.84464 36.2775C6.52111 36.278 6.1976 36.28 5.87408 36.2823C5.62403 36.2838 5.37398 36.2842 5.12393 36.2844C5.00473 36.2846 4.88552 36.2853 4.76633 36.2864C3.37151 36.2981 3.37151 36.2981 2.8665 35.8679C2.82918 35.8189 2.79185 35.7699 2.75339 35.7195C2.71458 35.6703 2.67578 35.6212 2.63579 35.5705C2.43128 35.2768 2.44519 35.0113 2.44161 34.6646C2.44095 34.6041 2.44028 34.5436 2.4396 34.4813C2.43847 34.353 2.43759 34.2248 2.43694 34.0965C2.43553 33.9013 2.43193 33.7062 2.42831 33.5111C2.42748 33.3863 2.42678 33.2615 2.42623 33.1368C2.42479 33.0788 2.42335 33.0209 2.42188 32.9612C2.42369 32.5443 2.52983 32.3141 2.78928 31.9922C3.33103 31.5033 3.8752 31.5589 4.56759 31.5533Z" fill="#D8D8D8"/>
<path d="M22.9074 7.106C23.6461 7.71299 23.9999 8.53412 24.1485 9.46408C24.194 10.2648 23.8605 11.0848 23.383 11.7123C22.777 12.3703 22.0691 12.7097 21.1826 12.7477C20.2551 12.7642 19.4682 12.5429 18.7854 11.8946C18.1744 11.2369 17.8491 10.3853 17.8596 9.48843C17.9642 8.50959 18.3623 7.80808 19.0955 7.17458C20.1997 6.28515 21.7451 6.32522 22.9074 7.106ZM19.4756 8.68959C19.1882 9.1103 19.1655 9.50972 19.2397 9.99728C19.3655 10.5783 19.7214 10.8936 20.1799 11.2383C20.5545 11.4651 20.9848 11.4531 21.4104 11.4024C21.9564 11.2478 22.3263 10.8785 22.6408 10.418C22.8744 9.88282 22.8196 9.39008 22.6357 8.84917C22.3517 8.42775 21.9214 7.98456 21.4104 7.87505C20.5574 7.78159 20.0132 8.02434 19.4756 8.68959Z" fill="#D8D8D8"/>
<path d="M19.5483 24.186C19.6192 24.1852 19.6901 24.1844 19.7632 24.1836C19.8396 24.1832 19.916 24.1829 19.9947 24.1825C20.1129 24.1818 20.1129 24.1818 20.2335 24.1811C20.4002 24.1803 20.5669 24.1798 20.7337 24.1795C20.9884 24.1787 21.2431 24.1761 21.4979 24.1735C21.6599 24.173 21.8219 24.1726 21.984 24.1723C22.06 24.1712 22.1361 24.1702 22.2145 24.1692C22.6136 24.1706 22.8939 24.1792 23.2151 24.4453C23.3321 24.6793 23.3226 24.8419 23.2971 25.1015C23.1866 25.3195 23.1866 25.3195 22.969 25.5117C22.6757 25.5744 22.3862 25.5691 22.0872 25.5661C21.9579 25.5667 21.9579 25.5667 21.8261 25.5673C21.644 25.5676 21.462 25.5669 21.28 25.5651C21.0012 25.563 20.7227 25.5651 20.444 25.5678C20.2671 25.5675 20.0902 25.567 19.9133 25.5661C19.8299 25.567 19.7465 25.5678 19.6606 25.5687C19.0848 25.5591 19.0848 25.5591 18.8146 25.3189C18.6795 25.0549 18.6597 24.9022 18.7034 24.6093C18.9126 24.2407 19.1428 24.1896 19.5483 24.186Z" fill="#D8D8D8"/>
</g>
<defs>
<clipPath id="clip0_263_9442">
<rect width="42" height="42" fill="white"/>
</clipPath>
</defs>
</svg>
