<svg width="42" height="42" viewBox="0 0 42 42" fill="none" xmlns="http://www.w3.org/2000/svg">
<path fill-rule="evenodd" clip-rule="evenodd" d="M20.9998 14.6628C22.3064 14.6628 23.3654 15.7217 23.3654 17.0285C23.3654 18.3351 22.3064 19.3943 20.9998 19.3943C19.6931 19.3943 18.6341 18.3351 18.6341 17.0285C18.6341 15.7217 19.6931 14.6628 20.9998 14.6628ZM15.0993 17.0285V17.4526L16.7314 17.6956C16.7773 18.005 16.8597 18.3007 16.9675 18.585L15.6769 19.612L16.101 20.3457L17.6369 19.7426C17.8294 19.981 18.0472 20.1988 18.2879 20.3914L17.6828 21.9273L18.4163 22.3513L19.4432 21.0607C19.7275 21.1709 20.0232 21.2511 20.3326 21.2991L20.5779 22.929H21.4237L21.669 21.2991C21.9762 21.2511 22.2742 21.1709 22.5561 21.0607L23.5854 22.3513L24.3166 21.9273L23.7138 20.3914C23.9521 20.1987 24.17 19.981 24.3624 19.7426L25.8984 20.3457L26.3224 19.612L25.0319 18.585C25.1419 18.3007 25.2221 18.0051 25.2702 17.6956L26.9023 17.4504V17.0285V16.6045L25.2702 16.3592C25.2221 16.052 25.1419 15.754 25.0319 15.4721L26.3224 14.4428L25.8984 13.7116L24.3624 14.3144C24.1699 14.076 23.9521 13.8582 23.7138 13.6658L24.3166 12.1299L23.5854 11.7058L22.5561 12.9963C22.2741 12.8862 21.9762 12.8062 21.669 12.758L21.4237 11.1259H20.5779L20.3326 12.758C20.0232 12.8062 19.7275 12.8862 19.4432 12.9963L18.4163 11.7058L17.6828 12.1299L18.2879 13.6658C18.0472 13.8582 17.8294 14.076 17.6369 14.3144L16.101 13.7116L15.6769 14.4428L16.9675 15.4721C16.8598 15.7541 16.7773 16.052 16.7314 16.3592L15.0993 16.6045V17.0285ZM33.2959 9.69761C33.4288 9.61976 33.6008 9.66554 33.6787 9.79851C33.7566 9.93361 33.7108 10.1056 33.5756 10.1835L31.07 11.63C30.9347 11.708 30.7628 11.6622 30.685 11.5292C30.607 11.394 30.6529 11.222 30.7882 11.1441L33.2959 9.69761ZM35.3934 16.9643C35.5492 16.9643 35.6754 17.0904 35.6754 17.2464C35.6754 17.4023 35.5493 17.5283 35.3934 17.5283H32.4981C32.3422 17.5283 32.2161 17.4023 32.2161 17.2464C32.2161 17.0904 32.3422 16.9643 32.4981 16.9643H35.3934ZM13.6712 4.73234C13.5933 4.59724 13.6391 4.42513 13.7721 4.34729C13.9073 4.26927 14.0793 4.31521 14.1572 4.4504L15.6036 6.95834C15.6815 7.09115 15.6357 7.26325 15.5028 7.3411C15.3676 7.41911 15.1956 7.37317 15.1176 7.23782L13.6712 4.73234ZM8.42397 10.1836C8.28879 10.1057 8.24285 9.9337 8.32086 9.79859C8.39879 9.66562 8.57073 9.61976 8.706 9.69769L11.2115 11.1441C11.3467 11.2221 11.3926 11.3941 11.3146 11.5293C11.2367 11.6623 11.0648 11.7082 10.9318 11.6301L8.42397 10.1836ZM6.60624 17.5282C6.45038 17.5282 6.32422 17.4022 6.32422 17.2463C6.32422 17.0903 6.4503 16.9643 6.60624 16.9643H9.50145C9.65731 16.9643 9.78339 17.0903 9.78339 17.2463C9.78339 17.4022 9.65731 17.5282 9.50145 17.5282H6.60624ZM20.516 2.41028C20.5183 2.25664 20.6444 2.13293 20.8004 2.13293C20.9539 2.13515 21.0777 2.26361 21.0777 2.41717L21.0433 4.88369C21.041 5.03955 20.915 5.16333 20.7591 5.16104C20.6055 5.16104 20.4794 5.03266 20.4817 4.87688L20.516 2.41028ZM13.4603 38.6635C13.3044 38.6635 13.1783 38.5376 13.1783 38.3816C13.1783 38.2257 13.3044 38.0996 13.4603 38.0996H23.7689C23.9225 38.0996 24.0509 38.2257 24.0509 38.3816C24.0509 38.5376 23.9225 38.6635 23.7689 38.6635H13.4603ZM18.8679 39.8671C18.712 39.8671 18.5859 39.7409 18.5859 39.5873C18.5859 39.4315 18.7119 39.3053 18.8679 39.3053H27.0493C27.2051 39.3053 27.3312 39.4314 27.3312 39.5873C27.3312 39.7409 27.2052 39.8671 27.0493 39.8671H18.8679ZM27.8859 39.8671C27.73 39.8671 27.6039 39.7409 27.6039 39.5873C27.6039 39.4315 27.7299 39.3053 27.8859 39.3053H28.9105C29.0641 39.3053 29.1902 39.4314 29.1902 39.5873C29.1902 39.7409 29.0641 39.8671 28.9105 39.8671H27.8859ZM11.4797 39.8167C11.3239 39.8167 11.1977 39.6906 11.1977 39.5347C11.1977 39.3787 11.3238 39.2526 11.4797 39.2526H15.356C15.5119 39.2526 15.638 39.3787 15.638 39.5347C15.638 39.6906 15.512 39.8167 15.356 39.8167H11.4797ZM14.7646 28.4879C14.8723 28.4879 14.9824 28.4168 15.019 28.3297C15.113 28.1394 14.9687 27.924 14.7646 27.924H14.2007C14.0952 27.924 13.9852 27.9928 13.9485 28.0822C13.8545 28.2701 13.999 28.4879 14.2007 28.4879H14.7646ZM27.2096 28.4879C27.3152 28.4879 27.4274 28.4168 27.4618 28.3297C27.5558 28.1394 27.4137 27.924 27.2096 27.924H26.6458C26.5403 27.924 26.4279 27.9928 26.3937 28.0822C26.2996 28.2701 26.4418 28.4879 26.6458 28.4879H27.2096ZM29.4631 28.4879C29.5685 28.4879 29.6808 28.4168 29.7153 28.3297C29.8093 28.1394 29.667 27.924 29.4631 27.924H28.8991C28.7937 27.924 28.6814 27.9928 28.6471 28.0822C28.553 28.2701 28.6951 28.4879 28.8991 28.4879H29.4631ZM11.9496 27.924C11.8419 27.924 11.7318 27.9928 11.6951 28.0822C11.6012 28.2701 11.7456 28.4879 11.9496 28.4879H12.5112C12.6189 28.4879 12.729 28.4168 12.7657 28.3297C12.8596 28.1394 12.7153 27.924 12.5112 27.924H11.9496ZM14.7646 27.0507C14.8723 27.0507 14.9824 26.9818 15.019 26.8924C15.113 26.7045 14.9687 26.4867 14.7646 26.4867H14.2007C14.0952 26.4867 13.9852 26.5555 13.9485 26.6449C13.8545 26.8329 13.999 27.0507 14.2007 27.0507H14.7646ZM27.2096 27.0507C27.3152 27.0507 27.4274 26.9818 27.4618 26.8924C27.5558 26.7045 27.4137 26.4867 27.2096 26.4867H26.6458C26.5403 26.4867 26.4279 26.5555 26.3937 26.6449C26.2996 26.8329 26.4418 27.0507 26.6458 27.0507H27.2096ZM29.4631 27.0507C29.5685 27.0507 29.6808 26.9818 29.7153 26.8924C29.8093 26.7045 29.667 26.4867 29.4631 26.4867H28.8991C28.7937 26.4867 28.6814 26.5555 28.6471 26.6449C28.553 26.8329 28.6951 27.0507 28.8991 27.0507H29.4631ZM11.9496 26.4867C11.8419 26.4867 11.7318 26.5555 11.6951 26.6449C11.6012 26.8329 11.7456 27.0507 11.9496 27.0507H12.5112C12.6189 27.0507 12.729 26.9818 12.7657 26.8924C12.8596 26.7045 12.7153 26.4867 12.5112 26.4867H11.9496ZM27.8423 4.4504C27.9203 4.31529 28.0923 4.26927 28.2275 4.34729C28.3604 4.42513 28.4063 4.59724 28.3307 4.73234L26.8819 7.23782C26.804 7.37309 26.632 7.41911 26.4991 7.3411C26.3639 7.26325 26.318 7.09115 26.396 6.95834L27.8423 4.4504ZM16.8828 31.3694H25.1191V33.3338H16.8828V31.3694ZM17.6622 35.296H24.3375V33.8977H17.6622V35.296ZM22.9941 35.86V37.2606H19.0054V35.86H22.9941ZM20.9998 7.92557C26.1368 7.92557 30.302 12.0907 30.302 17.2278C30.302 20.4142 28.6997 23.2269 26.2561 24.9027L24.5299 30.6221C24.5116 30.6817 24.5001 30.7435 24.4909 30.8054H17.5085C17.5016 30.7435 17.4901 30.6816 17.4718 30.6221L15.7434 24.9027C13.302 23.2269 11.6973 20.4142 11.6973 17.2278C11.6974 12.0908 15.8626 7.92557 20.9998 7.92557Z" fill="#D8D8D8"/>
</svg>
