<svg width="722" height="542" viewBox="0 0 722 542" fill="none" xmlns="http://www.w3.org/2000/svg">
<path fill-rule="evenodd" clip-rule="evenodd" d="M0.870952 4.79242e-05L2.32985e-05 0V0.884176V31.8303V32.7145V63.6607V64.5449V95.491V96.3752V127.321V128.206V159.152V160.036V190.982V191.866V222.812V223.697V254.643V255.527V286.473V287.357V318.303V319.188V350.134V351.018V381.964V382.848V413.794V414.679V445.625V446.509V477.455V478.339V509.285V510.17L0 541.116L2.32985e-05 542L721.129 542V541.116H722V4.79242e-05H721.129H690.647H689.776H659.293H658.422H627.94H627.069H596.586H595.715H565.233H564.362H533.879H533.008H502.526H501.655H471.173H470.302H439.819H438.948H408.466H407.595H377.112H376.241H345.759H344.888H314.405H313.534H283.052H282.181H251.698H250.828H220.345H219.474H188.992H188.121H157.638H156.767H126.285H125.414H94.9313H94.0603H63.5778H62.7069H32.2244H31.3535H0.870952ZM721.129 0.884224L690.647 0.884222V31.8304H721.129V0.884224ZM721.129 32.7146H690.647V63.6607H721.129V32.7146ZM721.129 64.5449H690.647V95.4911H721.129V64.5449ZM721.129 96.3752H690.647V127.321H721.129V96.3752ZM721.129 128.206H690.647V159.152H721.129V128.206ZM721.129 160.036H690.647V190.982H721.129V160.036ZM721.129 191.866H690.647V222.812H721.129V191.866ZM721.129 223.697H690.647V254.643H721.129V223.697ZM721.129 255.527H690.647V286.473H721.129V255.527ZM721.129 287.357H690.647V318.303H721.129V287.357ZM721.129 319.188H690.647V350.134H721.129V319.188ZM721.129 351.018H690.647V381.964H721.129V351.018ZM721.129 382.848H690.647V413.794H721.129V382.848ZM721.129 414.679H690.647V445.625H721.129V414.679ZM721.129 446.509H690.647V477.455H721.129V446.509ZM721.129 478.339H690.647V509.286H721.129V478.339ZM721.129 510.17V541.116H690.647V510.17H721.129ZM689.776 510.17V541.116H659.293V510.17H689.776ZM689.776 478.339V509.286H659.293V478.339H689.776ZM689.776 446.509V477.455H659.293V446.509H689.776ZM689.776 414.679V445.625H659.293V414.679H689.776ZM689.776 382.848V413.794H659.293V382.848H689.776ZM689.776 351.018V381.964H659.293V351.018H689.776ZM689.776 319.188V350.134H659.293V319.188H689.776ZM689.776 287.357V318.303H659.293V287.357H689.776ZM689.776 255.527V286.473H659.293V255.527H689.776ZM689.776 223.697V254.643H659.293V223.697H689.776ZM689.776 191.866V222.812H659.293V191.866H689.776ZM689.776 160.036V190.982H659.293V160.036H689.776ZM689.776 128.206V159.152H659.293V128.206H689.776ZM689.776 96.3752V127.321H659.293V96.3752H689.776ZM689.776 64.5449V95.4911H659.293V64.5449H689.776ZM689.776 32.7146V63.6607H659.293V32.7146H689.776ZM689.776 0.884222V31.8304H659.293V0.88422L689.776 0.884222ZM658.422 0.88422L627.94 0.884218V31.8304H658.422V0.88422ZM658.422 32.7146H627.94V63.6607H658.422V32.7146ZM658.422 64.5449H627.94V95.4911H658.422V64.5449ZM658.422 96.3752H627.94V127.321H658.422V96.3752ZM658.422 128.206H627.94V159.152H658.422V128.206ZM658.422 160.036H627.94V190.982H658.422V160.036ZM658.422 191.866H627.94V222.812H658.422V191.866ZM658.422 223.697H627.94V254.643H658.422V223.697ZM658.422 255.527H627.94V286.473H658.422V255.527ZM658.422 287.357H627.94V318.303H658.422V287.357ZM658.422 319.188H627.94V350.134H658.422V319.188ZM658.422 351.018H627.94V381.964H658.422V351.018ZM658.422 382.848H627.94V413.794H658.422V382.848ZM658.422 414.679H627.94V445.625H658.422V414.679ZM658.422 446.509H627.94V477.455H658.422V446.509ZM658.422 478.339H627.94V509.286H658.422V478.339ZM658.422 510.17H627.94V541.116H658.422V510.17ZM627.069 510.17V541.116H596.586V510.17H627.069ZM627.069 478.339V509.286H596.586V478.339H627.069ZM627.069 446.509V477.455H596.586V446.509H627.069ZM627.069 414.679V445.625H596.586V414.679H627.069ZM627.069 382.848V413.794H596.586V382.848H627.069ZM627.069 351.018V381.964H596.586V351.018H627.069ZM627.069 319.188V350.134H596.586V319.188H627.069ZM627.069 287.357V318.303H596.586V287.357H627.069ZM627.069 255.527V286.473H596.586V255.527H627.069ZM627.069 223.697V254.643H596.586V223.697H627.069ZM627.069 191.866V222.812H596.586V191.866H627.069ZM627.069 160.036V190.982H596.586V160.036H627.069ZM627.069 128.206V159.152H596.586V128.206H627.069ZM627.069 96.3752V127.321H596.586V96.3752H627.069ZM627.069 64.5449V95.4911H596.586V64.5449H627.069ZM627.069 32.7146V63.6607H596.586V32.7146H627.069ZM627.069 0.884218V31.8304H596.586V0.884216L627.069 0.884218ZM595.715 0.884216L565.233 0.884214V31.8304H595.715V0.884216ZM595.715 32.7146H565.233V63.6607H595.715V32.7146ZM595.715 64.5449H565.233V95.4911H595.715V64.5449ZM595.715 96.3752H565.233V127.321H595.715V96.3752ZM595.715 128.206H565.233V159.152H595.715V128.206ZM595.715 160.036H565.233V190.982H595.715V160.036ZM595.715 191.866H565.233V222.812H595.715V191.866ZM595.715 223.697H565.233V254.643H595.715V223.697ZM595.715 255.527H565.233V286.473H595.715V255.527ZM595.715 287.357H565.233V318.303H595.715V287.357ZM595.715 319.188H565.233V350.134H595.715V319.188ZM595.715 351.018H565.233V381.964H595.715V351.018ZM595.715 382.848H565.233V413.794H595.715V382.848ZM595.715 414.679H565.233V445.625H595.715V414.679ZM595.715 446.509H565.233V477.455H595.715V446.509ZM595.715 478.339H565.233V509.286H595.715V478.339ZM595.715 510.17H565.233V541.116H595.715V510.17ZM564.362 510.17V541.116H533.879V510.17H564.362ZM564.362 478.339V509.286H533.879V478.339H564.362ZM564.362 446.509V477.455H533.879V446.509H564.362ZM564.362 414.679V445.625H533.879V414.679H564.362ZM564.362 382.848V413.794H533.879V382.848H564.362ZM564.362 351.018V381.964H533.879V351.018H564.362ZM564.362 319.188V350.134H533.879V319.188H564.362ZM564.362 287.357V318.303H533.879V287.357H564.362ZM564.362 255.527V286.473H533.879V255.527H564.362ZM564.362 223.697V254.643H533.879V223.697H564.362ZM564.362 191.866V222.812H533.879V191.866H564.362ZM564.362 160.036V190.982H533.879V160.036H564.362ZM564.362 128.206V159.152H533.879V128.206H564.362ZM564.362 96.3752V127.321H533.879V96.3752H564.362ZM564.362 64.5449V95.491H533.879V64.5449H564.362ZM564.362 32.7146V63.6607H533.879V32.7146H564.362ZM564.362 0.884214V31.8304H533.879V0.884212L564.362 0.884214ZM533.008 541.116V510.17H502.526V541.116H533.008ZM501.655 541.116V510.17H471.173V541.116H501.655ZM470.302 541.116V510.17H439.819V541.116H470.302ZM438.948 541.116V510.17H408.466V541.116H438.948ZM407.595 541.116V510.17H377.112V541.116H407.595ZM376.241 541.116V510.17L345.759 510.17V541.116H376.241ZM344.888 541.116V510.17H314.405V541.116H344.888ZM313.534 541.116V510.17H283.052V541.116H313.534ZM282.181 541.116V510.17H251.698V541.116H282.181ZM250.827 541.116V510.17H220.345V541.116H250.827ZM219.474 541.116V510.17H188.992V541.116H219.474ZM188.121 541.116V510.17H157.638V541.116H188.121ZM156.767 541.116V510.17H126.285V541.116H156.767ZM125.414 541.116V510.17H94.9312V541.116H125.414ZM94.0603 541.116V510.17H63.5778V541.116H94.0603ZM62.7069 541.116V510.17H32.2244V541.116H62.7069ZM31.3534 541.116V510.17H0.87093L0.870929 541.116H31.3534ZM533.008 478.339V509.286H502.526V478.339H533.008ZM533.008 446.509V477.455H502.526V446.509H533.008ZM533.008 414.679V445.625H502.526V414.679H533.008ZM533.008 382.848V413.794H502.526V382.848H533.008ZM533.008 351.018V381.964H502.526V351.018H533.008ZM533.008 319.188V350.134H502.526V319.188H533.008ZM533.008 287.357V318.303H502.526V287.357H533.008ZM533.008 255.527V286.473H502.526V255.527H533.008ZM533.008 223.697V254.643H502.526V223.697H533.008ZM533.008 191.866V222.812H502.526V191.866H533.008ZM533.008 160.036V190.982H502.526V160.036H533.008ZM533.008 128.206V159.152H502.526V128.206H533.008ZM533.008 96.3752V127.321H502.526V96.3752H533.008ZM533.008 64.5449V95.491H502.526V64.5449H533.008ZM533.008 32.7146V63.6607H502.526V32.7146H533.008ZM533.008 0.884212V31.8304H502.526V0.88421L533.008 0.884212ZM501.655 509.286V478.339H471.173V509.286H501.655ZM470.302 509.286V478.339H439.819V509.286H470.302ZM438.948 509.286V478.339H408.466V509.286H438.948ZM407.595 509.286V478.339H377.112V509.286H407.595ZM376.241 509.286V478.339L345.759 478.339V509.285L376.241 509.286ZM344.888 509.285V478.339H314.405V509.285H344.888ZM313.534 509.285V478.339H283.052V509.285H313.534ZM282.181 509.285V478.339H251.698V509.285H282.181ZM250.828 509.285V478.339H220.345V509.285H250.828ZM219.474 509.285V478.339H188.992V509.285H219.474ZM188.121 509.285V478.339H157.638V509.285H188.121ZM156.767 509.285V478.339H126.285V509.285H156.767ZM125.414 509.285V478.339H94.9313V509.285H125.414ZM94.0603 509.285V478.339H63.5778V509.285H94.0603ZM62.7069 509.285V478.339H32.2244V509.285H62.7069ZM31.3534 509.285V478.339H0.870932L0.87093 509.285H31.3534ZM501.655 446.509V477.455H471.173V446.509H501.655ZM501.655 414.679V445.625H471.173V414.679H501.655ZM501.655 382.848V413.794H471.173V382.848H501.655ZM501.655 351.018V381.964H471.173V351.018H501.655ZM501.655 319.188V350.134H471.173V319.188H501.655ZM501.655 287.357V318.303H471.173V287.357H501.655ZM501.655 255.527V286.473H471.173V255.527H501.655ZM501.655 223.697V254.643H471.173V223.697H501.655ZM501.655 191.866V222.812H471.173V191.866H501.655ZM501.655 160.036V190.982H471.173V160.036H501.655ZM501.655 128.206V159.152H471.173V128.206H501.655ZM501.655 96.3752V127.321H471.173V96.3752H501.655ZM501.655 64.5449V95.491H471.173V64.5449H501.655ZM501.655 32.7146V63.6607H471.173V32.7146H501.655ZM501.655 0.884209V31.8304H471.173V0.884207L501.655 0.884209ZM470.302 477.455V446.509H439.819V477.455H470.302ZM438.948 477.455V446.509H408.466V477.455H438.948ZM407.595 477.455V446.509H377.112V477.455H407.595ZM376.241 477.455V446.509H345.759V477.455L376.241 477.455ZM344.888 477.455V446.509H314.405V477.455H344.888ZM313.534 477.455V446.509H283.052V477.455H313.534ZM282.181 477.455V446.509H251.698V477.455H282.181ZM250.828 477.455V446.509H220.345V477.455H250.828ZM219.474 477.455V446.509H188.992V477.455H219.474ZM188.121 477.455V446.509L157.638 446.509V477.455H188.121ZM156.767 477.455V446.509H126.285V477.455H156.767ZM125.414 477.455V446.509H94.9313V477.455H125.414ZM94.0603 477.455V446.509H63.5778V477.455H94.0603ZM62.7069 477.455V446.509H32.2244V477.455H62.7069ZM31.3534 477.455V446.509H0.870933L0.870932 477.455H31.3534ZM470.302 414.679V445.625H439.819V414.679H470.302ZM470.302 382.848V413.794H439.819V382.848H470.302ZM470.302 351.018V381.964H439.819V351.018H470.302ZM470.302 319.188V350.134H439.819V319.188H470.302ZM470.302 287.357V318.303H439.819V287.357H470.302ZM470.302 255.527V286.473H439.819L439.819 255.527H470.302ZM470.302 223.697V254.643H439.819V223.697H470.302ZM470.302 191.866V222.812H439.819V191.866H470.302ZM470.302 160.036V190.982H439.819V160.036H470.302ZM470.302 128.206V159.152H439.819V128.206H470.302ZM470.302 96.3752V127.321H439.819V96.3752H470.302ZM470.302 64.5449V95.491H439.819V64.5449H470.302ZM470.302 32.7146V63.6607H439.819V32.7146H470.302ZM470.302 0.884207V31.8304H439.819V0.884205L470.302 0.884207ZM438.948 445.625V414.679H408.466V445.625H438.948ZM407.595 445.625V414.679H377.112V445.625H407.595ZM376.241 445.625V414.679H345.759V445.625H376.241ZM344.888 445.625V414.679H314.405V445.625H344.888ZM313.534 445.625V414.679H283.052V445.625H313.534ZM282.181 445.625V414.679H251.698V445.625H282.181ZM250.828 445.625V414.679H220.345V445.625H250.828ZM219.474 445.625V414.679H188.992V445.625H219.474ZM188.121 445.625V414.679L157.638 414.679V445.625L188.121 445.625ZM156.767 445.625V414.679H126.285V445.625H156.767ZM125.414 445.625V414.679H94.9313V445.625H125.414ZM94.0603 445.625V414.679H63.5778V445.625H94.0603ZM62.7069 445.625V414.679H32.2244V445.625H62.7069ZM31.3534 445.625V414.679H0.870934L0.870933 445.625H31.3534ZM438.948 382.848V413.794H408.466V382.848H438.948ZM438.948 351.018V381.964H408.466V351.018H438.948ZM438.948 319.188V350.134H408.466V319.188H438.948ZM438.948 287.357V318.303H408.466V287.357H438.948ZM438.948 255.527L438.948 286.473H408.466L408.466 255.527H438.948ZM438.948 223.697V254.643H408.466V223.697H438.948ZM438.948 191.866V222.812H408.466V191.866H438.948ZM438.948 160.036V190.982H408.466V160.036H438.948ZM438.948 128.206V159.152H408.466V128.206H438.948ZM438.948 96.3752V127.321H408.466V96.3752H438.948ZM438.948 64.5449V95.491H408.466V64.5449H438.948ZM438.948 32.7145V63.6607H408.466V32.7145H438.948ZM438.948 0.884205V31.8304H408.466V0.884203L438.948 0.884205ZM407.595 413.794V382.848H377.112V413.794H407.595ZM376.241 413.794V382.848H345.759V413.794H376.241ZM344.888 413.794V382.848H314.405V413.794H344.888ZM313.534 413.794V382.848H283.052V413.794H313.534ZM282.181 413.794V382.848H251.698V413.794H282.181ZM250.828 413.794V382.848H220.345V413.794H250.828ZM219.474 413.794V382.848H188.992V413.794H219.474ZM188.121 413.794V382.848L157.638 382.848V413.794L188.121 413.794ZM156.767 413.794V382.848H126.285V413.794H156.767ZM125.414 413.794V382.848H94.9313V413.794H125.414ZM94.0603 413.794V382.848H63.5778V413.794H94.0603ZM62.7069 413.794V382.848H32.2244V413.794H62.7069ZM31.3534 413.794V382.848H0.870936L0.870934 413.794H31.3534ZM407.595 351.018V381.964H377.112V351.018H407.595ZM407.595 319.188V350.134H377.112V319.188H407.595ZM407.595 287.357V318.303H377.112V287.357H407.595ZM407.595 255.527L407.595 286.473H377.112V255.527H407.595ZM407.595 223.697V254.643H377.112V223.697H407.595ZM407.595 191.866V222.812H377.112V191.866H407.595ZM407.595 160.036V190.982H377.112V160.036H407.595ZM407.595 128.206V159.152H377.112V128.206H407.595ZM407.595 96.3752V127.321H377.112V96.3752H407.595ZM407.595 64.5449V95.491H377.112V64.5449H407.595ZM407.595 32.7145V63.6607H377.112V32.7145H407.595ZM407.595 0.884203V31.8304H377.112V0.884201L407.595 0.884203ZM376.241 381.964V351.018H345.759V381.964H376.241ZM344.888 381.964V351.018H314.405V381.964H344.888ZM313.534 381.964V351.018H283.052V381.964H313.534ZM282.181 381.964V351.018H251.698V381.964H282.181ZM250.828 381.964V351.018H220.345V381.964H250.828ZM219.474 381.964V351.018H188.992V381.964H219.474ZM188.121 381.964V351.018L157.638 351.018V381.964L188.121 381.964ZM156.767 381.964V351.018H126.285V381.964H156.767ZM125.414 381.964V351.018H94.9313V381.964H125.414ZM94.0603 381.964V351.018H63.5778V381.964H94.0603ZM62.7069 381.964V351.018H32.2244V381.964H62.7069ZM31.3534 381.964V351.018H0.870937L0.870936 381.964H31.3534ZM376.241 319.188V350.134H345.759V319.188H376.241ZM376.241 287.357V318.303H345.759V287.357H376.241ZM376.241 255.527V286.473H345.759L345.759 255.527H376.241ZM376.241 223.697V254.643H345.759V223.697H376.241ZM376.241 191.866V222.812H345.759V191.866H376.241ZM376.241 160.036V190.982H345.759V160.036H376.241ZM376.241 128.206V159.152H345.759V128.206H376.241ZM376.241 96.3752V127.321H345.759V96.3752H376.241ZM376.241 64.5449V95.491H345.759V64.5449H376.241ZM376.241 32.7145V63.6607H345.759V32.7145H376.241ZM376.241 0.884201V31.8304H345.759V0.884199L376.241 0.884201ZM344.888 350.134V319.188H314.405V350.134H344.888ZM313.534 350.134V319.188H283.052V350.134H313.534ZM282.181 350.134V319.188H251.698V350.134H282.181ZM250.828 350.134V319.188H220.345V350.134H250.828ZM219.474 350.134V319.188H188.992V350.134H219.474ZM188.121 350.134V319.188L157.638 319.188V350.134L188.121 350.134ZM156.767 350.134V319.188H126.285V350.134H156.767ZM125.414 350.134V319.188H94.9313V350.134H125.414ZM94.0603 350.134V319.188H63.5778V350.134H94.0603ZM62.7069 350.134V319.188H32.2244V350.134H62.7069ZM31.3534 350.134V319.188H0.870938L0.870937 350.134H31.3534ZM344.888 287.357V318.303H314.405V287.357H344.888ZM344.888 255.527L344.888 286.473H314.405L314.405 255.527H344.888ZM344.888 223.697V254.643H314.405V223.697H344.888ZM344.888 191.866V222.812H314.405V191.866H344.888ZM344.888 160.036V190.982H314.405V160.036H344.888ZM344.888 128.206V159.152H314.405V128.206H344.888ZM344.888 96.3752V127.321H314.405V96.3752H344.888ZM344.888 64.5449V95.491H314.405V64.5449H344.888ZM344.888 32.7145V63.6607H314.405V32.7145H344.888ZM344.888 0.884199V31.8304H314.405V0.884197L344.888 0.884199ZM313.534 318.303V287.357H283.052V318.303H313.534ZM282.181 318.303V287.357H251.698V318.303H282.181ZM250.828 318.303V287.357H220.345V318.303H250.828ZM219.474 318.303V287.357H188.992V318.303H219.474ZM188.121 318.303V287.357H157.638V318.303L188.121 318.303ZM156.767 318.303V287.357H126.285V318.303H156.767ZM125.414 318.303V287.357H94.9313V318.303H125.414ZM94.0603 318.303V287.357H63.5778V318.303H94.0603ZM62.7069 318.303V287.357H32.2244V318.303H62.7069ZM31.3535 318.303V287.357H0.87094L0.870938 318.303H31.3535ZM313.534 255.527L313.534 286.473H283.052V255.527H313.534ZM313.534 223.697V254.643H283.052V223.697H313.534ZM313.534 191.866V222.812H283.052V191.866H313.534ZM313.534 160.036V190.982H283.052V160.036H313.534ZM313.534 128.206V159.152H283.052V128.206H313.534ZM313.534 96.3752V127.321H283.052V96.3752H313.534ZM313.534 64.5449V95.491H283.052V64.5449H313.534ZM313.534 32.7145V63.6607H283.052V32.7145H313.534ZM313.534 0.884197V31.8304H283.052V0.884195L313.534 0.884197ZM282.181 286.473V255.527H251.698V286.473H282.181ZM250.828 286.473V255.527H220.345V286.473H250.828ZM219.474 286.473V255.527H188.992V286.473H219.474ZM188.121 286.473V255.527L157.638 255.527V286.473L188.121 286.473ZM156.767 286.473V255.527H126.285V286.473H156.767ZM125.414 286.473V255.527H94.9313V286.473H125.414ZM94.0603 286.473V255.527H63.5778V286.473H94.0603ZM62.7069 286.473V255.527H32.2244V286.473H62.7069ZM31.3535 286.473V255.527H0.870941L0.87094 286.473H31.3535ZM282.181 223.697V254.643H251.698V223.697H282.181ZM282.181 191.866V222.812H251.698V191.866H282.181ZM282.181 160.036V190.982H251.698V160.036H282.181ZM282.181 128.206V159.152H251.698V128.206H282.181ZM282.181 96.3752V127.321H251.698V96.3752H282.181ZM282.181 64.5449V95.491H251.698V64.5449H282.181ZM282.181 32.7145V63.6607H251.698V32.7145H282.181ZM282.181 0.884195V31.8304H251.698V0.884193L282.181 0.884195ZM250.828 254.643V223.697H220.345V254.643H250.828ZM219.474 254.643V223.697H188.992V254.643H219.474ZM188.121 254.643V223.697H157.638V254.643L188.121 254.643ZM156.767 254.643V223.697H126.285V254.643H156.767ZM125.414 254.643V223.697H94.9313V254.643H125.414ZM94.0603 254.643V223.697L63.5778 223.697V254.643H94.0603ZM62.7069 254.643V223.697H32.2244V254.643H62.7069ZM31.3535 254.643V223.697H0.870943L0.870941 254.643H31.3535ZM250.828 191.866V222.812H220.345V191.866H250.828ZM250.828 160.036V190.982H220.345V160.036H250.828ZM250.828 128.206V159.152H220.345L220.345 128.206H250.828ZM250.828 96.3752V127.321H220.345V96.3752H250.828ZM250.828 64.5449V95.491H220.345V64.5449H250.828ZM250.828 32.7145V63.6607H220.345V32.7145H250.828ZM250.828 0.884193V31.8304H220.345V0.884191L250.828 0.884193ZM219.474 222.812V191.866H188.992V222.812H219.474ZM188.121 222.812V191.866H157.638V222.812H188.121ZM156.767 222.812V191.866H126.285V222.812H156.767ZM125.414 222.812V191.866H94.9313V222.812H125.414ZM94.0603 222.812V191.866L63.5778 191.866V222.812L94.0603 222.812ZM62.7069 222.812V191.866H32.2244V222.812H62.7069ZM31.3535 222.812V191.866H0.870944L0.870943 222.812H31.3535ZM219.474 160.036V190.982H188.992V160.036H219.474ZM219.474 128.206L219.474 159.152H188.992V128.206H219.474ZM219.474 96.3752V127.321H188.992V96.3752H219.474ZM219.474 64.5449V95.491H188.992V64.5449H219.474ZM219.474 32.7145V63.6607H188.992V32.7145H219.474ZM219.474 0.884191V31.8304H188.992V0.884189L219.474 0.884191ZM188.121 190.982V160.036H157.638V190.982H188.121ZM156.767 190.982V160.036H126.285V190.982H156.767ZM125.414 190.982V160.036H94.9313V190.982H125.414ZM94.0603 190.982V160.036H63.5778V190.982L94.0603 190.982ZM62.7069 190.982V160.036H32.2244V190.982H62.7069ZM31.3535 190.982V160.036H0.870945L0.870944 190.982H31.3535ZM188.121 128.206L188.121 159.152H157.638V128.206H188.121ZM188.121 96.3752V127.321H157.638V96.3752H188.121ZM188.121 64.5449V95.491H157.638V64.5449H188.121ZM188.121 32.7145V63.6607H157.638V32.7145H188.121ZM188.121 0.884189V31.8304H157.638V0.884187L188.121 0.884189ZM156.767 159.152V128.206H126.285V159.152H156.767ZM125.414 159.152V128.206H94.9313V159.152H125.414ZM94.0603 159.152V128.206H63.5778V159.152L94.0603 159.152ZM62.7069 159.152V128.206H32.2244V159.152H62.7069ZM31.3535 159.152V128.206H0.870947L0.870945 159.152H31.3535ZM156.767 96.3752V127.321H126.285V96.3752H156.767ZM156.767 64.5449V95.491H126.285V64.5449H156.767ZM156.767 32.7145V63.6607H126.285V32.7145L156.767 32.7145ZM156.767 0.884187V31.8304L126.285 31.8304V0.884185L156.767 0.884187ZM125.414 127.321V96.3752H94.9313V127.321H125.414ZM94.0603 127.321V96.3752H63.5778V127.321L94.0603 127.321ZM62.7069 127.321V96.3752L32.2244 96.3752V127.321H62.7069ZM31.3535 127.321V96.3752H0.870948L0.870947 127.321H31.3535ZM125.414 64.5449V95.491H94.9313V64.5449H125.414ZM125.414 32.7145V63.6607H94.9313V32.7145H125.414ZM125.414 0.884184V31.8304L94.9313 31.8303V0.884182L125.414 0.884184ZM94.0603 95.491V64.5449H63.5778V95.491H94.0603ZM62.7069 95.491V64.5449L32.2244 64.5449V95.491L62.7069 95.491ZM31.3535 95.491V64.5449H0.870949L0.870948 95.491H31.3535ZM94.0603 32.7145V63.6607H63.5778V32.7145L94.0603 32.7145ZM94.0603 0.884182V31.8303H63.5778V0.88418L94.0603 0.884182ZM62.7069 63.6607V32.7145L32.2244 32.7145V63.6607L62.7069 63.6607ZM31.3535 63.6607V32.7145H0.870951L0.870949 63.6607H31.3535ZM62.7069 0.88418V31.8303L32.2244 31.8303V0.884178L62.7069 0.88418ZM31.3535 31.8303V0.884178L0.870952 0.884176L0.870951 31.8303L31.3535 31.8303Z" fill="url(#paint0_radial_103_3256)"/>
<defs>
<radialGradient id="paint0_radial_103_3256" cx="0" cy="0" r="1" gradientUnits="userSpaceOnUse" gradientTransform="translate(361 1.15437e-05) rotate(90) scale(271 361)">
<stop stop-color="#474747"/>
<stop offset="1" stop-opacity="0"/>
</radialGradient>
</defs>
</svg>
