<svg width="596" height="582" viewBox="0 0 596 582" fill="none" xmlns="http://www.w3.org/2000/svg">
<path fillRule="evenodd" clipRule="evenodd" d="M-89.0639 5.1461e-05L-90 0V0.949429V34.1794V35.1289V68.3589V69.3083V102.538V103.488V136.718V137.667V170.897V171.847V205.077V206.026V239.256V240.206V273.436V274.385V307.615V308.564V341.794V342.744V375.974V376.923V410.153V411.103V444.333V445.282V478.512V479.462V512.692V513.641V546.871V547.82L-90 581.051L-90 582L685.064 582V581.051H686V5.1461e-05H685.064H652.302H651.366H618.603H617.667H584.905H583.969H551.206H550.27H517.508H516.572H483.809H482.873H450.111H449.175H416.413H415.477H382.714H381.778H349.016H348.08H315.317H314.381H281.619H280.683H247.92H246.984H214.222H213.286H180.524H179.587H146.825H145.889H113.127H112.191H79.4283H78.4922H45.7298H44.7938H12.0314H11.0953H-21.667H-22.6031H-55.3655H-56.3015H-89.0639ZM685.064 0.94948L652.302 0.949478V34.1795H685.064V0.94948ZM685.064 35.1289H652.302V68.3589H685.064V35.1289ZM685.064 69.3084H652.302V102.538H685.064V69.3084ZM685.064 103.488H652.302V136.718H685.064V103.488ZM685.064 137.667H652.302V170.897H685.064V137.667ZM685.064 171.847H652.302V205.077H685.064V171.847ZM685.064 206.026H652.302V239.256H685.064V206.026ZM685.064 240.206H652.302V273.436H685.064V240.206ZM685.064 274.385H652.302V307.615H685.064V274.385ZM685.064 308.564H652.302V341.794H685.064V308.564ZM685.064 342.744H652.302V375.974H685.064V342.744ZM685.064 376.923H652.302V410.153H685.064V376.923ZM685.064 411.103H652.302V444.333H685.064V411.103ZM685.064 445.282H652.302V478.512H685.064V445.282ZM685.064 479.462H652.302V512.692H685.064V479.462ZM685.064 513.641H652.302V546.871H685.064V513.641ZM685.064 547.821V581.051H652.302V547.821H685.064ZM651.366 547.821V581.051H618.603V547.821H651.366ZM651.366 513.641V546.871H618.603V513.641H651.366ZM651.366 479.462V512.692H618.603V479.462H651.366ZM651.366 445.282V478.512H618.603V445.282H651.366ZM651.366 411.103V444.333H618.603V411.103H651.366ZM651.366 376.923V410.153H618.603V376.923H651.366ZM651.366 342.744V375.974H618.603V342.744H651.366ZM651.366 308.564V341.794H618.603V308.564H651.366ZM651.366 274.385V307.615H618.603V274.385H651.366ZM651.366 240.206V273.436H618.603V240.206H651.366ZM651.366 206.026V239.256H618.603V206.026H651.366ZM651.366 171.847V205.077H618.603V171.847H651.366ZM651.366 137.667V170.897H618.603V137.667H651.366ZM651.366 103.488V136.718H618.603V103.488H651.366ZM651.366 69.3084V102.538H618.603V69.3084H651.366ZM651.366 35.1289V68.3589H618.603V35.1289H651.366ZM651.366 0.949478V34.1795H618.603V0.949476L651.366 0.949478ZM617.667 0.949476L584.905 0.949474V34.1795H617.667V0.949476ZM617.667 35.1289H584.905V68.3589H617.667V35.1289ZM617.667 69.3084H584.905V102.538H617.667V69.3084ZM617.667 103.488H584.905V136.718H617.667V103.488ZM617.667 137.667H584.905V170.897H617.667V137.667ZM617.667 171.847H584.905V205.077H617.667V171.847ZM617.667 206.026H584.905V239.256H617.667V206.026ZM617.667 240.206H584.905V273.436H617.667V240.206ZM617.667 274.385H584.905V307.615H617.667V274.385ZM617.667 308.564H584.905V341.794H617.667V308.564ZM617.667 342.744H584.905V375.974H617.667V342.744ZM617.667 376.923H584.905V410.153H617.667V376.923ZM617.667 411.103H584.905V444.333H617.667V411.103ZM617.667 445.282H584.905V478.512H617.667V445.282ZM617.667 479.462H584.905V512.692H617.667V479.462ZM617.667 513.641H584.905V546.871H617.667V513.641ZM617.667 547.821H584.905V581.051H617.667V547.821ZM583.969 547.821V581.051H551.206V547.821H583.969ZM583.969 513.641V546.871H551.206V513.641H583.969ZM583.969 479.462V512.692H551.206V479.462H583.969ZM583.969 445.282V478.512H551.206V445.282H583.969ZM583.969 411.103V444.333H551.206V411.103H583.969ZM583.969 376.923V410.153H551.206V376.923H583.969ZM583.969 342.744V375.974H551.206V342.744H583.969ZM583.969 308.564V341.794H551.206V308.564H583.969ZM583.969 274.385V307.615H551.206V274.385H583.969ZM583.969 240.206V273.436H551.206V240.206H583.969ZM583.969 206.026V239.256H551.206V206.026H583.969ZM583.969 171.847V205.077H551.206V171.847H583.969ZM583.969 137.667V170.897H551.206V137.667H583.969ZM583.969 103.488V136.718H551.206V103.488H583.969ZM583.969 69.3083V102.538H551.206V69.3083H583.969ZM583.969 35.1289V68.3589H551.206V35.1289H583.969ZM583.969 0.949474V34.1795H551.206V0.949472L583.969 0.949474ZM550.27 0.949472L517.508 0.949469V34.1795H550.27V0.949472ZM550.27 35.1289H517.508V68.3589H550.27V35.1289ZM550.27 69.3083H517.508V102.538H550.27V69.3083ZM550.27 103.488H517.508V136.718H550.27V103.488ZM550.27 137.667H517.508V170.897H550.27V137.667ZM550.27 171.847H517.508V205.077H550.27V171.847ZM550.27 206.026H517.508V239.256H550.27V206.026ZM550.27 240.206H517.508V273.436H550.27V240.206ZM550.27 274.385H517.508V307.615H550.27V274.385ZM550.27 308.564H517.508V341.794H550.27V308.564ZM550.27 342.744H517.508V375.974H550.27V342.744ZM550.27 376.923H517.508V410.153H550.27V376.923ZM550.27 411.103H517.508V444.333H550.27V411.103ZM550.27 445.282H517.508V478.512H550.27V445.282ZM550.27 479.462H517.508V512.692H550.27V479.462ZM550.27 513.641H517.508V546.871H550.27V513.641ZM550.27 547.821H517.508V581.051H550.27V547.821ZM516.572 547.821V581.051H483.809V547.821H516.572ZM516.572 513.641V546.871H483.809V513.641H516.572ZM516.572 479.462V512.692H483.809V479.462H516.572ZM516.572 445.282V478.512H483.809V445.282H516.572ZM516.572 411.103V444.333H483.809V411.103H516.572ZM516.572 376.923V410.153H483.809V376.923H516.572ZM516.572 342.744V375.974H483.809V342.744H516.572ZM516.572 308.564V341.794H483.809V308.564H516.572ZM516.572 274.385V307.615H483.809V274.385H516.572ZM516.572 240.206V273.436H483.809V240.206H516.572ZM516.572 206.026V239.256H483.809V206.026H516.572ZM516.572 171.847V205.077H483.809V171.847H516.572ZM516.572 137.667V170.897H483.809V137.667H516.572ZM516.572 103.488V136.718H483.809V103.488H516.572ZM516.572 69.3083V102.538H483.809V69.3083H516.572ZM516.572 35.1289V68.3589H483.809V35.1289H516.572ZM516.572 0.949469V34.1795H483.809V0.949467L516.572 0.949469ZM482.873 581.051V547.821H450.111V581.051H482.873ZM449.175 581.051V547.821H416.413V581.051H449.175ZM415.477 581.051V547.821H382.714V581.051H415.477ZM381.778 581.051V547.821H349.016V581.051H381.778ZM348.08 581.051V547.821H315.317V581.051H348.08ZM314.381 581.051V547.821L281.619 547.82V581.051H314.381ZM280.683 581.051V547.82H247.92V581.051H280.683ZM246.984 581.051V547.82H214.222V581.051H246.984ZM213.286 581.051V547.82H180.524V581.051H213.286ZM179.587 581.051V547.82H146.825V581.051H179.587ZM145.889 581.051V547.82H113.127V581.051H145.889ZM112.191 581.051V547.82H79.4282V581.051H112.191ZM78.4922 581.051V547.82H45.7298V581.051H78.4922ZM44.7937 581.051V547.82H12.0314V581.051H44.7937ZM11.0953 581.051V547.82H-21.6671V581.051H11.0953ZM-22.6031 581.051V547.82H-55.3655V581.051H-22.6031ZM-56.3016 581.051V547.82H-89.0639L-89.0639 581.051H-56.3016ZM482.873 513.641V546.871H450.111V513.641H482.873ZM482.873 479.462V512.692H450.111V479.462H482.873ZM482.873 445.282V478.512H450.111V445.282H482.873ZM482.873 411.103V444.333H450.111V411.103H482.873ZM482.873 376.923V410.153H450.111V376.923H482.873ZM482.873 342.744V375.974H450.111V342.744H482.873ZM482.873 308.564V341.794H450.111V308.564H482.873ZM482.873 274.385V307.615H450.111V274.385H482.873ZM482.873 240.206V273.436H450.111V240.206H482.873ZM482.873 206.026V239.256H450.111V206.026H482.873ZM482.873 171.847V205.077H450.111V171.847H482.873ZM482.873 137.667V170.897H450.111V137.667H482.873ZM482.873 103.488V136.718H450.111V103.488H482.873ZM482.873 69.3083V102.538H450.111V69.3083H482.873ZM482.873 35.1289V68.3589H450.111V35.1289H482.873ZM482.873 0.949467V34.1795H450.111V0.949465L482.873 0.949467ZM449.175 546.871V513.641H416.413V546.871H449.175ZM415.477 546.871V513.641H382.714V546.871H415.477ZM381.778 546.871V513.641H349.016V546.871H381.778ZM348.08 546.871V513.641H315.317V546.871H348.08ZM314.381 546.871V513.641L281.619 513.641V546.871L314.381 546.871ZM280.683 546.871V513.641H247.92V546.871H280.683ZM246.984 546.871V513.641H214.222V546.871H246.984ZM213.286 546.871V513.641H180.524V546.871H213.286ZM179.587 546.871V513.641H146.825V546.871H179.587ZM145.889 546.871V513.641H113.127V546.871H145.889ZM112.191 546.871V513.641H79.4282V546.871H112.191ZM78.4922 546.871V513.641H45.7298V546.871H78.4922ZM44.7937 546.871V513.641H12.0314V546.871H44.7937ZM11.0953 546.871V513.641H-21.6671V546.871H11.0953ZM-22.6031 546.871V513.641H-55.3655V546.871H-22.6031ZM-56.3016 546.871V513.641H-89.0639L-89.0639 546.871H-56.3016ZM449.175 479.462V512.692H416.413V479.462H449.175ZM449.175 445.282V478.512H416.413V445.282H449.175ZM449.175 411.103V444.333H416.413V411.103H449.175ZM449.175 376.923V410.153H416.413V376.923H449.175ZM449.175 342.744V375.974H416.413V342.744H449.175ZM449.175 308.564V341.794H416.413V308.564H449.175ZM449.175 274.385V307.615H416.413V274.385H449.175ZM449.175 240.206V273.436H416.413V240.206H449.175ZM449.175 206.026V239.256H416.413V206.026H449.175ZM449.175 171.847V205.077H416.413V171.847H449.175ZM449.175 137.667V170.897H416.413V137.667H449.175ZM449.175 103.488V136.718H416.413V103.488H449.175ZM449.175 69.3083V102.538H416.413V69.3083H449.175ZM449.175 35.1289V68.3589H416.413V35.1289H449.175ZM449.175 0.949465V34.1795H416.413V0.949463L449.175 0.949465ZM415.477 512.692V479.462H382.714V512.692H415.477ZM381.778 512.692V479.462H349.016V512.692H381.778ZM348.08 512.692V479.462H315.317V512.692H348.08ZM314.381 512.692V479.462H281.619V512.692L314.381 512.692ZM280.683 512.692V479.462H247.92V512.692H280.683ZM246.984 512.692V479.462H214.222V512.692H246.984ZM213.286 512.692V479.462H180.524V512.692H213.286ZM179.587 512.692V479.462H146.825V512.692H179.587ZM145.889 512.692V479.462H113.127V512.692H145.889ZM112.191 512.692V479.462L79.4282 479.462V512.692H112.191ZM78.4922 512.692V479.462H45.7298V512.692H78.4922ZM44.7937 512.692V479.462H12.0314V512.692H44.7937ZM11.0953 512.692V479.462H-21.6671V512.692H11.0953ZM-22.6031 512.692V479.462H-55.3655V512.692H-22.6031ZM-56.3016 512.692V479.462H-89.0639L-89.0639 512.692H-56.3016ZM415.477 445.282V478.512H382.714V445.282H415.477ZM415.477 411.103V444.333H382.714V411.103H415.477ZM415.477 376.923V410.153H382.714V376.923H415.477ZM415.477 342.744V375.974H382.714V342.744H415.477ZM415.477 308.564V341.794H382.714V308.564H415.477ZM415.477 274.385V307.615H382.714L382.714 274.385H415.477ZM415.477 240.206V273.436H382.714V240.206H415.477ZM415.477 206.026V239.256H382.714V206.026H415.477ZM415.477 171.847V205.077H382.714V171.847H415.477ZM415.477 137.667V170.897H382.714V137.667H415.477ZM415.477 103.488V136.718H382.714V103.488H415.477ZM415.477 69.3083V102.538H382.714V69.3083H415.477ZM415.477 35.1289V68.3589H382.714V35.1289H415.477ZM415.477 0.949463V34.1795H382.714V0.94946L415.477 0.949463ZM381.778 478.512V445.282H349.016V478.512H381.778ZM348.08 478.512V445.282H315.317V478.512H348.08ZM314.381 478.512V445.282H281.619V478.512H314.381ZM280.683 478.512V445.282H247.92V478.512H280.683ZM246.984 478.512V445.282H214.222V478.512H246.984ZM213.286 478.512V445.282H180.524V478.512H213.286ZM179.587 478.512V445.282H146.825V478.512H179.587ZM145.889 478.512V445.282H113.127V478.512H145.889ZM112.191 478.512V445.282L79.4283 445.282V478.512L112.191 478.512ZM78.4922 478.512V445.282H45.7298V478.512H78.4922ZM44.7938 478.512V445.282H12.0314V478.512H44.7938ZM11.0953 478.512V445.282H-21.6671V478.512H11.0953ZM-22.6031 478.512V445.282H-55.3655V478.512H-22.6031ZM-56.3016 478.512V445.282H-89.0639L-89.0639 478.512H-56.3016ZM381.778 411.103V444.333H349.016V411.103H381.778ZM381.778 376.923V410.153H349.016V376.923H381.778ZM381.778 342.744V375.974H349.016V342.744H381.778ZM381.778 308.564V341.794H349.016V308.564H381.778ZM381.778 274.385L381.778 307.615H349.016L349.016 274.385H381.778ZM381.778 240.206V273.436H349.016V240.206H381.778ZM381.778 206.026V239.256H349.016V206.026H381.778ZM381.778 171.847V205.077H349.016V171.847H381.778ZM381.778 137.667V170.897H349.016V137.667H381.778ZM381.778 103.488V136.718H349.016V103.488H381.778ZM381.778 69.3083V102.538H349.016V69.3083H381.778ZM381.778 35.1289V68.3589H349.016V35.1289H381.778ZM381.778 0.94946V34.1795H349.016V0.949458L381.778 0.94946ZM348.08 444.333V411.103H315.317V444.333H348.08ZM314.381 444.333V411.103H281.619V444.333H314.381ZM280.683 444.333V411.103H247.92V444.333H280.683ZM246.984 444.333V411.103H214.222V444.333H246.984ZM213.286 444.333V411.103H180.524V444.333H213.286ZM179.587 444.333V411.103H146.825V444.333H179.587ZM145.889 444.333V411.103H113.127V444.333H145.889ZM112.191 444.333V411.103L79.4283 411.103V444.333L112.191 444.333ZM78.4922 444.333V411.103H45.7298V444.333H78.4922ZM44.7938 444.333V411.103H12.0314V444.333H44.7938ZM11.0953 444.333V411.103H-21.6671V444.333H11.0953ZM-22.6031 444.333V411.103H-55.3655V444.333H-22.6031ZM-56.3016 444.333V411.103H-89.0639L-89.0639 444.333H-56.3016ZM348.08 376.923V410.153H315.317V376.923H348.08ZM348.08 342.744V375.974H315.317V342.744H348.08ZM348.08 308.564V341.794H315.317V308.564H348.08ZM348.08 274.385L348.08 307.615H315.317V274.385H348.08ZM348.08 240.206V273.436H315.317V240.206H348.08ZM348.08 206.026V239.256H315.317V206.026H348.08ZM348.08 171.847V205.077H315.317V171.847H348.08ZM348.08 137.667V170.897H315.317V137.667H348.08ZM348.08 103.488V136.718H315.317V103.488H348.08ZM348.08 69.3083V102.538H315.317V69.3083H348.08ZM348.08 35.1289V68.3589H315.317V35.1289H348.08ZM348.08 0.949458V34.1795H315.317V0.949456L348.08 0.949458ZM314.381 410.153V376.923H281.619V410.153H314.381ZM280.683 410.153V376.923H247.92V410.153H280.683ZM246.984 410.153V376.923H214.222V410.153H246.984ZM213.286 410.153V376.923H180.524V410.153H213.286ZM179.587 410.153V376.923H146.825V410.153H179.587ZM145.889 410.153V376.923H113.127V410.153H145.889ZM112.191 410.153V376.923L79.4283 376.923V410.153L112.191 410.153ZM78.4922 410.153V376.923H45.7298V410.153H78.4922ZM44.7938 410.153V376.923H12.0314V410.153H44.7938ZM11.0953 410.153V376.923H-21.667V410.153H11.0953ZM-22.6031 410.153V376.923H-55.3655V410.153H-22.6031ZM-56.3016 410.153V376.923H-89.0639L-89.0639 410.153H-56.3016ZM314.381 342.744V375.974H281.619V342.744H314.381ZM314.381 308.564V341.794H281.619V308.564H314.381ZM314.381 274.385V307.615H281.619L281.619 274.385H314.381ZM314.381 240.206V273.436H281.619V240.206H314.381ZM314.381 206.026V239.256H281.619V206.026H314.381ZM314.381 171.847V205.077H281.619V171.847H314.381ZM314.381 137.667V170.897H281.619V137.667H314.381ZM314.381 103.488V136.718H281.619V103.488H314.381ZM314.381 69.3083V102.538H281.619V69.3083H314.381ZM314.381 35.1289V68.3589H281.619V35.1289H314.381ZM314.381 0.949456V34.1795H281.619V0.949454L314.381 0.949456ZM280.683 375.974V342.744H247.92V375.974H280.683ZM246.984 375.974V342.744H214.222V375.974H246.984ZM213.286 375.974V342.744H180.524V375.974H213.286ZM179.587 375.974V342.744H146.825V375.974H179.587ZM145.889 375.974V342.744H113.127V375.974H145.889ZM112.191 375.974V342.744L79.4283 342.744V375.974L112.191 375.974ZM78.4922 375.974V342.744H45.7298V375.974H78.4922ZM44.7938 375.974V342.744H12.0314V375.974H44.7938ZM11.0953 375.974V342.744H-21.667V375.974H11.0953ZM-22.6031 375.974V342.744H-55.3655V375.974H-22.6031ZM-56.3016 375.974V342.744H-89.0639L-89.0639 375.974H-56.3016ZM280.683 308.564V341.794H247.92V308.564H280.683ZM280.683 274.385L280.683 307.615H247.92L247.92 274.385H280.683ZM280.683 240.206V273.436H247.92V240.206H280.683ZM280.683 206.026V239.256H247.92V206.026H280.683ZM280.683 171.847V205.077H247.92V171.847H280.683ZM280.683 137.667V170.897H247.92V137.667H280.683ZM280.683 103.488V136.718H247.92V103.488H280.683ZM280.683 69.3083V102.538H247.92V69.3083H280.683ZM280.683 35.1289V68.3589H247.92V35.1289H280.683ZM280.683 0.949454V34.1795H247.92V0.949452L280.683 0.949454ZM246.984 341.794V308.564H214.222V341.794H246.984ZM213.286 341.794V308.564H180.524V341.794H213.286ZM179.587 341.794V308.564H146.825V341.794H179.587ZM145.889 341.794V308.564H113.127V341.794H145.889ZM112.191 341.794V308.564H79.4283V341.794L112.191 341.794ZM78.4922 341.794V308.564H45.7298V341.794H78.4922ZM44.7938 341.794V308.564H12.0314V341.794H44.7938ZM11.0953 341.794V308.564H-21.667V341.794H11.0953ZM-22.6031 341.794V308.564H-55.3655V341.794H-22.6031ZM-56.3016 341.794V308.564H-89.0639L-89.0639 341.794H-56.3016ZM246.984 274.385L246.984 307.615H214.222V274.385H246.984ZM246.984 240.206V273.436H214.222V240.206H246.984ZM246.984 206.026V239.256H214.222V206.026H246.984ZM246.984 171.847V205.077H214.222V171.847H246.984ZM246.984 137.667V170.897H214.222V137.667H246.984ZM246.984 103.488V136.718H214.222V103.488H246.984ZM246.984 69.3083V102.538H214.222V69.3083H246.984ZM246.984 35.1289V68.3589H214.222V35.1289H246.984ZM246.984 0.949451V34.1795H214.222V0.949449L246.984 0.949451ZM213.286 307.615V274.385H180.524V307.615H213.286ZM179.587 307.615V274.385H146.825V307.615H179.587ZM145.889 307.615V274.385H113.127V307.615H145.889ZM112.191 307.615V274.385L79.4283 274.385V307.615L112.191 307.615ZM78.4922 307.615V274.385H45.7298V307.615H78.4922ZM44.7938 307.615V274.385H12.0314V307.615H44.7938ZM11.0953 307.615V274.385H-21.667V307.615H11.0953ZM-22.6031 307.615V274.385H-55.3655V307.615H-22.6031ZM-56.3016 307.615V274.385H-89.0639L-89.0639 307.615H-56.3016ZM213.286 240.206V273.436H180.524V240.206H213.286ZM213.286 206.026V239.256H180.524V206.026H213.286ZM213.286 171.847V205.077H180.524V171.847H213.286ZM213.286 137.667V170.897H180.524V137.667H213.286ZM213.286 103.488V136.718H180.524V103.488H213.286ZM213.286 69.3083V102.538H180.524V69.3083H213.286ZM213.286 35.1289V68.3589H180.524V35.1289H213.286ZM213.286 0.949449V34.1795H180.524V0.949447L213.286 0.949449ZM179.587 273.436V240.206H146.825V273.436H179.587ZM145.889 273.436V240.206H113.127V273.436H145.889ZM112.191 273.436V240.206H79.4283V273.436L112.191 273.436ZM78.4922 273.436V240.206H45.7298V273.436H78.4922ZM44.7938 273.436V240.206H12.0314V273.436H44.7938ZM11.0953 273.436V240.206L-21.667 240.206V273.436H11.0953ZM-22.6031 273.436V240.206H-55.3655V273.436H-22.6031ZM-56.3016 273.436V240.206H-89.0639L-89.0639 273.436H-56.3016ZM179.587 206.026V239.256H146.825V206.026H179.587ZM179.587 171.847V205.077H146.825V171.847H179.587ZM179.587 137.667V170.897H146.825L146.825 137.667H179.587ZM179.587 103.488V136.718H146.825V103.488H179.587ZM179.587 69.3083V102.538H146.825V69.3083H179.587ZM179.587 35.1289V68.3589H146.825V35.1289H179.587ZM179.587 0.949447V34.1795H146.825V0.949445L179.587 0.949447ZM145.889 239.256V206.026H113.127V239.256H145.889ZM112.191 239.256V206.026H79.4283V239.256H112.191ZM78.4922 239.256V206.026H45.7298V239.256H78.4922ZM44.7938 239.256V206.026H12.0314V239.256H44.7938ZM11.0953 239.256V206.026L-21.667 206.026V239.256L11.0953 239.256ZM-22.6031 239.256V206.026H-55.3655V239.256H-22.6031ZM-56.3016 239.256V206.026H-89.0639L-89.0639 239.256H-56.3016ZM145.889 171.847V205.077H113.127V171.847H145.889ZM145.889 137.667L145.889 170.897H113.127V137.667H145.889ZM145.889 103.488V136.718H113.127V103.488H145.889ZM145.889 69.3083V102.538H113.127V69.3083H145.889ZM145.889 35.1289V68.3589H113.127V35.1289H145.889ZM145.889 0.949445V34.1795H113.127V0.949443L145.889 0.949445ZM112.191 205.077V171.847H79.4283V205.077H112.191ZM78.4922 205.077V171.847H45.7298V205.077H78.4922ZM44.7938 205.077V171.847H12.0314V205.077H44.7938ZM11.0953 205.077V171.847H-21.667V205.077L11.0953 205.077ZM-22.6031 205.077V171.847H-55.3655V205.077H-22.6031ZM-56.3015 205.077V171.847H-89.0639L-89.0639 205.077H-56.3015ZM112.191 137.667L112.191 170.897H79.4283V137.667H112.191ZM112.191 103.488V136.718H79.4283V103.488H112.191ZM112.191 69.3083V102.538H79.4283V69.3083H112.191ZM112.191 35.1289V68.3589H79.4283V35.1289H112.191ZM112.191 0.949442V34.1795H79.4283V0.94944L112.191 0.949442ZM78.4922 170.897V137.667H45.7298V170.897H78.4922ZM44.7938 170.897V137.667H12.0314V170.897H44.7938ZM11.0953 170.897V137.667H-21.667V170.897L11.0953 170.897ZM-22.6031 170.897V137.667H-55.3655V170.897H-22.6031ZM-56.3015 170.897V137.667H-89.0639L-89.0639 170.897H-56.3015ZM78.4922 103.488V136.718H45.7298V103.488H78.4922ZM78.4922 69.3083V102.538H45.7298V69.3083H78.4922ZM78.4922 35.1289V68.3589H45.7298V35.1289L78.4922 35.1289ZM78.4922 0.94944V34.1795L45.7298 34.1795V0.949438L78.4922 0.94944ZM44.7938 136.718V103.488H12.0314V136.718H44.7938ZM11.0953 136.718V103.488H-21.667V136.718L11.0953 136.718ZM-22.6031 136.718V103.488L-55.3655 103.488V136.718H-22.6031ZM-56.3015 136.718V103.488H-89.0639L-89.0639 136.718H-56.3015ZM44.7938 69.3083V102.538H12.0314V69.3083H44.7938ZM44.7938 35.1289V68.3589H12.0314V35.1289H44.7938ZM44.7938 0.949438V34.1795L12.0314 34.1795V0.949436L44.7938 0.949438ZM11.0953 102.538V69.3083H-21.667V102.538H11.0953ZM-22.6031 102.538V69.3083L-55.3655 69.3083V102.538L-22.6031 102.538ZM-56.3015 102.538V69.3083H-89.0639L-89.0639 102.538H-56.3015ZM11.0953 35.1289V68.3589H-21.667V35.1289L11.0953 35.1289ZM11.0953 0.949436V34.1795H-21.667V0.949434L11.0953 0.949436ZM-22.6031 68.3589V35.1289L-55.3655 35.1289V68.3589L-22.6031 68.3589ZM-56.3015 68.3589V35.1289H-89.0639L-89.0639 68.3589H-56.3015ZM-22.6031 0.949433V34.1795L-55.3655 34.1794V0.949431L-22.6031 0.949433ZM-56.3015 34.1794V0.949431L-89.0639 0.949429L-89.0639 34.1794L-56.3015 34.1794Z" fill="url(#paint0_radial_101_2377)"/>
<defs>
<radialGradient id="paint0_radial_101_2377" cx="0" cy="0" r="1" gradientUnits="userSpaceOnUse" gradientTransform="translate(298 1.23957e-05) rotate(90) scale(291 388)">
<stop stop-color="#474747"/>
<stop offset="1" stop-opacity="0"/>
</radialGradient>
</defs>
</svg>
