<svg width="636" height="471" viewBox="0 0 636 471" fill="none" xmlns="http://www.w3.org/2000/svg">
<path fill-rule="evenodd" clip-rule="evenodd" d="M0.76721 471L2.05234e-05 471V470.232V443.339V442.571V415.679V414.91V388.018V387.25V360.357V359.589V332.697V331.928V305.036V304.268V277.375V276.607V249.715V248.946V222.054V221.285V194.393V193.625V166.732V165.964V139.072V138.303V111.411V110.643V83.7505V82.9821V56.0898V55.3214V28.429V27.6607L0 0.768341L2.05234e-05 3.05176e-05L635.233 0V0.768341H636V471H635.233H608.381H607.614H580.762H579.995H553.144H552.376H525.525H524.758H497.906H497.139H470.287H469.52H442.668H441.901H415.049H414.282H387.431H386.663H359.812H359.045H332.193H331.426H304.574H303.807H276.955H276.188H249.337H248.569H221.718H220.951H194.099H193.332H166.48H165.713H138.861H138.094H111.242H110.475H83.6237H82.8565H56.0048H55.2377H28.386H27.6188H0.76721ZM635.233 470.232L608.381 470.232V443.339H635.233V470.232ZM635.233 442.571H608.381V415.679H635.233V442.571ZM635.233 414.91H608.381V388.018H635.233V414.91ZM635.233 387.25H608.381V360.357H635.233V387.25ZM635.233 359.589H608.381V332.697H635.233V359.589ZM635.233 331.928H608.381V305.036H635.233V331.928ZM635.233 304.268H608.381V277.375H635.233V304.268ZM635.233 276.607H608.381V249.714H635.233V276.607ZM635.233 248.946H608.381V222.054H635.233V248.946ZM635.233 221.285H608.381V194.393H635.233V221.285ZM635.233 193.625H608.381V166.732H635.233V193.625ZM635.233 165.964H608.381V139.072H635.233V165.964ZM635.233 138.303H608.381V111.411H635.233V138.303ZM635.233 110.643H608.381V83.7504H635.233V110.643ZM635.233 82.982H608.381V56.0897H635.233V82.982ZM635.233 55.3214H608.381V28.429H635.233V55.3214ZM635.233 27.6607V0.768341H608.381V27.6607H635.233ZM607.614 27.6607V0.768341H580.762V27.6607H607.614ZM607.614 55.3214V28.429H580.762V55.3214H607.614ZM607.614 82.9821V56.0897H580.762V82.9821H607.614ZM607.614 110.643V83.7504H580.762V110.643H607.614ZM607.614 138.303V111.411H580.762V138.303H607.614ZM607.614 165.964V139.072H580.762V165.964H607.614ZM607.614 193.625V166.732H580.762V193.625H607.614ZM607.614 221.285V194.393H580.762V221.285H607.614ZM607.614 248.946V222.054H580.762V248.946H607.614ZM607.614 276.607V249.715H580.762V276.607H607.614ZM607.614 304.268V277.375H580.762V304.268H607.614ZM607.614 331.928V305.036H580.762V331.928H607.614ZM607.614 359.589V332.697H580.762V359.589H607.614ZM607.614 387.25V360.357H580.762V387.25H607.614ZM607.614 414.91V388.018H580.762V414.91H607.614ZM607.614 442.571V415.679H580.762V442.571H607.614ZM607.614 470.232V443.339H580.762V470.232L607.614 470.232ZM579.995 470.232L553.144 470.232V443.339H579.995V470.232ZM579.995 442.571H553.144V415.679H579.995V442.571ZM579.995 414.91H553.144V388.018H579.995V414.91ZM579.995 387.25H553.144V360.357H579.995V387.25ZM579.995 359.589H553.144V332.697H579.995V359.589ZM579.995 331.928H553.144V305.036H579.995V331.928ZM579.995 304.268H553.144V277.375H579.995V304.268ZM579.995 276.607H553.144V249.715H579.995V276.607ZM579.995 248.946H553.144V222.054H579.995V248.946ZM579.995 221.285H553.144V194.393H579.995V221.285ZM579.995 193.625H553.144V166.732H579.995V193.625ZM579.995 165.964H553.144V139.072H579.995V165.964ZM579.995 138.303H553.144V111.411H579.995V138.303ZM579.995 110.643H553.144V83.7504H579.995V110.643ZM579.995 82.9821H553.144V56.0897H579.995V82.9821ZM579.995 55.3214H553.144V28.429H579.995V55.3214ZM579.995 27.6607H553.144V0.768341H579.995V27.6607ZM552.376 27.6607V0.768341H525.525V27.6607H552.376ZM552.376 55.3214V28.429H525.525V55.3214H552.376ZM552.376 82.9821V56.0897H525.525V82.9821H552.376ZM552.376 110.643V83.7504H525.525V110.643H552.376ZM552.376 138.303V111.411H525.525V138.303H552.376ZM552.376 165.964V139.072H525.525V165.964H552.376ZM552.376 193.625V166.732H525.525V193.625H552.376ZM552.376 221.285V194.393H525.525V221.285H552.376ZM552.376 248.946V222.054H525.525V248.946H552.376ZM552.376 276.607V249.715H525.525V276.607H552.376ZM552.376 304.268V277.375H525.525V304.268H552.376ZM552.376 331.928V305.036H525.525V331.928H552.376ZM552.376 359.589V332.697H525.525V359.589H552.376ZM552.376 387.25V360.357H525.525V387.25H552.376ZM552.376 414.91V388.018H525.525V414.91H552.376ZM552.376 442.571V415.679H525.525V442.571H552.376ZM552.376 470.232V443.339H525.525V470.232L552.376 470.232ZM524.758 470.232L497.906 470.232V443.339H524.758V470.232ZM524.758 442.571H497.906V415.679H524.758V442.571ZM524.758 414.91H497.906V388.018H524.758V414.91ZM524.758 387.25H497.906V360.357H524.758V387.25ZM524.758 359.589H497.906V332.697H524.758V359.589ZM524.758 331.928H497.906V305.036H524.758V331.928ZM524.758 304.268H497.906V277.375H524.758V304.268ZM524.758 276.607H497.906V249.715H524.758V276.607ZM524.758 248.946H497.906V222.054H524.758V248.946ZM524.758 221.285H497.906V194.393H524.758V221.285ZM524.758 193.625H497.906V166.732H524.758V193.625ZM524.758 165.964H497.906V139.072H524.758V165.964ZM524.758 138.303H497.906V111.411H524.758V138.303ZM524.758 110.643H497.906V83.7504H524.758V110.643ZM524.758 82.9821H497.906V56.0897H524.758V82.9821ZM524.758 55.3214H497.906V28.429H524.758V55.3214ZM524.758 27.6607H497.906V0.768341H524.758V27.6607ZM497.139 27.6607V0.768341H470.287V27.6607H497.139ZM497.139 55.3214V28.429H470.287V55.3214H497.139ZM497.139 82.9821V56.0897H470.287V82.9821H497.139ZM497.139 110.643V83.7504H470.287V110.643H497.139ZM497.139 138.303V111.411H470.287V138.303H497.139ZM497.139 165.964V139.072H470.287V165.964H497.139ZM497.139 193.625V166.732H470.287V193.625H497.139ZM497.139 221.285V194.393H470.287V221.285H497.139ZM497.139 248.946V222.054H470.287V248.946H497.139ZM497.139 276.607V249.715H470.287V276.607H497.139ZM497.139 304.268V277.375H470.287V304.268H497.139ZM497.139 331.928V305.036H470.287V331.928H497.139ZM497.139 359.589V332.697H470.287V359.589H497.139ZM497.139 387.25V360.357H470.287V387.25H497.139ZM497.139 414.91V388.018H470.287V414.91H497.139ZM497.139 442.571V415.679H470.287V442.571H497.139ZM497.139 470.232V443.339H470.287V470.232L497.139 470.232ZM469.52 0.768341V27.6607H442.668V0.768341H469.52ZM441.901 0.768341V27.6607H415.049V0.768341H441.901ZM414.282 0.768341V27.6607H387.431V0.768341H414.282ZM386.663 0.768341V27.6607H359.812V0.768341H386.663ZM359.045 0.768341V27.6607H332.193V0.768341H359.045ZM331.426 0.768341V27.6607L304.574 27.6607V0.768341H331.426ZM303.807 0.768341V27.6607H276.955V0.768341H303.807ZM276.188 0.768341V27.6607H249.337V0.768341H276.188ZM248.569 0.768341V27.6607H221.718V0.768341H248.569ZM220.951 0.768341V27.6607H194.099V0.768341H220.951ZM193.332 0.768341V27.6607H166.48V0.768341H193.332ZM165.713 0.768341V27.6607H138.861V0.768341H165.713ZM138.094 0.768341V27.6607H111.242V0.768341H138.094ZM110.475 0.768341V27.6607H83.6236V0.768341H110.475ZM82.8565 0.768341V27.6607H56.0048V0.768341H82.8565ZM55.2376 0.768341V27.6607H28.386V0.768341H55.2376ZM27.6188 0.768341V27.6607H0.767191L0.767189 0.768341H27.6188ZM469.52 55.3214V28.429H442.668V55.3214H469.52ZM469.52 82.9821V56.0897H442.668V82.9821H469.52ZM469.52 110.643V83.7504H442.668V110.643H469.52ZM469.52 138.303V111.411H442.668V138.303H469.52ZM469.52 165.964V139.072H442.668V165.964H469.52ZM469.52 193.625V166.732H442.668V193.625H469.52ZM469.52 221.285V194.393H442.668V221.285H469.52ZM469.52 248.946V222.054H442.668V248.946H469.52ZM469.52 276.607V249.715H442.668V276.607H469.52ZM469.52 304.268V277.375H442.668V304.268H469.52ZM469.52 331.928V305.036H442.668V331.928H469.52ZM469.52 359.589V332.697H442.668V359.589H469.52ZM469.52 387.25V360.357H442.668V387.25H469.52ZM469.52 414.91V388.018H442.668V414.91H469.52ZM469.52 442.571V415.679H442.668V442.571H469.52ZM469.52 470.232V443.339H442.668V470.232L469.52 470.232ZM441.901 28.429V55.3214H415.049V28.429H441.901ZM414.282 28.429V55.3214H387.431V28.429H414.282ZM386.663 28.429V55.3214H359.812V28.429H386.663ZM359.045 28.429V55.3214H332.193V28.429H359.045ZM331.426 28.429V55.3214L304.574 55.3214V28.429L331.426 28.429ZM303.807 28.429V55.3214H276.955V28.429H303.807ZM276.188 28.429V55.3214H249.337V28.429H276.188ZM248.569 28.429V55.3214H221.718V28.429H248.569ZM220.951 28.429V55.3214H194.099V28.429H220.951ZM193.332 28.429V55.3214H166.48V28.429H193.332ZM165.713 28.429V55.3214H138.861V28.429H165.713ZM138.094 28.429V55.3214H111.242V28.429H138.094ZM110.475 28.429V55.3214H83.6236V28.429H110.475ZM82.8565 28.429V55.3214H56.0048V28.429H82.8565ZM55.2376 28.429V55.3214H28.386V28.429H55.2376ZM27.6188 28.429V55.3214H0.767192L0.767191 28.429H27.6188ZM441.901 82.9821V56.0897H415.049V82.9821H441.901ZM441.901 110.643V83.7504H415.049V110.643H441.901ZM441.901 138.303V111.411H415.049V138.303H441.901ZM441.901 165.964V139.072H415.049V165.964H441.901ZM441.901 193.625V166.732H415.049V193.625H441.901ZM441.901 221.285V194.393H415.049V221.285H441.901ZM441.901 248.946V222.054H415.049V248.946H441.901ZM441.901 276.607V249.715H415.049V276.607H441.901ZM441.901 304.268V277.375H415.049V304.268H441.901ZM441.901 331.928V305.036H415.049V331.928H441.901ZM441.901 359.589V332.697H415.049V359.589H441.901ZM441.901 387.25V360.357H415.049V387.25H441.901ZM441.901 414.91V388.018H415.049V414.91H441.901ZM441.901 442.571V415.679H415.049V442.571H441.901ZM441.901 470.232V443.339H415.049V470.232L441.901 470.232ZM414.282 56.0897V82.9821H387.431V56.0897H414.282ZM386.663 56.0897V82.9821H359.812V56.0897H386.663ZM359.045 56.0897V82.9821H332.193V56.0897H359.045ZM331.426 56.0897V82.9821H304.574V56.0898L331.426 56.0897ZM303.807 56.0898V82.9821H276.955V56.0898H303.807ZM276.188 56.0898V82.9821H249.337V56.0898H276.188ZM248.569 56.0898V82.9821H221.718V56.0898H248.569ZM220.951 56.0898V82.9821H194.099V56.0898H220.951ZM193.332 56.0898V82.9821H166.48V56.0898H193.332ZM165.713 56.0898V82.9821L138.861 82.9821V56.0898H165.713ZM138.094 56.0898V82.9821H111.242V56.0898H138.094ZM110.475 56.0898V82.9821H83.6236V56.0898H110.475ZM82.8565 56.0898V82.9821H56.0048V56.0898H82.8565ZM55.2376 56.0898V82.9821H28.386V56.0898H55.2376ZM27.6188 56.0898V82.9821H0.767193L0.767192 56.0898H27.6188ZM414.282 110.643V83.7504H387.431V110.643H414.282ZM414.282 138.303V111.411H387.431V138.303H414.282ZM414.282 165.964V139.072H387.431V165.964H414.282ZM414.282 193.625V166.732H387.431V193.625H414.282ZM414.282 221.285V194.393H387.431V221.285H414.282ZM414.282 248.946V222.054H387.431L387.431 248.946H414.282ZM414.282 276.607V249.715H387.431V276.607H414.282ZM414.282 304.268V277.375H387.431V304.268H414.282ZM414.282 331.928V305.036H387.431V331.928H414.282ZM414.282 359.589V332.697H387.431V359.589H414.282ZM414.282 387.25V360.357H387.431V387.25H414.282ZM414.282 414.91V388.018H387.431V414.91H414.282ZM414.282 442.571V415.679H387.431V442.571H414.282ZM414.282 470.232V443.339H387.431V470.232L414.282 470.232ZM386.663 83.7504V110.643H359.812V83.7504H386.663ZM359.045 83.7504V110.643H332.193V83.7504H359.045ZM331.426 83.7504V110.643H304.574V83.7504H331.426ZM303.807 83.7504V110.643H276.955V83.7504H303.807ZM276.188 83.7504V110.643H249.337V83.7504H276.188ZM248.569 83.7504V110.643H221.718V83.7504H248.569ZM220.951 83.7504V110.643H194.099V83.7504H220.951ZM193.332 83.7504V110.643H166.48V83.7504H193.332ZM165.713 83.7504V110.643L138.861 110.643V83.7505L165.713 83.7504ZM138.094 83.7505V110.643H111.242V83.7505H138.094ZM110.475 83.7505V110.643H83.6237V83.7505H110.475ZM82.8565 83.7505V110.643H56.0048V83.7505H82.8565ZM55.2377 83.7505V110.643H28.386V83.7505H55.2377ZM27.6188 83.7505V110.643H0.767194L0.767193 83.7505H27.6188ZM386.663 138.303V111.411H359.812V138.303H386.663ZM386.663 165.964V139.072H359.812V165.964H386.663ZM386.663 193.625V166.732H359.812V193.625H386.663ZM386.663 221.285V194.393H359.812V221.285H386.663ZM386.663 248.946L386.663 222.054H359.812L359.812 248.946H386.663ZM386.663 276.607V249.715H359.812V276.607H386.663ZM386.663 304.268V277.375H359.812V304.268H386.663ZM386.663 331.928V305.036H359.812V331.928H386.663ZM386.663 359.589V332.697H359.812V359.589H386.663ZM386.663 387.25V360.357H359.812V387.25H386.663ZM386.663 414.91V388.018H359.812V414.91H386.663ZM386.663 442.571V415.679H359.812V442.571H386.663ZM386.663 470.232V443.339H359.812V470.232L386.663 470.232ZM359.045 111.411V138.303H332.193V111.411H359.045ZM331.426 111.411V138.303H304.574V111.411H331.426ZM303.807 111.411V138.303H276.955V111.411H303.807ZM276.188 111.411V138.303H249.337V111.411H276.188ZM248.569 111.411V138.303H221.718V111.411H248.569ZM220.951 111.411V138.303H194.099V111.411H220.951ZM193.332 111.411V138.303H166.48V111.411H193.332ZM165.713 111.411V138.303L138.861 138.303V111.411L165.713 111.411ZM138.094 111.411V138.303H111.242V111.411H138.094ZM110.475 111.411V138.303H83.6237V111.411H110.475ZM82.8565 111.411V138.303H56.0048V111.411H82.8565ZM55.2377 111.411V138.303H28.386V111.411H55.2377ZM27.6188 111.411V138.303H0.767195L0.767194 111.411H27.6188ZM359.045 165.964V139.072H332.193V165.964H359.045ZM359.045 193.625V166.732H332.193V193.625H359.045ZM359.045 221.285V194.393H332.193V221.285H359.045ZM359.045 248.946V222.054H332.193V248.946H359.045ZM359.045 276.607V249.715H332.193V276.607H359.045ZM359.045 304.268V277.375H332.193V304.268H359.045ZM359.045 331.928V305.036H332.193V331.928H359.045ZM359.045 359.589V332.697H332.193V359.589H359.045ZM359.045 387.25V360.357H332.193V387.25H359.045ZM359.045 414.91V388.018H332.193V414.91H359.045ZM359.045 442.571V415.679H332.193V442.571H359.045ZM359.045 470.232V443.339H332.193V470.232L359.045 470.232ZM331.426 139.072V165.964H304.574V139.072H331.426ZM303.807 139.072V165.964H276.955V139.072H303.807ZM276.188 139.072V165.964H249.337V139.072H276.188ZM248.569 139.072V165.964H221.718V139.072H248.569ZM220.951 139.072V165.964H194.099V139.072H220.951ZM193.332 139.072V165.964H166.48V139.072H193.332ZM165.713 139.072V165.964L138.861 165.964V139.072L165.713 139.072ZM138.094 139.072V165.964H111.242V139.072H138.094ZM110.475 139.072V165.964H83.6237V139.072H110.475ZM82.8565 139.072V165.964H56.0048V139.072H82.8565ZM55.2377 139.072V165.964H28.386V139.072H55.2377ZM27.6188 139.072V165.964H0.767197L0.767195 139.072H27.6188ZM331.426 193.625V166.732H304.574V193.625H331.426ZM331.426 221.285V194.393H304.574V221.285H331.426ZM331.426 248.946V222.054H304.574L304.574 248.946H331.426ZM331.426 276.607V249.715H304.574V276.607H331.426ZM331.426 304.268V277.375H304.574V304.268H331.426ZM331.426 331.928V305.036H304.574V331.928H331.426ZM331.426 359.589V332.697H304.574V359.589H331.426ZM331.426 387.25V360.357H304.574V387.25H331.426ZM331.426 414.91V388.018H304.574V414.91H331.426ZM331.426 442.571V415.679H304.574V442.571H331.426ZM331.426 470.232V443.339H304.574V470.232L331.426 470.232ZM303.807 166.732V193.625H276.955V166.732H303.807ZM276.188 166.732V193.625H249.337V166.732H276.188ZM248.569 166.732V193.625H221.718V166.732H248.569ZM220.951 166.732V193.625H194.099V166.732H220.951ZM193.332 166.732V193.625H166.48V166.732H193.332ZM165.713 166.732V193.625L138.861 193.625V166.732L165.713 166.732ZM138.094 166.732V193.625H111.242V166.732H138.094ZM110.475 166.732V193.625H83.6237V166.732H110.475ZM82.8565 166.732V193.625H56.0048V166.732H82.8565ZM55.2377 166.732V193.625H28.386V166.732H55.2377ZM27.6188 166.732V193.625H0.767198L0.767197 166.732H27.6188ZM303.807 221.285V194.393H276.955V221.285H303.807ZM303.807 248.946L303.807 222.054H276.955L276.955 248.946H303.807ZM303.807 276.607V249.715H276.955V276.607H303.807ZM303.807 304.268V277.375H276.955V304.268H303.807ZM303.807 331.928V305.036H276.955V331.928H303.807ZM303.807 359.589V332.697H276.955V359.589H303.807ZM303.807 387.25V360.357H276.955V387.25H303.807ZM303.807 414.91V388.018H276.955V414.91H303.807ZM303.807 442.571V415.679H276.955V442.571H303.807ZM303.807 470.232V443.339H276.955V470.232L303.807 470.232ZM276.188 194.393V221.285H249.337V194.393H276.188ZM248.569 194.393V221.285H221.718V194.393H248.569ZM220.951 194.393V221.285H194.099V194.393H220.951ZM193.332 194.393V221.285H166.48V194.393H193.332ZM165.713 194.393V221.285H138.861V194.393L165.713 194.393ZM138.094 194.393V221.285H111.242V194.393H138.094ZM110.475 194.393V221.285H83.6237V194.393H110.475ZM82.8565 194.393V221.285H56.0048V194.393H82.8565ZM55.2377 194.393V221.285H28.386V194.393H55.2377ZM27.6188 194.393V221.285H0.767199L0.767198 194.393H27.6188ZM276.188 248.946L276.188 222.054H249.337V248.946H276.188ZM276.188 276.607V249.715H249.337V276.607H276.188ZM276.188 304.268V277.375H249.337V304.268H276.188ZM276.188 331.928V305.036H249.337V331.928H276.188ZM276.188 359.589V332.697H249.337V359.589H276.188ZM276.188 387.25V360.357H249.337V387.25H276.188ZM276.188 414.91V388.018H249.337V414.91H276.188ZM276.188 442.571V415.679H249.337V442.571H276.188ZM276.188 470.232V443.339H249.337V470.232L276.188 470.232ZM248.569 222.054V248.946H221.718V222.054H248.569ZM220.951 222.054V248.946H194.099V222.054H220.951ZM193.332 222.054V248.946H166.48V222.054H193.332ZM165.713 222.054V248.946L138.861 248.946V222.054L165.713 222.054ZM138.094 222.054V248.946H111.242V222.054H138.094ZM110.475 222.054V248.946H83.6237V222.054H110.475ZM82.8565 222.054V248.946H56.0048V222.054H82.8565ZM55.2377 222.054V248.946H28.386V222.054H55.2377ZM27.6188 222.054V248.946H0.7672L0.767199 222.054H27.6188ZM248.569 276.607V249.715H221.718V276.607H248.569ZM248.569 304.268V277.375H221.718V304.268H248.569ZM248.569 331.928V305.036H221.718V331.928H248.569ZM248.569 359.589V332.697H221.718V359.589H248.569ZM248.569 387.25V360.357H221.718V387.25H248.569ZM248.569 414.91V388.018H221.718V414.91H248.569ZM248.569 442.571V415.679H221.718V442.571H248.569ZM248.569 470.232V443.339H221.718V470.232L248.569 470.232ZM220.951 249.715V276.607H194.099V249.715H220.951ZM193.332 249.715V276.607H166.48V249.715H193.332ZM165.713 249.715V276.607H138.861V249.715L165.713 249.715ZM138.094 249.715V276.607H111.242V249.715H138.094ZM110.475 249.715V276.607H83.6237V249.715H110.475ZM82.8565 249.715V276.607H56.0048V249.715H82.8565ZM55.2377 249.715V276.607H28.386V249.715H55.2377ZM27.6188 249.715V276.607H0.767201L0.7672 249.715H27.6188ZM220.951 304.268V277.375H194.099V304.268H220.951ZM220.951 331.928V305.036H194.099V331.928H220.951ZM220.951 359.589V332.697H194.099L194.099 359.589H220.951ZM220.951 387.25V360.357H194.099V387.25H220.951ZM220.951 414.91V388.018H194.099V414.91H220.951ZM220.951 442.571V415.679H194.099V442.571H220.951ZM220.951 470.232V443.339H194.099V470.232L220.951 470.232ZM193.332 277.375V304.268H166.48V277.375H193.332ZM165.713 277.375V304.268H138.861V277.375H165.713ZM138.094 277.375V304.268H111.242V277.375H138.094ZM110.475 277.375V304.268H83.6237V277.375H110.475ZM82.8565 277.375V304.268L56.0048 304.268V277.375L82.8565 277.375ZM55.2377 277.375V304.268H28.386V277.375H55.2377ZM27.6188 277.375V304.268H0.767203L0.767201 277.375H27.6188ZM193.332 331.928V305.036H166.48V331.928H193.332ZM193.332 359.589L193.332 332.697H166.48V359.589H193.332ZM193.332 387.25V360.357H166.48V387.25H193.332ZM193.332 414.91V388.018H166.48V414.91H193.332ZM193.332 442.571V415.679H166.48V442.571H193.332ZM193.332 470.232V443.339H166.48V470.232L193.332 470.232ZM165.713 305.036V331.928H138.861V305.036H165.713ZM138.094 305.036V331.928H111.242V305.036H138.094ZM110.475 305.036V331.928H83.6237V305.036H110.475ZM82.8565 305.036V331.928H56.0048V305.036L82.8565 305.036ZM55.2377 305.036V331.928H28.386V305.036H55.2377ZM27.6188 305.036V331.928H0.767204L0.767203 305.036H27.6188ZM165.713 359.589L165.713 332.697H138.861V359.589H165.713ZM165.713 387.25V360.357H138.861V387.25H165.713ZM165.713 414.91V388.018H138.861V414.91H165.713ZM165.713 442.571V415.679H138.861V442.571H165.713ZM165.713 470.232V443.339H138.861V470.232L165.713 470.232ZM138.094 332.697V359.589H111.242V332.697H138.094ZM110.475 332.697V359.589H83.6237V332.697H110.475ZM82.8565 332.697V359.589L56.0048 359.589V332.697L82.8565 332.697ZM55.2377 332.697V359.589H28.386V332.697H55.2377ZM27.6188 332.697V359.589H0.767205L0.767204 332.697H27.6188ZM138.094 387.25V360.357H111.242V387.25H138.094ZM138.094 414.91V388.018H111.242V414.91H138.094ZM138.094 442.571V415.679H111.242V442.571L138.094 442.571ZM138.094 470.232V443.339L111.242 443.339V470.232L138.094 470.232ZM110.475 360.357V387.25H83.6237V360.357H110.475ZM82.8565 360.357V387.25H56.0048V360.357L82.8565 360.357ZM55.2377 360.357V387.25L28.386 387.25V360.357H55.2377ZM27.6188 360.357V387.25H0.767206L0.767205 360.357H27.6188ZM110.475 414.91V388.018H83.6237V414.91H110.475ZM110.475 442.571V415.679H83.6237V442.571L110.475 442.571ZM110.475 470.232V443.339L83.6237 443.339V470.232L110.475 470.232ZM82.8565 388.018V414.91H56.0048V388.018H82.8565ZM55.2377 388.018V414.91L28.386 414.91V388.018L55.2377 388.018ZM27.6188 388.018V414.91H0.767208L0.767206 388.018H27.6188ZM82.8565 442.571V415.679H56.0048V442.571L82.8565 442.571ZM82.8565 470.232V443.339L56.0048 443.339V470.232L82.8565 470.232ZM55.2377 415.679V442.571L28.386 442.571V415.679L55.2377 415.679ZM27.6188 415.679V442.571L0.767209 442.571L0.767208 415.679H27.6188ZM55.2377 470.232V443.339L28.386 443.339V470.232L55.2377 470.232ZM27.6188 443.339V470.232L0.76721 470.232L0.767209 443.339L27.6188 443.339Z" fill="url(#paint0_radial_103_3258)" fill-opacity="0.2"/>
<defs>
<radialGradient id="paint0_radial_103_3258" cx="0" cy="0" r="1" gradientTransform="matrix(336.628 337.095 455.185 -455.817 66.5272 39.9717)" gradientUnits="userSpaceOnUse">
<stop stop-color="#717171"/>
<stop offset="1" stop-opacity="0"/>
</radialGradient>
</defs>
</svg>
