<svg width="30" height="30" viewBox="0 0 30 30" fill="none" xmlns="http://www.w3.org/2000/svg">
<path d="M23.625 17.9977H21.375C21.1679 17.9977 21 18.132 21 18.2977V19.1977C21 19.3633 21.1679 19.4977 21.375 19.4977H23.625C23.8321 19.4977 24 19.3633 24 19.1977V18.2977C24 18.132 23.8321 17.9977 23.625 17.9977Z" fill="white"/>
<path d="M23.625 11.2477H21.375C21.1679 11.2477 21 11.382 21 11.5477V12.4477C21 12.6133 21.1679 12.7477 21.375 12.7477H23.625C23.8321 12.7477 24 12.6133 24 12.4477V11.5477C24 11.382 23.8321 11.2477 23.625 11.2477Z" fill="white"/>
<path d="M23.625 7.87265H21.375C21.1679 7.87265 21 8.00696 21 8.17265V9.07265C21 9.23834 21.1679 9.37265 21.375 9.37265H23.625C23.8321 9.37265 24 9.23834 24 9.07265V8.17265C24 8.00696 23.8321 7.87265 23.625 7.87265Z" fill="white"/>
<path d="M23.625 4.49765H21.375C21.1679 4.49765 21 4.63196 21 4.79765V5.69765C21 5.86334 21.1679 5.99765 21.375 5.99765H23.625C23.8321 5.99765 24 5.86334 24 5.69765V4.79765C24 4.63196 23.8321 4.49765 23.625 4.49765Z" fill="white"/>
<path d="M23.625 14.6227H21.375C21.1679 14.6227 21 14.757 21 14.9227V15.8227C21 15.9883 21.1679 16.1227 21.375 16.1227H23.625C23.8321 16.1227 24 15.9883 24 15.8227V14.9227C24 14.757 23.8321 14.6227 23.625 14.6227Z" fill="white"/>
<path d="M6.00391 23.625V21.375C6.00391 21.1679 5.86959 21 5.70391 21H4.80391C4.63822 21 4.50391 21.1679 4.50391 21.375V23.625C4.50391 23.8321 4.63822 24 4.80391 24H5.70391C5.86959 24 6.00391 23.8321 6.00391 23.625Z" fill="white"/>
<path d="M12.7539 23.625V21.375C12.7539 21.1679 12.6196 21 12.4539 21H11.5539C11.3882 21 11.2539 21.1679 11.2539 21.375V23.625C11.2539 23.8321 11.3882 24 11.5539 24H12.4539C12.6196 24 12.7539 23.8321 12.7539 23.625Z" fill="white"/>
<path d="M16.1289 23.625V21.375C16.1289 21.1679 15.9946 21 15.8289 21H14.9289C14.7632 21 14.6289 21.1679 14.6289 21.375V23.625C14.6289 23.8321 14.7632 24 14.9289 24H15.8289C15.9946 24 16.1289 23.8321 16.1289 23.625Z" fill="white"/>
<path d="M19.5039 23.625V21.375C19.5039 21.1679 19.3696 21 19.2039 21H18.3039C18.1382 21 18.0039 21.1679 18.0039 21.375V23.625C18.0039 23.8321 18.1382 24 18.3039 24H19.2039C19.3696 24 19.5039 23.8321 19.5039 23.625Z" fill="white"/>
<path d="M9.37891 23.625V21.375C9.37891 21.1679 9.24459 21 9.07891 21H8.17891C8.01322 21 7.87891 21.1679 7.87891 21.375V23.625C7.87891 23.8321 8.01322 24 8.17891 24H9.07891C9.24459 24 9.37891 23.8321 9.37891 23.625Z" fill="white"/>
<path d="M2.625 17.9969H0.375C0.167893 17.9969 0 18.1312 0 18.2969V19.1969C0 19.3626 0.167893 19.4969 0.375 19.4969H2.625C2.83211 19.4969 3 19.3626 3 19.1969V18.2969C3 18.1312 2.83211 17.9969 2.625 17.9969Z" fill="white"/>
<path d="M2.625 11.2469H0.375C0.167893 11.2469 0 11.3812 0 11.5469V12.4469C0 12.6126 0.167893 12.7469 0.375 12.7469H2.625C2.83211 12.7469 3 12.6126 3 12.4469V11.5469C3 11.3812 2.83211 11.2469 2.625 11.2469Z" fill="white"/>
<path d="M2.625 7.87187H0.375C0.167893 7.87187 0 8.00619 0 8.17187V9.07187C0 9.23756 0.167893 9.37187 0.375 9.37187H2.625C2.83211 9.37187 3 9.23756 3 9.07187V8.17187C3 8.00619 2.83211 7.87187 2.625 7.87187Z" fill="white"/>
<path d="M2.625 4.49687H0.375C0.167893 4.49687 0 4.63119 0 4.79687V5.69687C0 5.86256 0.167893 5.99687 0.375 5.99687H2.625C2.83211 5.99687 3 5.86256 3 5.69687V4.79687C3 4.63119 2.83211 4.49687 2.625 4.49687Z" fill="white"/>
<path d="M2.625 14.6219H0.375C0.167893 14.6219 0 14.7562 0 14.9219V15.8219C0 15.9876 0.167893 16.1219 0.375 16.1219H2.625C2.83211 16.1219 3 15.9876 3 15.8219V14.9219C3 14.7562 2.83211 14.6219 2.625 14.6219Z" fill="white"/>
<path d="M6.00391 2.625V0.375C6.00391 0.167893 5.86959 0 5.70391 0H4.80391C4.63822 0 4.50391 0.167893 4.50391 0.375V2.625C4.50391 2.83211 4.63822 3 4.80391 3H5.70391C5.86959 3 6.00391 2.83211 6.00391 2.625Z" fill="white"/>
<path d="M12.7539 2.625V0.375C12.7539 0.167893 12.6196 0 12.4539 0H11.5539C11.3882 0 11.2539 0.167893 11.2539 0.375V2.625C11.2539 2.83211 11.3882 3 11.5539 3H12.4539C12.6196 3 12.7539 2.83211 12.7539 2.625Z" fill="white"/>
<path d="M16.1289 2.625V0.375C16.1289 0.167893 15.9946 0 15.8289 0H14.9289C14.7632 0 14.6289 0.167893 14.6289 0.375V2.625C14.6289 2.83211 14.7632 3 14.9289 3H15.8289C15.9946 3 16.1289 2.83211 16.1289 2.625Z" fill="white"/>
<path d="M19.5039 2.625V0.375C19.5039 0.167893 19.3696 0 19.2039 0H18.3039C18.1382 0 18.0039 0.167893 18.0039 0.375V2.625C18.0039 2.83211 18.1382 3 18.3039 3H19.2039C19.3696 3 19.5039 2.83211 19.5039 2.625Z" fill="white"/>
<path d="M9.37891 2.625V0.375C9.37891 0.167893 9.24459 0 9.07891 0H8.17891C8.01322 0 7.87891 0.167893 7.87891 0.375V2.625C7.87891 2.83211 8.01322 3 8.17891 3H9.07891C9.24459 3 9.37891 2.83211 9.37891 2.625Z" fill="white"/>
<path d="M20.6625 2.47188H3.3375C2.944 2.47188 2.625 2.72708 2.625 3.04188V20.8019C2.625 21.1167 2.944 21.3719 3.3375 21.3719H20.6625C21.056 21.3719 21.375 21.1167 21.375 20.8019V3.04188C21.375 2.72708 21.056 2.47188 20.6625 2.47188Z" fill="black"/>
<path d="M15.9937 14.2625C15.2063 15.6575 13.7062 16.5875 12 16.5875C9.46875 16.5875 7.40625 14.5325 7.40625 11.9975C7.40625 9.46249 9.46875 7.40749 12 7.40749C13.7062 7.40749 15.2063 8.35249 15.9937 9.74749L18.4312 8.33749C17.1562 6.10249 14.7562 4.58749 12 4.58749C7.9125 4.58749 4.59375 7.90249 4.59375 11.9975C4.59375 16.0925 7.9125 19.4075 12 19.4075C14.7375 19.4075 17.1375 17.9075 18.4125 15.7025L15.9937 14.2625Z" fill="white"/>
<path d="M4.3125 4.88687C4.62316 4.88687 4.875 4.63167 4.875 4.31687C4.875 4.00207 4.62316 3.74687 4.3125 3.74687C4.00184 3.74687 3.75 4.00207 3.75 4.31687C3.75 4.63167 4.00184 4.88687 4.3125 4.88687Z" fill="white"/>
</svg>
