<svg width="261" height="362" viewBox="0 0 261 362" fill="none" xmlns="http://www.w3.org/2000/svg">
<g opacity="0.05">
<path d="M-78.5857 44.639C-58.7915 24.4379 -32.9412 14.0891 -0.0722656 14.0891C32.3003 14.0891 58.2212 24.4202 78.5366 44.7358L78.5499 44.7492L78.5632 44.7624C97.1995 63.2608 106.865 87.9412 106.865 119.869V340.631L80.7497 353.001V103.642C80.7497 81.0553 74.6384 61.7567 61.584 46.7076C45.786 28.4326 24.9212 19.3423 -0.0722656 19.3423C-25.0659 19.3423 -45.9307 28.4326 -61.7287 46.7076C-74.7831 61.7567 -80.8944 81.0553 -80.8944 103.642V340.631L-107.01 353.001V119.869C-107.01 88.7976 -97.3905 64.0054 -78.5857 44.639Z" fill="#D9EEEA" stroke="#D9EEEA" stroke-width="5.65078"/>
<path d="M203.682 31.3635C237.364 51.237 254.619 77.191 254.619 110.192L245.86 110.192C245.86 85.0979 230.704 64.1494 200.233 48.2881C175.141 35.1813 142.964 29.0455 105.304 29.0455L-233.327 29.0455L-253.952 2.82542L78.2495 2.82543C130.055 2.82544 171.392 12.4833 203.682 31.3635Z" fill="#D9EEEA" stroke="#D9EEEA" stroke-width="5.65078"/>
<path d="M-203.063 330.287C-236.745 310.414 -254 284.46 -254 251.459L-245.241 251.459C-245.241 276.553 -230.085 297.501 -199.614 313.363C-174.522 326.47 -142.345 332.605 -104.685 332.605L233.946 332.605L254.572 358.825L-77.6304 358.825C-129.436 358.825 -170.773 349.168 -203.063 330.287Z" fill="#D9EEEA" stroke="#D9EEEA" stroke-width="5.65078"/>
</g>
</svg>
