<svg width="52" height="52" viewBox="0 0 52 52" fill="none" xmlns="http://www.w3.org/2000/svg">
<g clip-path="url(#clip0_3_916)">
<path d="M39.8125 0H12.1875C5.45653 0 0 5.45653 0 12.1875V39.8125C0 46.5435 5.45653 52 12.1875 52H39.8125C46.5435 52 52 46.5435 52 39.8125V12.1875C52 5.45653 46.5435 0 39.8125 0Z" fill="#000001"/>
<path d="M8.22656 23.0007C8.14531 23.0007 8.125 22.96 8.16563 22.8991L8.59219 22.3507C8.63281 22.2897 8.73438 22.2491 8.81563 22.2491H16.0672C16.1484 22.2491 16.1688 22.31 16.1281 22.371L15.7828 22.8991C15.7422 22.96 15.6406 23.021 15.5797 23.021L8.22656 23.0007ZM5.15937 24.8694C5.07812 24.8694 5.05781 24.8288 5.09844 24.7678L5.525 24.2194C5.56563 24.1585 5.66719 24.1178 5.74844 24.1178H15.0109C15.0922 24.1178 15.1328 24.1788 15.1125 24.2397L14.95 24.7272C14.9297 24.8085 14.8484 24.8491 14.7672 24.8491L5.15937 24.8694ZM10.075 26.7382C9.99375 26.7382 9.97344 26.6772 10.0141 26.6163L10.2984 26.1085C10.3391 26.0475 10.4203 25.9866 10.5016 25.9866H14.5641C14.6453 25.9866 14.6859 26.0475 14.6859 26.1288L14.6453 26.6163C14.6453 26.6975 14.5641 26.7585 14.5031 26.7585L10.075 26.7382ZM31.1594 22.635C29.8797 22.96 29.0063 23.2038 27.7469 23.5288C27.4422 23.61 27.4219 23.6303 27.1578 23.3257C26.8531 22.9803 26.6297 22.7569 26.2031 22.5538C24.9234 21.9241 23.6844 22.1069 22.5266 22.8585C21.1453 23.7522 20.4344 25.0725 20.4547 26.7178C20.475 28.3428 21.5922 29.6835 23.1969 29.9069C24.5781 30.0897 25.7359 29.6022 26.65 28.5663C26.8328 28.3428 26.9953 28.0991 27.1984 27.8147H23.2781C22.8516 27.8147 22.75 27.5507 22.8922 27.2053C23.1562 26.5757 23.6438 25.5194 23.9281 24.9913C23.9891 24.8694 24.1313 24.6663 24.4359 24.6663H31.8297C31.7891 25.2147 31.7891 25.7632 31.7078 26.3116C31.4844 27.7741 30.9359 29.1147 30.0422 30.2928C28.5797 32.2225 26.6703 33.421 24.2531 33.746C22.2625 34.01 20.4141 33.6241 18.7891 32.4053C17.2859 31.2678 16.4328 29.7647 16.2094 27.896C15.9453 25.6819 16.5953 23.6913 17.9359 21.9444C19.3781 20.0553 21.2875 18.8569 23.6234 18.4303C25.5328 18.085 27.3609 18.3085 29.0063 19.4257C30.0828 20.1366 30.8547 21.1116 31.3625 22.2897C31.4844 22.4725 31.4031 22.5741 31.1594 22.635Z" fill="white"/>
<path d="M37.8828 33.8678C36.0344 33.8272 34.3484 33.2991 32.9265 32.0803C31.7281 31.0444 30.9765 29.7241 30.7328 28.16C30.3672 25.8647 30.9969 23.8335 32.3781 22.0257C33.8609 20.0757 35.6484 19.06 38.0656 18.6335C40.1375 18.2678 42.0875 18.471 43.8547 19.6694C45.4594 20.7663 46.4547 22.2491 46.7187 24.1991C47.064 26.9413 46.2719 29.1756 44.3828 31.085C43.0422 32.446 41.3969 33.2991 39.5078 33.685C38.9594 33.7866 38.4109 33.8069 37.8828 33.8678ZM42.7172 25.6616C42.6969 25.3975 42.6969 25.1944 42.6562 24.9913C42.2906 22.9803 40.4422 21.8428 38.5125 22.2897C36.6234 22.7163 35.4047 23.9147 34.9578 25.8241C34.5922 27.4085 35.364 29.0132 36.8265 29.6631C37.9437 30.1507 39.0609 30.0897 40.1375 29.5413C41.7422 28.7085 42.6156 27.4085 42.7172 25.6616Z" fill="white"/>
</g>
<defs>
<clipPath id="clip0_3_916">
<rect width="52" height="52" fill="white"/>
</clipPath>
</defs>
</svg>
