<svg xmlns="http://www.w3.org/2000/svg" width="37" height="26" viewBox="0 0 37 26" fill="none">
<path d="M13.0356 3.65409C14.3939 2.2678 16.1679 1.55762 18.4236 1.55762C20.6451 1.55762 22.4239 2.26659 23.8181 3.66074L23.819 3.66165L23.8199 3.66256C25.0988 4.93201 25.7621 6.62569 25.7621 8.81669V23.9664L23.97 24.8153V7.70317C23.97 6.15314 23.5506 4.82879 22.6547 3.79605C21.5706 2.54193 20.1387 1.91812 18.4236 1.91812C16.7084 1.91812 15.2765 2.54193 14.1924 3.79605C13.2965 4.82879 12.8771 6.15314 12.8771 7.70317V23.9664L11.085 24.8153V8.81669C11.085 6.68446 11.7451 4.98311 13.0356 3.65409Z" fill="#D9EEEA" stroke="#D9EEEA" stroke-width="0.387784"/>
<path d="M32.4068 2.74308C34.7182 4.10689 35.9023 5.88798 35.9023 8.15264L35.3013 8.15264C35.3013 6.43058 34.2611 4.993 32.1701 3.90453C30.4482 3.00507 28.24 2.58401 25.6556 2.58401L2.41705 2.58401L1.00159 0.784666L23.799 0.784667C27.3541 0.784668 30.1909 1.44744 32.4068 2.74308Z" fill="#D9EEEA" stroke="#D9EEEA" stroke-width="0.387784"/>
<path d="M4.49555 23.2567C2.18412 21.8929 1 20.1118 1 17.8471L1.60107 17.8471C1.60107 19.5692 2.6412 21.0068 4.73224 22.0952C6.45417 22.9947 8.66232 23.4157 11.2467 23.4157L34.4853 23.4157L35.9007 25.2151L13.1034 25.2151C9.54821 25.2151 6.71147 24.5523 4.49555 23.2567Z" fill="#D9EEEA" stroke="#D9EEEA" stroke-width="0.387784"/>
</svg>