<svg xmlns="http://www.w3.org/2000/svg" width="30" height="30" viewBox="0 0 30 30" fill="none">
  <rect width="28" height="28" rx="14" transform="matrix(-1 0 0 1 29 1)" stroke="black" stroke-opacity="0.6"/>
  <path d="M14.067 19.824L10.2193 15.6608C10.1493 15.5816 10.0944 15.4882 10.0577 15.386C9.98076 15.1833 9.98076 14.9559 10.0577 14.7532C10.0944 14.651 10.1493 14.5576 10.2193 14.4784L14.067 10.3152C14.1387 10.2376 14.2239 10.176 14.3176 10.134C14.4114 10.0919 14.5118 10.0703 14.6133 10.0703C14.8182 10.0703 15.0148 10.1584 15.1597 10.3152C15.3046 10.472 15.386 10.6846 15.386 10.9064C15.386 11.1281 15.3046 11.3408 15.1597 11.4975L12.6202 14.237L19.2305 14.237C19.4346 14.237 19.6303 14.3247 19.7746 14.4808C19.9189 14.637 20 14.8488 20 15.0696C20 15.2904 19.9189 15.5022 19.7746 15.6584C19.6303 15.8145 19.4346 15.9022 19.2305 15.9022L12.6202 15.9022L15.1597 18.6417C15.2318 18.7191 15.2891 18.8112 15.3281 18.9126C15.3672 19.0141 15.3873 19.1229 15.3873 19.2328C15.3873 19.3428 15.3672 19.4516 15.3281 19.5531C15.2891 19.6545 15.2318 19.7466 15.1597 19.824C15.0881 19.9021 15.003 19.964 14.9093 20.0063C14.8155 20.0485 14.7149 20.0703 14.6133 20.0703C14.5117 20.0703 14.4112 20.0485 14.3174 20.0063C14.2236 19.964 14.1385 19.9021 14.067 19.824Z" fill="black" fill-opacity="0.6"/>
</svg>