<svg width="187" height="26" viewBox="0 0 187 26" fill="none" xmlns="http://www.w3.org/2000/svg">
<path d="M13.0356 3.65409C14.3939 2.2678 16.1679 1.55762 18.4236 1.55762C20.6451 1.55762 22.4239 2.26659 23.8181 3.66074L23.819 3.66165L23.8199 3.66256C25.0988 4.93201 25.7621 6.62569 25.7621 8.81669V23.9664L23.97 24.8153V7.70317C23.97 6.15314 23.5506 4.82879 22.6547 3.79605C21.5706 2.54193 20.1387 1.91812 18.4236 1.91812C16.7084 1.91812 15.2765 2.54193 14.1924 3.79605C13.2965 4.82879 12.8771 6.15314 12.8771 7.70317V23.9664L11.085 24.8153V8.81669C11.085 6.68446 11.7451 4.98311 13.0356 3.65409Z" fill="#D9EEEA" stroke="#D9EEEA" stroke-width="0.387784"/>
<path d="M32.4068 2.74308C34.7182 4.10689 35.9023 5.88798 35.9023 8.15264L35.3013 8.15264C35.3013 6.43058 34.2611 4.993 32.1701 3.90453C30.4482 3.00507 28.24 2.58401 25.6556 2.58401L2.41705 2.58401L1.00159 0.784666L23.799 0.784667C27.3541 0.784668 30.1909 1.44744 32.4068 2.74308Z" fill="#D9EEEA" stroke="#D9EEEA" stroke-width="0.387784"/>
<path d="M4.49555 23.2567C2.18412 21.8929 1 20.1118 1 17.8471L1.60107 17.8471C1.60107 19.5692 2.6412 21.0068 4.73224 22.0952C6.45417 22.9947 8.66232 23.4157 11.2467 23.4157L34.4853 23.4157L35.9007 25.2151L13.1034 25.2151C9.54821 25.2151 6.71147 24.5523 4.49555 23.2567Z" fill="#D9EEEA" stroke="#D9EEEA" stroke-width="0.387784"/>
<mask id="path-4-outside-1_101_2328" maskUnits="userSpaceOnUse" x="46.7686" y="0.89502" width="140" height="24" fill="black">
<rect fill="white" x="46.7686" y="0.89502" width="140" height="24"/>
<path fillRule="evenodd" clipRule="evenodd" d="M122.181 23.285V1.90413L120.47 2.71446V24.0953L122.181 23.285ZM152.701 18.2383V1.90413L150.991 2.71446V17.1754C150.991 19.2668 151.624 20.8834 152.844 22.0952L152.845 22.096L152.846 22.0969C154.177 23.4277 155.875 24.1044 157.995 24.1044C160.149 24.1044 161.843 23.4262 163.14 22.1022C164.371 20.8338 165 19.2101 165 17.1754V1.90413L163.29 2.71445V18.2383C163.29 19.7178 162.889 20.982 162.034 21.9677C160.999 23.1648 159.633 23.7603 157.995 23.7603C156.358 23.7603 154.992 23.1648 153.957 21.9677C153.102 20.982 152.701 19.7178 152.701 18.2383ZM49.6293 3.89734C50.9261 2.57331 52.6198 1.89502 54.7735 1.89502C57.0167 1.89502 58.6981 2.57803 59.9047 3.88368L59.9055 3.88459L59.9063 3.88549C61.0638 5.12865 61.6764 6.52867 61.7667 8.10631L60.0677 8.91108V7.76116C60.0677 6.29856 59.6658 5.03937 58.8176 4.03786C57.7996 2.83287 56.4281 2.23913 54.7735 2.23913C53.1367 2.23913 51.7703 2.83425 50.7356 4.03066C49.8781 5.00827 49.4792 6.27427 49.4792 7.76116V18.2383C49.4792 19.7094 49.8804 20.9711 50.7321 21.9648L50.733 21.9658L50.7339 21.9668C51.7688 23.1645 53.1358 23.7603 54.7735 23.7603C56.4108 23.7603 57.7777 23.1647 58.8126 21.9674C59.65 21.0018 60.0677 19.8489 60.0677 18.542V13.1718H55.3516L55.5134 12.8277H61.7784V17.1754C61.7784 19.2219 61.1477 20.8446 59.9179 22.1018L59.9177 22.102L59.9176 22.1021C58.6209 23.4261 56.9272 24.1044 54.7735 24.1044C52.6196 24.1044 50.9259 23.426 49.6291 22.1018C48.3993 20.8446 47.7686 19.2219 47.7686 17.1754V8.82405C47.7686 6.77748 48.3993 5.15482 49.6291 3.89759L49.6292 3.89746L49.6293 3.89734ZM88.623 3.89658C89.9197 2.57305 91.6132 1.89502 93.7664 1.89502C95.6768 1.89502 97.2844 2.5597 98.6272 3.90252C98.9591 4.23435 99.1869 4.53642 99.33 4.8068L99.8545 5.79755L100.47 4.8607C100.674 4.55068 100.925 4.24861 101.228 3.95523L101.229 3.954L101.23 3.95275C102.644 2.56696 104.247 1.89502 106.066 1.89502C108.175 1.89502 109.874 2.57122 111.217 3.90413L111.217 3.90419L111.217 3.90426C112.437 5.11599 113.071 6.73267 113.071 8.82405V23.285L111.36 24.0953V7.76116C111.36 6.28161 110.96 5.01746 110.104 4.03168C109.07 2.83458 107.703 2.23913 106.066 2.23913C104.428 2.23913 103.061 2.83491 102.026 4.03265C101.171 5.0183 100.771 6.28208 100.771 7.76116V23.285L99.0607 24.0953V7.76116C99.0607 6.28209 98.6606 5.0183 97.8061 4.03265C96.7711 2.83491 95.4041 2.23913 93.7664 2.23913C92.1288 2.23913 90.7618 2.83491 89.7268 4.03265C88.8722 5.0183 88.4722 6.28208 88.4722 7.76116V23.285L86.7615 24.0953V8.82405C86.7615 6.78898 87.3915 5.16511 88.623 3.89658ZM131.443 3.89618C132.739 2.57291 134.433 1.89502 136.586 1.89502C138.706 1.89502 140.404 2.57175 141.735 3.90252L141.736 3.90339L141.737 3.90426C142.958 5.11599 143.591 6.73267 143.591 8.82405V23.285L141.88 24.0953V7.76116C141.88 6.28161 141.48 5.01746 140.625 4.03168C139.59 2.83458 138.223 2.23913 136.586 2.23913C134.949 2.23913 133.582 2.83458 132.547 4.03168C131.692 5.01746 131.292 6.28161 131.292 7.76116V23.285L129.581 24.0953V8.82405C129.581 6.78876 130.211 5.16477 131.443 3.89618ZM174.798 3.20398C175.858 2.34147 177.177 1.89502 178.798 1.89502C180.419 1.89502 181.738 2.34139 182.798 3.20374C183.786 4.009 184.335 5.08168 184.423 6.48211L182.725 7.28636V6.31866C182.725 5.03926 182.357 3.96652 181.509 3.23559C180.746 2.57032 179.831 2.23913 178.798 2.23913C177.664 2.23913 176.693 2.60193 175.952 3.36745C175.171 4.17506 174.87 5.46941 174.87 7.0475C174.87 8.42771 175.092 9.58156 175.723 10.2837C176.483 11.1331 177.541 11.5218 178.798 11.5218C181.264 11.5218 182.969 12.0765 184.042 13.0619C185.198 14.1284 185.788 15.519 185.788 17.2968C185.788 19.2011 185.168 20.7931 183.932 22.1124C182.692 23.4239 181.006 24.1044 178.798 24.1044C176.588 24.1044 174.902 23.4232 173.662 22.1106C172.507 20.8875 171.894 19.4894 171.804 17.8932L173.504 17.0884V18.4205C173.504 19.7957 173.914 20.9926 174.758 21.9668C175.793 23.1645 177.16 23.7603 178.798 23.7603C180.426 23.7603 181.791 23.1639 182.834 21.9703C183.717 20.9634 184.077 19.3545 184.077 17.3272C184.077 15.7145 183.779 14.3949 183.038 13.526C182.062 12.3802 180.601 11.8659 178.798 11.8659C176.964 11.8659 175.538 11.3591 174.457 10.3954C173.615 9.63713 173.159 8.54849 173.159 7.03231C173.159 5.32412 173.722 4.07989 174.798 3.20398ZM69.1782 2.71521L70.2732 2.1987H78.7785L78.6168 2.54281H70.8889V12.8277H78.7785L78.6168 13.1718H70.8889V23.4566H81.3143L81.1525 23.8007H69.1782V2.71521Z"/>
</mask>
<path fillRule="evenodd" clipRule="evenodd" d="M122.181 23.285V1.90413L120.47 2.71446V24.0953L122.181 23.285ZM152.701 18.2383V1.90413L150.991 2.71446V17.1754C150.991 19.2668 151.624 20.8834 152.844 22.0952L152.845 22.096L152.846 22.0969C154.177 23.4277 155.875 24.1044 157.995 24.1044C160.149 24.1044 161.843 23.4262 163.14 22.1022C164.371 20.8338 165 19.2101 165 17.1754V1.90413L163.29 2.71445V18.2383C163.29 19.7178 162.889 20.982 162.034 21.9677C160.999 23.1648 159.633 23.7603 157.995 23.7603C156.358 23.7603 154.992 23.1648 153.957 21.9677C153.102 20.982 152.701 19.7178 152.701 18.2383ZM49.6293 3.89734C50.9261 2.57331 52.6198 1.89502 54.7735 1.89502C57.0167 1.89502 58.6981 2.57803 59.9047 3.88368L59.9055 3.88459L59.9063 3.88549C61.0638 5.12865 61.6764 6.52867 61.7667 8.10631L60.0677 8.91108V7.76116C60.0677 6.29856 59.6658 5.03937 58.8176 4.03786C57.7996 2.83287 56.4281 2.23913 54.7735 2.23913C53.1367 2.23913 51.7703 2.83425 50.7356 4.03066C49.8781 5.00827 49.4792 6.27427 49.4792 7.76116V18.2383C49.4792 19.7094 49.8804 20.9711 50.7321 21.9648L50.733 21.9658L50.7339 21.9668C51.7688 23.1645 53.1358 23.7603 54.7735 23.7603C56.4108 23.7603 57.7777 23.1647 58.8126 21.9674C59.65 21.0018 60.0677 19.8489 60.0677 18.542V13.1718H55.3516L55.5134 12.8277H61.7784V17.1754C61.7784 19.2219 61.1477 20.8446 59.9179 22.1018L59.9177 22.102L59.9176 22.1021C58.6209 23.4261 56.9272 24.1044 54.7735 24.1044C52.6196 24.1044 50.9259 23.426 49.6291 22.1018C48.3993 20.8446 47.7686 19.2219 47.7686 17.1754V8.82405C47.7686 6.77748 48.3993 5.15482 49.6291 3.89759L49.6292 3.89746L49.6293 3.89734ZM88.623 3.89658C89.9197 2.57305 91.6132 1.89502 93.7664 1.89502C95.6768 1.89502 97.2844 2.5597 98.6272 3.90252C98.9591 4.23435 99.1869 4.53642 99.33 4.8068L99.8545 5.79755L100.47 4.8607C100.674 4.55068 100.925 4.24861 101.228 3.95523L101.229 3.954L101.23 3.95275C102.644 2.56696 104.247 1.89502 106.066 1.89502C108.175 1.89502 109.874 2.57122 111.217 3.90413L111.217 3.90419L111.217 3.90426C112.437 5.11599 113.071 6.73267 113.071 8.82405V23.285L111.36 24.0953V7.76116C111.36 6.28161 110.96 5.01746 110.104 4.03168C109.07 2.83458 107.703 2.23913 106.066 2.23913C104.428 2.23913 103.061 2.83491 102.026 4.03265C101.171 5.0183 100.771 6.28208 100.771 7.76116V23.285L99.0607 24.0953V7.76116C99.0607 6.28209 98.6606 5.0183 97.8061 4.03265C96.7711 2.83491 95.4041 2.23913 93.7664 2.23913C92.1288 2.23913 90.7618 2.83491 89.7268 4.03265C88.8722 5.0183 88.4722 6.28208 88.4722 7.76116V23.285L86.7615 24.0953V8.82405C86.7615 6.78898 87.3915 5.16511 88.623 3.89658ZM131.443 3.89618C132.739 2.57291 134.433 1.89502 136.586 1.89502C138.706 1.89502 140.404 2.57175 141.735 3.90252L141.736 3.90339L141.737 3.90426C142.958 5.11599 143.591 6.73267 143.591 8.82405V23.285L141.88 24.0953V7.76116C141.88 6.28161 141.48 5.01746 140.625 4.03168C139.59 2.83458 138.223 2.23913 136.586 2.23913C134.949 2.23913 133.582 2.83458 132.547 4.03168C131.692 5.01746 131.292 6.28161 131.292 7.76116V23.285L129.581 24.0953V8.82405C129.581 6.78876 130.211 5.16477 131.443 3.89618ZM174.798 3.20398C175.858 2.34147 177.177 1.89502 178.798 1.89502C180.419 1.89502 181.738 2.34139 182.798 3.20374C183.786 4.009 184.335 5.08168 184.423 6.48211L182.725 7.28636V6.31866C182.725 5.03926 182.357 3.96652 181.509 3.23559C180.746 2.57032 179.831 2.23913 178.798 2.23913C177.664 2.23913 176.693 2.60193 175.952 3.36745C175.171 4.17506 174.87 5.46941 174.87 7.0475C174.87 8.42771 175.092 9.58156 175.723 10.2837C176.483 11.1331 177.541 11.5218 178.798 11.5218C181.264 11.5218 182.969 12.0765 184.042 13.0619C185.198 14.1284 185.788 15.519 185.788 17.2968C185.788 19.2011 185.168 20.7931 183.932 22.1124C182.692 23.4239 181.006 24.1044 178.798 24.1044C176.588 24.1044 174.902 23.4232 173.662 22.1106C172.507 20.8875 171.894 19.4894 171.804 17.8932L173.504 17.0884V18.4205C173.504 19.7957 173.914 20.9926 174.758 21.9668C175.793 23.1645 177.16 23.7603 178.798 23.7603C180.426 23.7603 181.791 23.1639 182.834 21.9703C183.717 20.9634 184.077 19.3545 184.077 17.3272C184.077 15.7145 183.779 14.3949 183.038 13.526C182.062 12.3802 180.601 11.8659 178.798 11.8659C176.964 11.8659 175.538 11.3591 174.457 10.3954C173.615 9.63713 173.159 8.54849 173.159 7.03231C173.159 5.32412 173.722 4.07989 174.798 3.20398ZM69.1782 2.71521L70.2732 2.1987H78.7785L78.6168 2.54281H70.8889V12.8277H78.7785L78.6168 13.1718H70.8889V23.4566H81.3143L81.1525 23.8007H69.1782V2.71521Z" fill="#D9EEEA"/>
<path fillRule="evenodd" clipRule="evenodd" d="M122.181 23.285V1.90413L120.47 2.71446V24.0953L122.181 23.285ZM152.701 18.2383V1.90413L150.991 2.71446V17.1754C150.991 19.2668 151.624 20.8834 152.844 22.0952L152.845 22.096L152.846 22.0969C154.177 23.4277 155.875 24.1044 157.995 24.1044C160.149 24.1044 161.843 23.4262 163.14 22.1022C164.371 20.8338 165 19.2101 165 17.1754V1.90413L163.29 2.71445V18.2383C163.29 19.7178 162.889 20.982 162.034 21.9677C160.999 23.1648 159.633 23.7603 157.995 23.7603C156.358 23.7603 154.992 23.1648 153.957 21.9677C153.102 20.982 152.701 19.7178 152.701 18.2383ZM49.6293 3.89734C50.9261 2.57331 52.6198 1.89502 54.7735 1.89502C57.0167 1.89502 58.6981 2.57803 59.9047 3.88368L59.9055 3.88459L59.9063 3.88549C61.0638 5.12865 61.6764 6.52867 61.7667 8.10631L60.0677 8.91108V7.76116C60.0677 6.29856 59.6658 5.03937 58.8176 4.03786C57.7996 2.83287 56.4281 2.23913 54.7735 2.23913C53.1367 2.23913 51.7703 2.83425 50.7356 4.03066C49.8781 5.00827 49.4792 6.27427 49.4792 7.76116V18.2383C49.4792 19.7094 49.8804 20.9711 50.7321 21.9648L50.733 21.9658L50.7339 21.9668C51.7688 23.1645 53.1358 23.7603 54.7735 23.7603C56.4108 23.7603 57.7777 23.1647 58.8126 21.9674C59.65 21.0018 60.0677 19.8489 60.0677 18.542V13.1718H55.3516L55.5134 12.8277H61.7784V17.1754C61.7784 19.2219 61.1477 20.8446 59.9179 22.1018L59.9177 22.102L59.9176 22.1021C58.6209 23.4261 56.9272 24.1044 54.7735 24.1044C52.6196 24.1044 50.9259 23.426 49.6291 22.1018C48.3993 20.8446 47.7686 19.2219 47.7686 17.1754V8.82405C47.7686 6.77748 48.3993 5.15482 49.6291 3.89759L49.6292 3.89746L49.6293 3.89734ZM88.623 3.89658C89.9197 2.57305 91.6132 1.89502 93.7664 1.89502C95.6768 1.89502 97.2844 2.5597 98.6272 3.90252C98.9591 4.23435 99.1869 4.53642 99.33 4.8068L99.8545 5.79755L100.47 4.8607C100.674 4.55068 100.925 4.24861 101.228 3.95523L101.229 3.954L101.23 3.95275C102.644 2.56696 104.247 1.89502 106.066 1.89502C108.175 1.89502 109.874 2.57122 111.217 3.90413L111.217 3.90419L111.217 3.90426C112.437 5.11599 113.071 6.73267 113.071 8.82405V23.285L111.36 24.0953V7.76116C111.36 6.28161 110.96 5.01746 110.104 4.03168C109.07 2.83458 107.703 2.23913 106.066 2.23913C104.428 2.23913 103.061 2.83491 102.026 4.03265C101.171 5.0183 100.771 6.28208 100.771 7.76116V23.285L99.0607 24.0953V7.76116C99.0607 6.28209 98.6606 5.0183 97.8061 4.03265C96.7711 2.83491 95.4041 2.23913 93.7664 2.23913C92.1288 2.23913 90.7618 2.83491 89.7268 4.03265C88.8722 5.0183 88.4722 6.28208 88.4722 7.76116V23.285L86.7615 24.0953V8.82405C86.7615 6.78898 87.3915 5.16511 88.623 3.89658ZM131.443 3.89618C132.739 2.57291 134.433 1.89502 136.586 1.89502C138.706 1.89502 140.404 2.57175 141.735 3.90252L141.736 3.90339L141.737 3.90426C142.958 5.11599 143.591 6.73267 143.591 8.82405V23.285L141.88 24.0953V7.76116C141.88 6.28161 141.48 5.01746 140.625 4.03168C139.59 2.83458 138.223 2.23913 136.586 2.23913C134.949 2.23913 133.582 2.83458 132.547 4.03168C131.692 5.01746 131.292 6.28161 131.292 7.76116V23.285L129.581 24.0953V8.82405C129.581 6.78876 130.211 5.16477 131.443 3.89618ZM174.798 3.20398C175.858 2.34147 177.177 1.89502 178.798 1.89502C180.419 1.89502 181.738 2.34139 182.798 3.20374C183.786 4.009 184.335 5.08168 184.423 6.48211L182.725 7.28636V6.31866C182.725 5.03926 182.357 3.96652 181.509 3.23559C180.746 2.57032 179.831 2.23913 178.798 2.23913C177.664 2.23913 176.693 2.60193 175.952 3.36745C175.171 4.17506 174.87 5.46941 174.87 7.0475C174.87 8.42771 175.092 9.58156 175.723 10.2837C176.483 11.1331 177.541 11.5218 178.798 11.5218C181.264 11.5218 182.969 12.0765 184.042 13.0619C185.198 14.1284 185.788 15.519 185.788 17.2968C185.788 19.2011 185.168 20.7931 183.932 22.1124C182.692 23.4239 181.006 24.1044 178.798 24.1044C176.588 24.1044 174.902 23.4232 173.662 22.1106C172.507 20.8875 171.894 19.4894 171.804 17.8932L173.504 17.0884V18.4205C173.504 19.7957 173.914 20.9926 174.758 21.9668C175.793 23.1645 177.16 23.7603 178.798 23.7603C180.426 23.7603 181.791 23.1639 182.834 21.9703C183.717 20.9634 184.077 19.3545 184.077 17.3272C184.077 15.7145 183.779 14.3949 183.038 13.526C182.062 12.3802 180.601 11.8659 178.798 11.8659C176.964 11.8659 175.538 11.3591 174.457 10.3954C173.615 9.63713 173.159 8.54849 173.159 7.03231C173.159 5.32412 173.722 4.07989 174.798 3.20398ZM69.1782 2.71521L70.2732 2.1987H78.7785L78.6168 2.54281H70.8889V12.8277H78.7785L78.6168 13.1718H70.8889V23.4566H81.3143L81.1525 23.8007H69.1782V2.71521Z" stroke="#D9EEEA" stroke-width="0.775567" mask="url(#path-4-outside-1_101_2328)"/>
</svg>
