<svg width="30" height="30" viewBox="0 0 30 30" fill="none" xmlns="http://www.w3.org/2000/svg">
<path d="M19.6875 26.25C20.723 26.25 21.5625 25.4105 21.5625 24.375C21.5625 23.3395 20.723 22.5 19.6875 22.5C18.652 22.5 17.8125 23.3395 17.8125 24.375C17.8125 25.4105 18.652 26.25 19.6875 26.25Z" fill="white"/>
<path d="M19.6875 7.5C20.723 7.5 21.5625 6.66053 21.5625 5.625C21.5625 4.58947 20.723 3.75 19.6875 3.75C18.652 3.75 17.8125 4.58947 17.8125 5.625C17.8125 6.66053 18.652 7.5 19.6875 7.5Z" fill="white"/>
<path d="M3.75 16.875C4.78553 16.875 5.625 16.0355 5.625 15C5.625 13.9645 4.78553 13.125 3.75 13.125C2.71447 13.125 1.875 13.9645 1.875 15C1.875 16.0355 2.71447 16.875 3.75 16.875Z" fill="white"/>
<path d="M26.25 11.25C25.4209 11.2525 24.616 11.5299 23.9615 12.0389C23.307 12.5478 22.8398 13.2595 22.6331 14.0625H18.6169C18.4841 13.5338 18.2367 13.0408 17.8922 12.6183C17.5477 12.1959 17.1145 11.8543 16.6233 11.6179C16.1321 11.3815 15.595 11.256 15.0499 11.2502C14.5048 11.2445 13.9651 11.3587 13.4691 11.5847L10.4906 7.86281C10.9807 7.2195 11.2474 6.43374 11.25 5.625C11.25 4.88332 11.0301 4.1583 10.618 3.54161C10.206 2.92493 9.62029 2.44428 8.93506 2.16045C8.24984 1.87662 7.49584 1.80236 6.76841 1.94706C6.04098 2.09175 5.3728 2.4489 4.84835 2.97335C4.3239 3.4978 3.96675 4.16598 3.82206 4.89341C3.67736 5.62084 3.75162 6.37484 4.03545 7.06006C4.31928 7.74529 4.79993 8.33096 5.41661 8.74301C6.0333 9.15507 6.75832 9.375 7.5 9.375C8.02851 9.37263 8.55054 9.25858 9.03188 9.04031L12.0094 12.7622C11.5172 13.4044 11.2505 14.1909 11.2505 15C11.2505 15.8091 11.5172 16.5956 12.0094 17.2378L9.03188 20.9597C8.55054 20.7414 8.02851 20.6274 7.5 20.625C6.75832 20.625 6.0333 20.8449 5.41661 21.257C4.79993 21.669 4.31928 22.2547 4.03545 22.9399C3.75162 23.6252 3.67736 24.3792 3.82206 25.1066C3.96675 25.834 4.3239 26.5022 4.84835 27.0267C5.3728 27.5511 6.04098 27.9083 6.76841 28.0529C7.49584 28.1976 8.24984 28.1234 8.93506 27.8396C9.62029 27.5557 10.206 27.0751 10.618 26.4584C11.0301 25.8417 11.25 25.1167 11.25 24.375C11.2474 23.5663 10.9807 22.7805 10.4906 22.1372L13.4681 18.4153C13.9642 18.6415 14.504 18.7558 15.0492 18.7502C15.5944 18.7445 16.1317 18.619 16.623 18.3826C17.1143 18.1462 17.5476 17.8046 17.8921 17.382C18.2367 16.9595 18.4841 16.4663 18.6169 15.9375H22.6331C22.8097 16.6149 23.1726 17.2292 23.6807 17.7107C24.1889 18.1922 24.8218 18.5216 25.5078 18.6614C26.1937 18.8013 26.9051 18.746 27.5611 18.5018C28.2172 18.2577 28.7917 17.8345 29.2193 17.2803C29.6469 16.726 29.9106 16.063 29.9804 15.3665C30.0501 14.6699 29.9232 13.9678 29.6139 13.3398C29.3047 12.7117 28.8256 12.183 28.2309 11.8136C27.6363 11.4442 26.95 11.249 26.25 11.25ZM5.625 5.625C5.625 5.25416 5.73497 4.89165 5.941 4.58331C6.14702 4.27497 6.43986 4.03464 6.78247 3.89273C7.12508 3.75081 7.50208 3.71368 7.8658 3.78603C8.22951 3.85838 8.5636 4.03695 8.82583 4.29918C9.08805 4.5614 9.26663 4.89549 9.33897 5.25921C9.41132 5.62292 9.37419 5.99992 9.23228 6.34253C9.09036 6.68514 8.85004 6.97798 8.5417 7.18401C8.23335 7.39003 7.87084 7.5 7.5 7.5C7.00272 7.5 6.52581 7.30246 6.17418 6.95083C5.82255 6.5992 5.625 6.12228 5.625 5.625ZM7.5 26.25C7.12916 26.25 6.76665 26.14 6.45831 25.934C6.14997 25.728 5.90964 25.4351 5.76773 25.0925C5.62581 24.7499 5.58868 24.3729 5.66103 24.0092C5.73338 23.6455 5.91195 23.3114 6.17418 23.0492C6.4364 22.787 6.77049 22.6084 7.13421 22.536C7.49792 22.4637 7.87492 22.5008 8.21753 22.6427C8.56014 22.7846 8.85298 23.025 9.05901 23.3333C9.26503 23.6416 9.375 24.0042 9.375 24.375C9.375 24.8723 9.17746 25.3492 8.82583 25.7008C8.4742 26.0525 7.99728 26.25 7.5 26.25ZM15 16.875C14.6292 16.875 14.2667 16.765 13.9583 16.559C13.65 16.353 13.4096 16.0601 13.2677 15.7175C13.1258 15.3749 13.0887 14.9979 13.161 14.6342C13.2334 14.2705 13.412 13.9364 13.6742 13.6742C13.9364 13.412 14.2705 13.2334 14.6342 13.161C14.9979 13.0887 15.3749 13.1258 15.7175 13.2677C16.0601 13.4096 16.353 13.65 16.559 13.9583C16.765 14.2667 16.875 14.6292 16.875 15C16.875 15.4973 16.6775 15.9742 16.3258 16.3258C15.9742 16.6775 15.4973 16.875 15 16.875ZM26.25 16.875C25.8792 16.875 25.5166 16.765 25.2083 16.559C24.9 16.353 24.6596 16.0601 24.5177 15.7175C24.3758 15.3749 24.3387 14.9979 24.411 14.6342C24.4834 14.2705 24.662 13.9364 24.9242 13.6742C25.1864 13.412 25.5205 13.2334 25.8842 13.161C26.2479 13.0887 26.6249 13.1258 26.9675 13.2677C27.3101 13.4096 27.603 13.65 27.809 13.9583C28.015 14.2667 28.125 14.6292 28.125 15C28.125 15.4973 27.9275 15.9742 27.5758 16.3258C27.2242 16.6775 26.7473 16.875 26.25 16.875Z" fill="white"/>
</svg>
