<svg xmlns="http://www.w3.org/2000/svg" width="30" height="30" viewBox="0 0 30 30" fill="none">
  <rect x="1" y="1" width="28" height="28" rx="14" stroke="black" stroke-opacity="0.6"/>
  <path d="M15.933 19.824L19.7807 15.6608C19.8507 15.5816 19.9056 15.4882 19.9423 15.386C20.0192 15.1833 20.0192 14.9559 19.9423 14.7532C19.9056 14.651 19.8507 14.5576 19.7807 14.4784L15.933 10.3152C15.8613 10.2376 15.7761 10.176 15.6824 10.134C15.5886 10.0919 15.4882 10.0703 15.3867 10.0703C15.1818 10.0703 14.9852 10.1584 14.8403 10.3152C14.6954 10.472 14.614 10.6846 14.614 10.9064C14.614 11.1281 14.6954 11.3408 14.8403 11.4975L17.3798 14.237L10.7695 14.237C10.5654 14.237 10.3697 14.3247 10.2254 14.4808C10.0811 14.637 10 14.8488 10 15.0696C10 15.2904 10.0811 15.5022 10.2254 15.6584C10.3697 15.8145 10.5654 15.9022 10.7695 15.9022L17.3798 15.9022L14.8403 18.6417C14.7682 18.7191 14.7109 18.8112 14.6719 18.9126C14.6328 19.0141 14.6127 19.1229 14.6127 19.2328C14.6127 19.3428 14.6328 19.4516 14.6719 19.5531C14.7109 19.6545 14.7682 19.7466 14.8403 19.824C14.9119 19.9021 14.997 19.964 15.0907 20.0063C15.1845 20.0485 15.2851 20.0703 15.3867 20.0703C15.4883 20.0703 15.5888 20.0485 15.6826 20.0063C15.7764 19.964 15.8615 19.9021 15.933 19.824Z" fill="black" fill-opacity="0.6"/>
</svg>