<svg width="42" height="42" viewBox="0 0 42 42" fill="none" xmlns="http://www.w3.org/2000/svg">
<g clip-path="url(#clip0_770_3442)">
<path d="M8.92977 5.19316L6.33398 2.59511L8.92977 0L11.5251 2.59692L8.92977 5.19316ZM12.0992 8.36127L14.6946 5.76526L12.0972 3.16812L9.50209 5.76323L12.0992 8.36127ZM15.2637 11.526L17.8589 8.93089L15.2619 6.33398L12.6657 8.92954L15.2637 11.526ZM18.4289 14.6925L21.0249 12.0974L18.4289 9.50119L15.8338 12.099L18.4289 14.6925ZM8.36127 5.76323L5.76165 3.16812L3.16631 5.76323L5.76323 8.36127L8.36127 5.76323ZM11.5249 8.93089L8.92773 6.33398L6.33104 8.93089L8.92796 11.5278L11.5249 8.93089ZM12.0956 9.50119L9.49758 12.1008L12.0954 14.6977L14.691 12.1008L12.0956 9.50119ZM2.59534 6.33578L0 8.9327L2.59963 11.5307L5.19677 8.9327L2.59534 6.33578ZM3.16631 12.099L5.76323 14.6959L8.36308 12.099L5.76526 9.49916L3.16631 12.099ZM11.5267 15.2635L8.92977 12.6637L6.33285 15.2635L8.92977 17.8604L11.5267 15.2635ZM14.6912 18.4253L12.0956 15.8302L9.49758 18.4271L12.094 21.0252L14.6912 18.4253ZM29.901 26.1639L32.4957 23.5684L29.901 20.9717L27.3054 23.5684L29.901 26.1639ZM33.0673 29.3293L35.662 26.7347L33.0635 24.1353L30.4679 26.7308L33.0673 29.3293ZM36.2343 32.4957L38.8301 29.9008L36.2343 27.307L33.6378 29.9026L36.2343 32.4957ZM39.3961 30.4679L36.8005 33.0655L39.4006 35.6638L41.9962 33.0691L39.3961 30.4679ZM23.8489 24.4889L19.0915 29.247C18.3953 29.9425 17.2552 29.9452 16.5569 29.247L14.9746 27.6579L11.1726 31.4611L10.5386 30.8279L14.3425 27.0267L12.7548 25.4404C12.0566 24.7412 12.0586 23.5991 12.7548 22.9037L17.5093 18.148L16.2432 16.8771L15.2619 17.8607L12.6659 15.2653L15.2619 12.6657L17.857 15.2635L16.8753 16.2443L18.1443 17.5136L22.901 12.7582C23.6002 12.0582 24.7397 12.0582 25.4368 12.7582L29.2416 16.5598C29.9389 17.2581 29.9389 18.3976 29.2416 19.0949L24.4817 23.8521L25.7534 25.122L26.7363 24.1353L29.333 26.7308L26.7363 29.3327L24.1407 26.7363L25.122 25.7514L23.8489 24.4889ZM25.3111 13.8975C24.6859 13.2703 23.655 13.2703 23.0303 13.8975L13.9031 23.0245C13.2759 23.6512 13.2759 24.6823 13.9031 25.3091L25.3111 13.8975ZM27.3034 29.9008L29.9028 32.4957L32.4993 29.9008L29.9028 27.3014L27.3034 29.9008ZM35.662 33.0655L33.0673 30.4679L30.4679 33.0655L33.0673 35.6638L35.662 33.0655ZM33.6342 36.2345L36.2343 38.8339L38.8301 36.2345L36.2343 33.6378L33.6342 36.2345ZM23.5681 27.307L20.9699 29.9055L23.5681 32.5029L26.1639 29.9028L23.5681 27.307ZM26.7311 30.4679L24.1362 33.0689L26.7311 35.6635L29.3302 33.0689L26.7311 30.4679ZM29.8972 33.6342L27.3016 36.2343L29.8972 38.8299L32.4957 36.2343L29.8972 33.6342ZM30.4699 39.3988L33.0693 41.9998L35.664 39.3988L33.0693 36.8041L30.4699 39.3988ZM9.46869 32.5272C8.47299 31.5324 8.18727 30.1434 8.47615 28.8572L7.26785 29.2641C7.1295 30.7175 7.5513 32.2151 8.66549 33.3295C9.77991 34.444 11.2775 34.8662 12.735 34.7315L13.1374 33.5166C11.8562 33.8105 10.4658 33.5239 9.46869 32.5272ZM6.05233 29.6665L4.94491 30.0375C5.01758 31.8157 5.71222 33.5773 7.06338 34.9357C8.41747 36.2887 10.1787 36.9788 11.9571 37.051L12.3256 35.9441C10.7113 35.9578 9.09632 35.3591 7.86455 34.1327C6.63887 32.8974 6.03833 31.2826 6.05233 29.6665ZM3.84968 30.4011L2.75535 30.7674C2.98058 32.8728 3.8578 34.9192 5.46578 36.5293C7.07647 38.1399 9.12227 39.0154 11.2288 39.2397L11.596 38.1427C9.65104 37.9908 7.74945 37.214 6.26672 35.7299C4.784 34.2483 4.00472 32.3435 3.84968 30.4011Z" fill="#F0F0F0" fill-opacity="0.9"/>
</g>
<defs>
<clipPath id="clip0_770_3442">
<rect width="42" height="42" fill="white"/>
</clipPath>
</defs>
</svg>
