<svg width="42" height="42" viewBox="0 0 42 42" fill="none" xmlns="http://www.w3.org/2000/svg">
<g clip-path="url(#clip0_733_1623)">
<path d="M20.9998 7.7229C17.78 7.7229 15.1602 10.3423 15.1602 13.5625C15.1602 16.7827 17.78 19.4021 20.9998 19.4021C24.2195 19.4021 26.8394 16.7827 26.8394 13.5625C26.8394 10.3423 24.2195 7.7229 20.9998 7.7229ZM20.9998 17.6521C18.7448 17.6521 16.9102 15.8175 16.9102 13.5625C16.9102 11.3075 18.7448 9.4729 20.9998 9.4729C23.2548 9.4729 25.0894 11.3075 25.0894 13.5625C25.0894 15.8175 23.2548 17.6521 20.9998 17.6521Z" fill="#D8D8D8"/>
<path d="M39.375 25.2508C40.8804 24.8595 42 23.501 42 21.875C42 20.249 40.8804 18.8905 39.375 18.4992V4.375H30.9933L28.8964 2.27808L26.2816 4.14514C25.5339 3.72388 24.7444 3.39618 23.9241 3.16547L23.396 0H18.604L18.0759 3.16547C17.2556 3.39618 16.4661 3.72388 15.7184 4.14514L13.1036 2.27808L11.0067 4.375H2.625V18.4992C1.11956 18.8905 0 20.249 0 21.875C0 23.501 1.11956 24.8595 2.625 25.2508V35H0V42H7V39.375H17.5V42H24.5V39.375H35V42H42V35H39.375V25.2508ZM40.25 21.875C40.25 22.8401 39.4647 23.625 38.5 23.625C37.5353 23.625 36.75 22.8401 36.75 21.875C36.75 20.9098 37.5353 20.125 38.5 20.125C39.4647 20.125 40.25 20.9098 40.25 21.875ZM13.2933 4.56384L15.6492 6.24548L16.1465 5.92804C17.0403 5.35895 18.0118 4.9552 19.0347 4.72833L19.6106 4.60059L20.0857 1.75H21.9143L22.3894 4.60059L22.9653 4.72833C23.9882 4.9552 24.9597 5.35895 25.8535 5.92804L26.3508 6.24548L28.7067 4.56384L29.9995 5.85583L28.317 8.21039L28.634 8.70856C29.2031 9.60193 29.6073 10.5739 29.8337 11.5972L29.9619 12.1735L32.8125 12.6486V14.476L29.9619 14.951L29.8337 15.5278C29.6073 16.5507 29.2031 17.5222 28.634 18.416L28.317 18.9142L29.9995 21.2692L28.7067 22.5612L26.3517 20.8791L25.8535 21.1965C24.9597 21.7656 23.9882 22.1694 22.9653 22.3962L22.3894 22.524L21.9143 25.375H20.0857L19.6106 22.524L19.0347 22.3962C18.0118 22.1694 17.0403 21.7656 16.1465 21.1965L15.6483 20.8791L13.2933 22.5612L12.0005 21.2692L13.683 18.9142L13.366 18.416C12.7969 17.5222 12.3927 16.5507 12.1663 15.5278L12.0381 14.951L9.1875 14.476V12.6486L12.0381 12.1735L12.1663 11.5972C12.3927 10.5739 12.7969 9.60193 13.366 8.70856L13.683 8.21039L12.0005 5.85583L13.2933 4.56384ZM1.75 21.875C1.75 20.9098 2.53528 20.125 3.5 20.125C4.46472 20.125 5.25 20.9098 5.25 21.875C5.25 22.8401 4.46472 23.625 3.5 23.625C2.53528 23.625 1.75 22.8401 1.75 21.875ZM5.25 40.25H1.75V36.75H5.25V40.25ZM17.5 37.625H7V35H4.375V25.2508C5.88044 24.8595 7 23.501 7 21.875C7 20.249 5.88044 18.8905 4.375 18.4992V6.125H10.0432L11.5826 8.28088C11.1622 9.02856 10.8341 9.81769 10.6034 10.6384L7.4375 11.1661V15.9585L10.6034 16.4861C10.8341 17.3069 11.1614 18.096 11.5826 18.8437L9.71558 21.458L13.1036 24.8469L15.7184 22.9794C16.4661 23.4007 17.2556 23.7284 18.0759 23.9591L18.604 27.125H20.125V35H17.5V37.625ZM22.75 40.25H19.25V36.75H22.75V40.25ZM35 37.625H24.5V35H21.875V27.125H23.396L23.9241 23.9591C24.7444 23.7284 25.5339 23.4007 26.2816 22.9794L28.8964 24.8469L32.2844 21.458L30.4174 18.8437C30.8386 18.096 31.1659 17.3069 31.3966 16.4861L34.5625 15.9585V11.1661L31.3966 10.6384C31.1659 9.81769 30.8378 9.02856 30.4174 8.28088L31.9568 6.125H37.625V18.4992C36.1196 18.8905 35 20.249 35 21.875C35 23.501 36.1196 24.8595 37.625 25.2508V35H35V37.625ZM40.25 36.75V40.25H36.75V36.75H40.25Z" fill="#D8D8D8"/>
</g>
<defs>
<clipPath id="clip0_733_1623">
<rect width="42" height="42" fill="white"/>
</clipPath>
</defs>
</svg>
