<svg width="30" height="30" viewBox="0 0 30 30" fill="none" xmlns="http://www.w3.org/2000/svg">
<path d="M18.125 25H21.875C25 25 28.75 23.125 28.75 18.75C28.75 14.375 25 12.5 22.5 12.5V11.25C22.5 9.26088 21.7098 7.35322 20.3033 5.9467C18.8968 4.54018 16.9891 3.75 15 3.75C13.0109 3.75 11.1032 4.54018 9.6967 5.9467C8.29018 7.35322 7.5 9.26088 7.5 11.25V12.5C5 12.5 1.25 14.375 1.25 18.75C1.25 23.125 5.1475 25 7.5 25C9.8525 25 15 25 15 18.75V15.9375M11.875 17.5L15 14.375L18.125 17.5" stroke="white" stroke-width="2" stroke-linecap="square"/>
</svg>
