<svg width="79" height="22" viewBox="0 0 79 22" fill="none" xmlns="http://www.w3.org/2000/svg">
<path d="M0.203772 11.3025C-0.0679246 11.0308 -0.0679238 10.5903 0.203773 10.3186L10.3186 0.203772C10.5903 -0.0679246 11.0308 -0.0679238 11.3025 0.203773L21.4174 10.3186C21.6891 10.5903 21.6891 11.0308 21.4174 11.3025L11.3025 21.4174C11.0308 21.6891 10.5903 21.6891 10.3186 21.4174L0.203772 11.3025Z" fill="white"/>
<path d="M14.7827 11.1985C14.6013 11.0172 14.6013 10.7232 14.7827 10.5419L16.0617 9.26281C16.243 9.08149 16.537 9.08149 16.7183 9.26281L17.9974 10.5419C18.1787 10.7232 18.1787 11.0172 17.9974 11.1985L16.7183 12.4776C16.537 12.6589 16.243 12.6589 16.0617 12.4776L14.7827 11.1985Z" fill="#0C1312"/>
<path d="M11.232 7.57518C13.0447 9.37929 13.0517 12.3113 11.2476 14.124L9.08013 16.3018L3.62016 10.8677L9.05426 5.40772L11.232 7.57518Z" fill="#0C1312"/>
<path fill-rule="evenodd" clip-rule="evenodd" d="M75.8986 8.0359L73.0836 11.3382L70.2686 8.0359H68.0063L71.9524 12.6733L73.0836 14.0084L75.8857 17.2849H78.1544L74.2147 12.6733L78.1801 8.0359H75.8986ZM72.4831 14.7138L71.362 13.365L68.0191 17.2849H70.2943L72.4831 14.7138Z" fill="white"/>
<path d="M64.4952 17.2848H62.1475V4.33643H64.4952V17.2848Z" fill="white"/>
<path d="M59.931 9.75417C59.931 10.2899 59.8647 10.7685 59.7323 11.1899C59.5999 11.6113 59.4193 11.9845 59.1905 12.3095C58.9678 12.6286 58.709 12.9025 58.414 13.1312C58.119 13.36 57.809 13.5466 57.4839 13.6911C57.1649 13.8355 56.8398 13.9409 56.5087 14.0071C56.1837 14.0733 55.8767 14.1064 55.5877 14.1064H50.2783V11.7587H55.5877C55.8887 11.7347 56.1596 11.6745 56.4004 11.5781C56.6472 11.4758 56.8579 11.3404 57.0325 11.1718C57.207 11.0033 57.3425 10.8016 57.4388 10.5668C57.5351 10.326 57.5833 10.0552 57.5833 9.75417V8.68869C57.5532 8.39372 57.49 8.12283 57.3936 7.87602C57.2973 7.62921 57.1649 7.41853 56.9963 7.24395C56.8338 7.06938 56.6352 6.93394 56.4004 6.83762C56.1656 6.73529 55.8947 6.68412 55.5877 6.68412H50.2964C49.9834 6.68412 49.7456 6.76539 49.5831 6.92792C49.4205 7.09045 49.3393 7.32522 49.3393 7.63223V17.2848H46.9916V7.63223C46.9916 7.03025 47.0999 6.51858 47.3166 6.0972C47.5394 5.67582 47.8133 5.3357 48.1383 5.07686C48.4694 4.81801 48.8276 4.6314 49.2128 4.51702C49.5981 4.39663 49.9533 4.33643 50.2783 4.33643H55.5877C56.1175 4.33643 56.593 4.40566 57.0144 4.54411C57.4358 4.67654 57.806 4.85714 58.125 5.08589C58.4501 5.30861 58.724 5.56746 58.9467 5.86243C59.1755 6.15739 59.3621 6.46741 59.5066 6.79247C59.6571 7.11152 59.7654 7.43658 59.8316 7.76767C59.8978 8.09273 59.931 8.39974 59.931 8.68869V9.75417Z" fill="white"/>
<path d="M44.1067 17.2848H41.759V14.1064H33.506V17.2848H31.1583V10.8106C31.1583 9.86554 31.3208 8.99569 31.6459 8.20109C31.971 7.40649 32.4224 6.72325 33.0003 6.15137C33.5782 5.5795 34.2615 5.13404 35.05 4.815C35.8386 4.49595 36.6995 4.33643 37.6325 4.33643H42.9238C43.0864 4.33643 43.2399 4.36653 43.3843 4.42673C43.5288 4.48692 43.6552 4.5712 43.7636 4.67955C43.8719 4.78791 43.9562 4.91432 44.0164 5.0588C44.0766 5.20327 44.1067 5.35677 44.1067 5.5193V17.2848ZM33.506 11.7587H41.759V6.68412H37.6325C37.5603 6.68412 37.4068 6.69616 37.172 6.72024C36.9433 6.7383 36.6754 6.78946 36.3684 6.87374C36.0674 6.95802 35.7483 7.08744 35.4112 7.26201C35.0741 7.43658 34.7641 7.67737 34.4812 7.98438C34.1983 8.29138 33.9635 8.67665 33.7769 9.14016C33.5963 9.59766 33.506 10.1545 33.506 10.8106V11.7587Z" fill="white"/>
</svg>
