<svg width="120" height="17" viewBox="0 0 120 17" fill="none" xmlns="http://www.w3.org/2000/svg">
<path d="M4.92648 1.55689H-6.3987e-07V-6.69116e-05H11.619V1.55689H6.69257V16.2666H4.92648V1.55689ZM11.7289 14.1287V6.83193L13.8668 4.69403H19.6996L21.8607 6.83193V10.9916H13.4485V13.5942L14.6104 14.7329H18.9559L20.1178 13.5942V12.7112H21.8375V14.1287L19.6996 16.2666H13.8668L11.7289 14.1287ZM20.1411 9.50432V7.36641L18.9792 6.22774H14.6104L13.4485 7.36641V9.50432H20.1411ZM24.9873 4.69403H26.6604V7.15727L29.1237 4.69403H32.6791L34.817 6.83193V16.2666H33.0974V7.36641L31.9355 6.22774H29.5884L26.7069 9.10927V16.2666H24.9873V4.69403ZM37.6139 14.3611V12.9203H39.3336V13.8731L40.2631 14.7794H44.5389L45.4684 13.8731V12.0837L44.5389 11.1542H39.5427L37.7069 9.31841V6.59955L39.6124 4.69403H45.0501L46.9557 6.59955V8.04032H45.236V7.08755L44.3065 6.18127H40.356L39.4265 7.08755V8.78393L40.356 9.71346H45.2825L47.188 11.619V14.3611L45.2825 16.2666H39.5195L37.6139 14.3611ZM49.8539 14.1287V6.83193L51.9918 4.69403H57.9407L60.0786 6.83193V14.1287L57.9407 16.2666H51.9918L49.8539 14.1287ZM57.1971 14.7329L58.359 13.5942V7.36641L57.1971 6.22774H52.7354L51.5735 7.36641V13.5942L52.7354 14.7329H57.1971ZM63.3392 4.69403H65.0124V6.76222L67.0806 4.69403H70.0783V6.22774H67.5221L65.0589 8.69098V16.2666H63.3392V4.69403ZM72.3967 -6.69116e-05H74.3022L79.5307 12.595H79.5772L84.8058 -6.69116e-05H86.7346V16.2666H85.0614V3.41593H85.0149L80.2511 14.6399H78.8568L74.1163 3.41593H74.0698V16.2666H72.3967V-6.69116e-05ZM90.1121 14.1287V6.83193L92.25 4.69403H98.0827L100.244 6.83193V10.9916H91.8317V13.5942L92.9936 14.7329H97.3391L98.501 13.5942V12.7112H100.221V14.1287L98.0827 16.2666H92.25L90.1121 14.1287ZM98.5243 9.50432V7.36641L97.3624 6.22774H92.9936L91.8317 7.36641V9.50432H98.5243ZM103.37 4.69403H105.044V6.92489L107.274 4.69403H110.04L111.852 6.5066L113.665 4.69403H117.313L119.451 6.83193V16.2666H117.732V7.36641L116.57 6.22774H114.014L112.387 7.85441V16.2666H110.714V7.36641L109.552 6.22774H107.6L105.09 8.73746V16.2666H103.37V4.69403Z" fill="white"/>
</svg>
